SplineFontDB: 3.2
FontName: Samaano-Wide-Thin-Slanted
FullName: Samaano Wide Thin Slanted
FamilyName: Samaano
Weight: Thin
Copyright: Copyright 2024 The Samaano Project Authors (https://github.com/mitradranirban/samaano-fonts)
UComments: "2024-8-27: Created with FontForge (http://fontforge.org)"
Version: 1.511
ItalicAngle: -20
UnderlinePosition: 0
UnderlineWidth: 102
Ascent: 1638
Descent: 410
InvalidEm: 0
UFOAscent: 1638
UFODescent: -410
LayerCount: 2
Layer: 0 0 "Back" 1
Layer: 1 0 "public.default" 0 "glyphs"
StyleMap: 0x0001
FSType: 256
OS2Version: 0
OS2_WeightWidthSlopeOnly: 0
OS2_UseTypoMetrics: 0
CreationTime: 1730190068
ModificationTime: 1730308439
PfmFamily: 17
TTFWeight: 100
TTFWidth: 9
LineGap: 0
VLineGap: 0
Panose: 2 0 2 9 0 2 1 0 0 4
OS2TypoAscent: 2457
OS2TypoAOffset: 0
OS2TypoDescent: -615
OS2TypoDOffset: 0
OS2TypoLinegap: 0
OS2WinAscent: 2834
OS2WinAOffset: 0
OS2WinDescent: 978
OS2WinDOffset: 0
HheadAscent: 2457
HheadAOffset: 0
HheadDescent: -615
HheadDOffset: 0
OS2CapHeight: 1548
OS2XHeight: 1023
OS2FamilyClass: 1031
OS2Vendor: 'anir'
Lookup: 4 0 1 "ligaStandardLigaturesinLatinlookup0" { "ligaStandardLigaturesinLatinlookup0 subtable"  } ['liga' ('latn' <'dflt' > 'DFLT' <'dflt' > ) ]
Lookup: 4 0 0 "nuktNuktaFormsinDevanagari2lookup0" { "nuktNuktaFormsinDevanagari2lookup0 subtable"  } ['nukt' ('dev2' <'dflt' > 'DFLT' <'dflt' > ) ]
Lookup: 4 0 0 "akhnAkhandinDevanagari2lookup0" { "akhnAkhandinDevanagari2lookup0 subtable"  } ['akhn' ('dev2' <'dflt' > 'DFLT' <'dflt' > ) ]
Lookup: 4 0 0 "rphfRephForminDevanagari2lookup0" { "rphfRephForminDevanagari2lookup0 subtable"  } ['rphf' ('dev2' <'dflt' > 'DFLT' <'dflt' > ) ]
Lookup: 4 0 0 "blwfBelowBaseFormsinDevanagari2lookup0" { "blwfBelowBaseFormsinDevanagari2lookup0 subtable"  } ['blwf' ('dev2' <'dflt' > 'DFLT' <'dflt' > ) ]
Lookup: 4 0 0 "halfHalfFormsinDevanagari2lookup0" { "halfHalfFormsinDevanagari2lookup0 subtable"  } ['half' ('dev2' <'dflt' > 'DFLT' <'dflt' > ) ]

StartChar: .notdef
Encoding: 0 0 0
GlifName: _notdef
Width: 2048
VWidth: 0
Flags: W
LayerCount: 2
Fore
SplineSet
457.177 -16 m 257
 1455.18 -16 l 257
 2052.09 1624 l 257
 1054.09 1624 l 257
 457.177 -16 l 257
560.294 64 m 257
 1099.7 1546 l 257
 1231 827 l 257
 560.294 64 l 257
652.294 64 m 257
 1240.98 750 l 257
 1332.29 64 l 257
 652.294 64 l 257
1224.07 1558 m 257
 1855.07 1558 l 257
 1300.85 909 l 257
 1224.07 1558 l 257
1310.82 832 m 257
 1951.43 1559 l 257
 1407.29 64 l 257
 1310.82 832 l 257
EndSplineSet
EndChar

StartChar: A
Encoding: 65 65 1
GlifName: A_
Width: 2048
VWidth: 0
GlyphClass: 2
Flags: W
AnchorPoint: "top" 1629 1625 basechar 0
AnchorPoint: "base" 1063 11 basechar 0
LayerCount: 2
Fore
SplineSet
128 0 m 257
 187 0 l 257
 752.246 1553 l 257
 693.246 1553 l 257
 128 0 l 257
730.044 1492 m 257
 2418.04 1492 l 257
 2440.25 1553 l 257
 752.246 1553 l 257
 730.044 1492 l 257
534.051 970 m 257
 512.577 911 l 257
 2206.58 911 l 257
 2228.05 970 l 257
 534.051 970 l 257
1859 0 m 257
 1919 0 l 257
 2484.25 1553 l 257
 2424.25 1553 l 257
 1859 0 l 257
EndSplineSet
EndChar

StartChar: AE
Encoding: 198 198 2
GlifName: A_E_
Width: 2048
VWidth: 0
GlyphClass: 2
Flags: W
LayerCount: 2
Fore
SplineSet
1062.57 62 m 257
 1040 0 l 257
 1972 0 l 257
 1994.57 62 l 257
 1062.57 62 l 257
76 0 m 257
 138 0 l 257
 702.154 1550 l 257
 640.154 1550 l 257
 76 0 l 257
661.952 1489 m 257
 2491.95 1489 l 257
 2514.15 1550 l 257
 684.154 1550 l 257
 661.952 1489 l 257
496.342 1023 m 257
 474.867 964 l 257
 2248.87 964 l 257
 2270.34 1023 l 257
 496.342 1023 l 257
1014 0 m 257
 1074 0 l 257
 1638.15 1550 l 257
 1578.15 1550 l 257
 1014 0 l 257
EndSplineSet
EndChar

StartChar: B
Encoding: 66 66 12
GlifName: B_
Width: 2048
VWidth: 0
GlyphClass: 2
Flags: W
AnchorPoint: "top" 1174 1629 basechar 0
AnchorPoint: "base" 250 -67 basechar 0
LayerCount: 2
Fore
SplineSet
114 0 m 257
 171 0 l 257
 736.246 1553 l 257
 679.246 1553 l 257
 114 0 l 257
1603.77 1494 m 257
 2347.41 1232 l 257
 2367.79 1288 l 257
 1624.15 1550 l 257
 1603.77 1494 l 257
1391.65 848 m 257
 2347.41 1232 l 257
 2367.07 1286 l 257
 1413.49 908 l 257
 1391.65 848 l 257
1087.57 62 m 257
 1065 0 l 257
 2090.96 434 l 257
 2114.99 500 l 257
 1087.57 62 l 257
1330.69 719 m 257
 2090.51 430 l 257
 2116.35 501 l 257
 1353.26 781 l 257
 1330.69 719 l 257
498.121 907 m 257
 476.283 847 l 257
 1391.28 847 l 257
 1413.12 907 l 257
 498.121 907 l 257
443.261 781 m 257
 421.423 721 l 257
 1331.42 721 l 257
 1353.26 781 l 257
 443.261 781 l 257
177.566 62 m 257
 155 0 l 257
 1065 0 l 257
 1087.57 62 l 257
 177.566 62 l 257
715.246 1553 m 257
 693.771 1494 l 257
 1603.77 1494 l 257
 1625.25 1553 l 257
 715.246 1553 l 257
EndSplineSet
EndChar

StartChar: C
Encoding: 67 67 13
GlifName: C_
Width: 2048
VWidth: 0
GlyphClass: 2
Flags: W
AnchorPoint: "top" 1508 1643 basechar 0
AnchorPoint: "base" 1090 -124 basechar 0
LayerCount: 2
Fore
SplineSet
636.246 1553 m 257
 71 0 l 257
 131 0 l 257
 696.246 1553 l 257
 636.246 1553 l 257
665.246 1553 m 257
 644.136 1495 l 257
 2521.14 1495 l 257
 2542.25 1553 l 257
 665.246 1553 l 257
126.11 58 m 257
 105 0 l 257
 1975 0 l 257
 1996.11 58 l 257
 126.11 58 l 257
EndSplineSet
EndChar

StartChar: D
Encoding: 68 68 19
GlifName: D_
Width: 2048
VWidth: 0
GlyphClass: 2
Flags: W
AnchorPoint: "base" 637 -165 basechar 0
AnchorPoint: "top" 1238 1633 basechar 0
LayerCount: 2
Fore
SplineSet
673.246 1553 m 257
 108 0 l 257
 168 0 l 257
 733.246 1553 l 257
 673.246 1553 l 257
1812.15 1550 m 257
 1791.41 1493 l 257
 2287.78 961 l 257
 2310.34 1023 l 257
 1812.15 1550 l 257
1269.11 58 m 257
 1248 0 l 257
 2289.41 960 l 257
 2312.34 1023 l 257
 1269.11 58 l 257
733.246 1553 m 257
 711.407 1493 l 257
 1791.41 1493 l 257
 1813.25 1553 l 257
 733.246 1553 l 257
191.11 58 m 257
 170 0 l 257
 1248 0 l 257
 1269.11 58 l 257
 191.11 58 l 257
EndSplineSet
EndChar

StartChar: Dcroat
Encoding: 272 272 21
GlifName: D_croat
Width: 2048
VWidth: 0
GlyphClass: 2
Flags: W
LayerCount: 2
Fore
SplineSet
396.312 935 m 257
 374.838 876 l 257
 786.838 876 l 257
 808.312 935 l 257
 396.312 935 l 257
726.154 1550 m 257
 162 0 l 257
 224 0 l 257
 788.154 1550 l 257
 726.154 1550 l 257
2076.15 1550 m 257
 2053.59 1488 l 257
 2321.76 906 l 257
 2362.89 1019 l 257
 2076.15 1550 l 257
1542.2 61 m 257
 1520 0 l 257
 2325.03 915 l 257
 2364.34 1023 l 257
 1542.2 61 l 257
772.154 1550 m 257
 749.588 1488 l 257
 2053.59 1488 l 257
 2076.15 1550 l 257
 772.154 1550 l 257
226.202 61 m 257
 204 0 l 257
 1520 0 l 257
 1542.2 61 l 257
 226.202 61 l 257
EndSplineSet
EndChar

StartChar: E
Encoding: 69 69 22
GlifName: E_
Width: 2048
VWidth: 0
GlyphClass: 2
Flags: W
AnchorPoint: "top" 1486 1633 basechar 0
AnchorPoint: "base" 1008 -129 basechar 0
LayerCount: 2
Fore
SplineSet
680.154 1550 m 257
 116 0 l 257
 174 0 l 257
 738.154 1550 l 257
 680.154 1550 l 257
717.246 1553 m 257
 694.315 1490 l 257
 2454.32 1490 l 257
 2477.25 1553 l 257
 717.246 1553 l 257
179.838 60 m 257
 158 0 l 257
 1928 0 l 257
 1949.84 60 l 257
 179.838 60 l 257
470.65 859 m 257
 448.448 798 l 257
 1972.45 798 l 257
 1994.65 859 l 257
 470.65 859 l 257
EndSplineSet
EndChar

StartChar: Eng
Encoding: 330 330 31
GlifName: E_ng
Width: 2048
VWidth: 0
GlyphClass: 2
Flags: W
LayerCount: 2
Fore
SplineSet
1419 -348 m 257
 1399.5 -408 l 257
 1786.5 -408 l 257
 1806 -348 l 257
 1419 -348 l 257
654.315 1490 m 257
 112 0 l 257
 177 0 l 257
 719 1490 l 257
 654.315 1490 l 257
2436 1550 m 257
 1724 -408 l 257
 1787.5 -408 l 257
 2500 1550 l 257
 2436 1550 l 257
676.154 1550 m 257
 604 1490 l 257
 2427 1490 l 257
 2499.15 1550 l 257
 676.154 1550 l 257
EndSplineSet
EndChar

StartChar: Eth
Encoding: 208 208 33
AltUni2: 000189.ffffffff.0
GlifName: E_th
Width: 2048
VWidth: 0
GlyphClass: 2
Flags: W
LayerCount: 2
Fore
SplineSet
735.625 935 m 257
 690.492 873 l 257
 997.492 873 l 257
 1042.62 935 l 257
 735.625 935 l 257
1292.49 1553 m 257
 162 0 l 257
 223 0 l 257
 1353.49 1553 l 257
 1292.49 1553 l 257
2642.49 1553 m 257
 2592.26 1484 l 257
 2694.73 964 l 257
 2737.68 1023 l 257
 2642.49 1553 l 257
1563.68 60 m 257
 1520 0 l 257
 2694.73 964 l 257
 2737.68 1023 l 257
 1563.68 60 l 257
1332.49 1553 m 257
 1282.26 1484 l 257
 2592.26 1484 l 257
 2642.49 1553 l 257
 1332.49 1553 l 257
253.676 60 m 257
 210 0 l 257
 1520 0 l 257
 1563.68 60 l 257
 253.676 60 l 257
EndSplineSet
EndChar

StartChar: Euro
Encoding: 8364 8364 34
GlifName: E_uro
Width: 2048
VWidth: 0
GlyphClass: 2
Flags: W
LayerCount: 2
Fore
SplineSet
877.265 520 m 257
 852.15 451 l 257
 1489.15 451 l 257
 1514.26 520 l 257
 877.265 520 l 257
1011.56 856 m 257
 986.809 788 l 257
 1595.81 788 l 257
 1620.56 856 l 257
 1011.56 856 l 257
1329.43 1026 m 257
 1021.15 179 l 257
 1101.15 179 l 257
 1409.43 1026 l 257
 1329.43 1026 l 257
1868.36 1633 m 257
 1329.43 1026 l 257
 1409.43 1026 l 257
 1883.9 1607 l 257
 1868.36 1633 l 257
1021.15 179 m 257
 1152.23 -406 l 257
 1212.23 -406 l 257
 1101.15 179 l 257
 1021.15 179 l 257
EndSplineSet
EndChar

StartChar: F
Encoding: 70 70 35
GlifName: F_
Width: 2048
VWidth: 0
GlyphClass: 2
Flags: W
LayerCount: 2
Fore
SplineSet
682.246 1553 m 257
 118.092 3 l 257
 177.092 3 l 257
 741.246 1553 l 257
 682.246 1553 l 257
741.246 1553 m 257
 720.863 1497 l 257
 2474.86 1497 l 257
 2495.25 1553 l 257
 741.246 1553 l 257
481.471 864 m 257
 460.36 806 l 257
 2050.36 806 l 257
 2071.47 864 l 257
 481.471 864 l 257
EndSplineSet
EndChar

StartChar: G
Encoding: 71 71 36
GlifName: G_
Width: 2048
VWidth: 0
GlyphClass: 2
Flags: W
AnchorPoint: "top" 1462 1661 basechar 0
AnchorPoint: "base" 924 -48 basechar 0
LayerCount: 2
Fore
SplineSet
683.511 1529 m 257
 125.544 -4 l 257
 184.544 -4 l 257
 742.511 1529 l 257
 683.511 1529 l 257
736.511 1529 m 257
 714.672 1469 l 257
 2419.67 1469 l 257
 2441.51 1529 l 257
 736.511 1529 l 257
179.838 60 m 257
 158 0 l 257
 1921 0 l 257
 1942.84 60 l 257
 179.838 60 l 257
2064.19 561 m 257
 1866.55 18 l 257
 1927.55 18 l 257
 2125.19 561 l 257
 2064.19 561 l 257
EndSplineSet
EndChar

StartChar: H
Encoding: 72 72 40
GlifName: H_
Width: 2048
VWidth: 0
GlyphClass: 2
Flags: W
AnchorPoint: "top" 1520 1646 basechar 0
AnchorPoint: "base" 1000 -58 basechar 0
LayerCount: 2
Fore
SplineSet
679.246 1553 m 257
 114 0 l 257
 173 0 l 257
 738.246 1553 l 257
 679.246 1553 l 257
2438.25 1553 m 257
 1873 0 l 257
 1934 0 l 257
 2499.25 1553 l 257
 2438.25 1553 l 257
491.944 923 m 257
 470.471 864 l 257
 2211.47 864 l 257
 2232.94 923 l 257
 491.944 923 l 257
EndSplineSet
EndChar

StartChar: Hbar
Encoding: 294 294 41
GlifName: H_bar
Width: 2048
VWidth: 0
GlyphClass: 2
Flags: W
LayerCount: 2
Fore
SplineSet
670.515 1540 m 257
 110 0 l 257
 170 0 l 257
 730.515 1540 l 257
 670.515 1540 l 257
2430.51 1540 m 257
 1870 0 l 257
 1930 0 l 257
 2490.51 1540 l 257
 2430.51 1540 l 257
521.25 1020 m 257
 499.048 959 l 257
 2235.05 959 l 257
 2257.25 1020 l 257
 521.25 1020 l 257
571.934 1434 m 257
 550.095 1374 l 257
 2498.09 1374 l 257
 2519.93 1434 l 257
 571.934 1434 l 257
EndSplineSet
EndChar

StartChar: I
Encoding: 73 73 43
GlifName: I_
Width: 2048
VWidth: 0
GlyphClass: 2
Flags: W
AnchorPoint: "top" 1680 1718 basechar 0
AnchorPoint: "base" 1084 -56 basechar 0
LayerCount: 2
Fore
SplineSet
718.154 1550 m 257
 695.952 1489 l 257
 2420.95 1489 l 257
 2443.15 1550 l 257
 718.154 1550 l 257
1609.42 1515 m 257
 1070.38 34 l 257
 1129.38 34 l 257
 1668.42 1515 l 257
 1609.42 1515 l 257
158.022 66 m 257
 136.184 6 l 257
 1916.18 6 l 257
 1938.02 66 l 257
 158.022 66 l 257
EndSplineSet
EndChar

StartChar: J
Encoding: 74 74 54
GlifName: J_
Width: 2048
VWidth: 0
GlyphClass: 2
Flags: W
AnchorPoint: "top" 2481 1825 basechar 0
LayerCount: 2
Fore
SplineSet
2419.78 1527 m 257
 1864 0 l 257
 1924 0 l 257
 2479.78 1527 l 257
 2419.78 1527 l 257
145.838 60 m 257
 124 0 l 257
 1890 0 l 257
 1911.84 60 l 257
 145.838 60 l 257
307.077 503 m 257
 133.827 27 l 257
 193.827 27 l 257
 367.077 503 l 257
 307.077 503 l 257
EndSplineSet
EndChar

StartChar: K
Encoding: 75 75 56
GlifName: K_
Width: 2048
VWidth: 0
GlyphClass: 2
Flags: W
AnchorPoint: "base" 637 -211 basechar 0
AnchorPoint: "top" 843 1686 basechar 0
LayerCount: 2
Fore
SplineSet
737.246 1553 m 257
 173.82 5 l 257
 233.82 5 l 257
 797.246 1553 l 257
 737.246 1553 l 257
599.43 1015 m 257
 573.588 944 l 257
 2406.15 1550 l 257
 2336.15 1550 l 257
 599.43 1015 l 257
569.948 934 m 257
 517.19 844 l 257
 1826 0 l 257
 1876 0 l 257
 569.948 934 l 257
EndSplineSet
EndChar

StartChar: L
Encoding: 76 76 57
GlifName: L_
Width: 2048
VWidth: 0
GlyphClass: 2
Flags: W
AnchorPoint: "base" 1000 -123 basechar 0
AnchorPoint: "top" 822 1738 basechar 0
LayerCount: 2
Fore
SplineSet
695.246 1553 m 257
 130 0 l 257
 190 0 l 257
 755.246 1553 l 257
 695.246 1553 l 257
166.202 61 m 257
 144 0 l 257
 1914 0 l 257
 1936.2 61 l 257
 166.202 61 l 257
EndSplineSet
EndChar

StartChar: Lcaron
Encoding: 317 317 59
GlifName: L_caron
Width: 2048
VWidth: 0
GlyphClass: 2
Flags: W
LayerCount: 2
Fore
SplineSet
655.242 1542 m 257
 95.0918 3 l 257
 157.092 3 l 257
 717.242 1542 l 257
 655.242 1542 l 257
144.566 62 m 257
 123.092 3 l 257
 1955.09 3 l 257
 1976.57 62 l 257
 144.566 62 l 257
1032.5 1496 m 257
 948.059 1264 l 257
 988.059 1264 l 257
 1072.5 1496 l 257
 1032.5 1496 l 257
EndSplineSet
EndChar

StartChar: Lslash
Encoding: 321 321 61
GlifName: L_slash
Width: 2048
VWidth: 0
GlyphClass: 2
Flags: W
LayerCount: 2
Fore
SplineSet
733.242 1542 m 257
 173.092 3 l 257
 233.092 3 l 257
 793.242 1542 l 257
 733.242 1542 l 257
219.294 64 m 257
 197.092 3 l 257
 2032.09 3 l 257
 2054.29 64 l 257
 219.294 64 l 257
345.301 902 m 257
 412.198 866 l 257
 919.72 1068 l 257
 852.823 1104 l 257
 345.301 902 l 257
EndSplineSet
EndChar

StartChar: M
Encoding: 77 77 62
GlifName: M_
Width: 2048
VWidth: 0
GlyphClass: 2
Flags: W
AnchorPoint: "top" 1588 1738 basechar 0
LayerCount: 2
Fore
SplineSet
665.246 1553 m 257
 100 0 l 257
 160 0 l 257
 725.246 1553 l 257
 665.246 1553 l 257
2451.25 1553 m 257
 1884.91 -3 l 257
 1946.91 -3 l 257
 2513.25 1553 l 257
 2451.25 1553 l 257
665.246 1553 m 257
 1421.98 1033 l 257
 1491.98 1033 l 257
 725.246 1553 l 257
 665.246 1553 l 257
2451.25 1553 m 257
 1423.98 1033 l 257
 1491.98 1033 l 257
 2513.25 1553 l 257
 2451.25 1553 l 257
EndSplineSet
EndChar

StartChar: N
Encoding: 78 78 63
GlifName: N_
Width: 2048
VWidth: 0
GlyphClass: 2
Flags: W
AnchorPoint: "top" 1736 1754 basechar 0
AnchorPoint: "base" 522 -36 basechar 0
LayerCount: 2
Fore
SplineSet
663.246 1553 m 257
 98 0 l 257
 158 0 l 257
 723.246 1553 l 257
 663.246 1553 l 257
2455.25 1553 m 257
 1890 0 l 257
 1950 0 l 257
 2515.25 1553 l 257
 2455.25 1553 l 257
663.246 1553 m 257
 1890 0 l 257
 1950 0 l 257
 723.246 1553 l 257
 663.246 1553 l 257
EndSplineSet
EndChar

StartChar: O
Encoding: 79 79 67
GlifName: O_
Width: 2048
VWidth: 0
GlyphClass: 2
Flags: W
AnchorPoint: "top" 1544 1726 basechar 0
AnchorPoint: "base" 832 -34 basechar 0
LayerCount: 2
Fore
SplineSet
677.246 1553 m 257
 112 0 l 257
 171 0 l 257
 736.246 1553 l 257
 677.246 1553 l 257
2442.25 1553 m 257
 1877 0 l 257
 1936 0 l 257
 2501.25 1553 l 257
 2442.25 1553 l 257
715.246 1553 m 257
 693.407 1493 l 257
 2449.41 1493 l 257
 2471.25 1553 l 257
 715.246 1553 l 257
174.202 61 m 257
 152 0 l 257
 1914 0 l 257
 1936.2 61 l 257
 174.202 61 l 257
EndSplineSet
EndChar

StartChar: OE
Encoding: 338 338 68
GlifName: O_E_
Width: 2048
VWidth: 0
GlyphClass: 2
Flags: W
LayerCount: 2
Fore
SplineSet
688.246 1553 m 257
 123 0 l 257
 182 0 l 257
 747.246 1553 l 257
 688.246 1553 l 257
1664.25 1553 m 257
 1099 0 l 257
 1158 0 l 257
 1723.25 1553 l 257
 1664.25 1553 l 257
726.246 1553 m 257
 704.407 1493 l 257
 2460.41 1493 l 257
 2482.25 1553 l 257
 726.246 1553 l 257
185.202 61 m 257
 163 0 l 257
 1925 0 l 257
 1947.2 61 l 257
 185.202 61 l 257
1443.65 859 m 257
 1421.45 798 l 257
 2156.45 798 l 257
 2178.65 859 l 257
 1443.65 859 l 257
EndSplineSet
EndChar

StartChar: Oslash
Encoding: 216 216 76
GlifName: O_slash
Width: 2048
VWidth: 0
GlyphClass: 2
Flags: W
LayerCount: 2
Fore
SplineSet
2516.27 1630 m 257
 51.5293 -48 l 257
 81.7021 -75 l 257
 2556.98 1588 l 257
 2516.27 1630 l 257
667.515 1540 m 257
 107 0 l 257
 167 0 l 257
 727.515 1540 l 257
 667.515 1540 l 257
2431.42 1537 m 257
 1872 0 l 257
 1931 0 l 257
 2490.42 1537 l 257
 2431.42 1537 l 257
696.786 1538 m 257
 674.948 1478 l 257
 2438.95 1478 l 257
 2460.79 1538 l 257
 696.786 1538 l 257
174.298 75 m 257
 147 0 l 257
 1872 0 l 257
 1899.3 75 l 257
 174.298 75 l 257
EndSplineSet
EndChar

StartChar: P
Encoding: 80 80 78
GlifName: P_
Width: 2048
VWidth: 0
GlyphClass: 2
Flags: W
AnchorPoint: "top" 1600 1706 basechar 0
LayerCount: 2
Fore
SplineSet
691.694 1535 m 257
 133 0 l 257
 192 0 l 257
 750.694 1535 l 257
 691.694 1535 l 257
697.154 1550 m 257
 668.765 1472 l 257
 2452.76 1472 l 257
 2481.15 1550 l 257
 697.154 1550 l 257
2415.06 1536 m 257
 2173.38 872 l 257
 2234.38 872 l 257
 2476.06 1536 l 257
 2415.06 1536 l 257
516.856 931 m 257
 495.019 871 l 257
 2206.02 871 l 257
 2227.86 931 l 257
 516.856 931 l 257
EndSplineSet
EndChar

StartChar: Q
Encoding: 81 81 79
GlifName: Q_
Width: 2048
VWidth: 0
GlyphClass: 2
Flags: W
LayerCount: 2
Fore
SplineSet
677.246 1553 m 257
 112 0 l 257
 170 0 l 257
 735.246 1553 l 257
 677.246 1553 l 257
2443.25 1553 m 257
 1878 0 l 257
 1936 0 l 257
 2501.25 1553 l 257
 2443.25 1553 l 257
717.246 1553 m 257
 696.499 1496 l 257
 2430.5 1496 l 257
 2451.25 1553 l 257
 717.246 1553 l 257
174.566 62 m 257
 152 0 l 257
 1888 0 l 257
 1910.57 62 l 257
 174.566 62 l 257
1420.73 13 m 257
 1447.75 -204 l 257
 1523.95 -165 l 257
 1482.93 52 l 257
 1420.73 13 l 257
EndSplineSet
EndChar

StartChar: R
Encoding: 82 82 80
GlifName: R_
Width: 2048
VWidth: 0
GlyphClass: 2
Flags: W
AnchorPoint: "base" 967 -156 basechar 0
AnchorPoint: "top" 1520 1690 basechar 0
LayerCount: 2
Fore
SplineSet
686.154 1550 m 257
 122 0 l 257
 182 0 l 257
 746.154 1550 l 257
 686.154 1550 l 257
728.154 1550 m 257
 706.68 1491 l 257
 2422.68 1491 l 257
 2444.15 1550 l 257
 728.154 1550 l 257
2384.15 1550 m 257
 2137.38 872 l 257
 2225.38 872 l 257
 2472.15 1550 l 257
 2384.15 1550 l 257
490.128 929 m 257
 467.926 868 l 257
 2211.93 868 l 257
 2234.13 929 l 257
 490.128 929 l 257
732.474 875 m 257
 1870 0 l 257
 1926 0 l 257
 790.474 875 l 257
 732.474 875 l 257
EndSplineSet
EndChar

StartChar: S
Encoding: 83 83 83
GlifName: S_
Width: 2048
VWidth: 0
GlyphClass: 2
Flags: W
AnchorPoint: "top" 1444 1638 basechar 0
AnchorPoint: "base" 979 -146 basechar 0
LayerCount: 2
Fore
SplineSet
691.246 1553 m 257
 669.771 1494 l 257
 2291.77 1494 l 257
 2313.25 1553 l 257
 691.246 1553 l 257
687.242 1542 m 257
 500.161 1028 l 257
 559.161 1028 l 257
 746.242 1542 l 257
 687.242 1542 l 257
175.838 60 m 257
 154 0 l 257
 1886 0 l 257
 1907.84 60 l 257
 175.838 60 l 257
1863 0 m 257
 1922 0 l 257
 2051.21 355 l 257
 1992.21 355 l 257
 1863 0 l 257
500.161 1028 m 257
 1992.21 355 l 257
 2051.21 355 l 257
 559.161 1028 l 257
 500.161 1028 l 257
EndSplineSet
EndChar

StartChar: T
Encoding: 84 84 88
GlifName: T_
Width: 2048
VWidth: 0
GlyphClass: 2
Flags: W
AnchorPoint: "top" 1640 1642 basechar 0
AnchorPoint: "base" 1053 -131 basechar 0
LayerCount: 2
Fore
SplineSet
685.246 1553 m 257
 663.771 1494 l 257
 2471.77 1494 l 257
 2493.25 1553 l 257
 685.246 1553 l 257
1616.32 1512 m 257
 1070.37 12 l 257
 1130.37 12 l 257
 1676.32 1512 l 257
 1616.32 1512 l 257
EndSplineSet
EndChar

StartChar: Thorn
Encoding: 222 222 90
GlifName: T_horn
Width: 2048
VWidth: 0
GlyphClass: 2
Flags: W
LayerCount: 2
Fore
SplineSet
1207.24 1542 m 257
 649.275 9 l 257
 709.275 9 l 257
 1267.24 1542 l 257
 1207.24 1542 l 257
1145.32 1240 m 257
 1126.03 1187 l 257
 1814.03 1187 l 257
 1833.32 1240 l 257
 1145.32 1240 l 257
1794.05 1242 m 257
 1535.27 531 l 257
 1595.27 531 l 257
 1854.05 1242 l 257
 1794.05 1242 l 257
912 544 m 257
 890.161 484 l 257
 1576.16 484 l 257
 1598 544 l 257
 912 544 l 257
EndSplineSet
EndChar

StartChar: U
Encoding: 85 85 91
GlifName: U_
Width: 2048
VWidth: 0
GlyphClass: 2
Flags: W
AnchorPoint: "top" 1556 1630 basechar 0
AnchorPoint: "base" 1108 -160 basechar 0
LayerCount: 2
Fore
SplineSet
721.246 1553 m 257
 156 0 l 257
 218 0 l 257
 783.246 1553 l 257
 721.246 1553 l 257
2395.25 1553 m 257
 1830 0 l 257
 1890 0 l 257
 2455.25 1553 l 257
 2395.25 1553 l 257
226.202 61 m 257
 204 0 l 257
 1848 0 l 257
 1870.2 61 l 257
 226.202 61 l 257
EndSplineSet
EndChar

StartChar: V
Encoding: 86 86 102
GlifName: V_
Width: 2048
VWidth: 0
GlyphClass: 2
Flags: W
AnchorPoint: "top" 1644 1634 basechar 0
AnchorPoint: "base" 1070 -175 basechar 0
LayerCount: 2
Fore
SplineSet
671.246 1553 m 257
 1062 0 l 257
 1122 0 l 257
 735.246 1553 l 257
 671.246 1553 l 257
2437.25 1553 m 257
 1062 0 l 257
 1122 0 l 257
 2507.25 1553 l 257
 2437.25 1553 l 257
EndSplineSet
EndChar

StartChar: W
Encoding: 87 87 103
GlifName: W_
Width: 2048
VWidth: 0
GlyphClass: 2
Flags: W
AnchorPoint: "base" 1055 -123 basechar 0
AnchorPoint: "top" 1616 1634 basechar 0
LayerCount: 2
Fore
SplineSet
665.698 1546 m 257
 103 0 l 257
 163 0 l 257
 725.698 1546 l 257
 665.698 1546 l 257
2442.97 1533 m 257
 1889.37 12 l 257
 1949.37 12 l 257
 2502.97 1533 l 257
 2442.97 1533 l 257
1443.16 1028 m 257
 1069 0 l 257
 1129 0 l 257
 1503.16 1028 l 257
 1443.16 1028 l 257
132.838 60 m 257
 111 0 l 257
 1945 0 l 257
 1966.84 60 l 257
 132.838 60 l 257
EndSplineSet
EndChar

StartChar: X
Encoding: 88 88 108
GlifName: X_
Width: 2048
VWidth: 0
GlyphClass: 2
Flags: W
LayerCount: 2
Fore
SplineSet
667.246 1553 m 257
 1872 0 l 257
 1946 0 l 257
 739.246 1553 l 257
 667.246 1553 l 257
102 0 m 257
 172 0 l 257
 2511.25 1553 l 257
 2435.25 1553 l 257
 102 0 l 257
EndSplineSet
EndChar

StartChar: Y
Encoding: 89 89 109
GlifName: Y_
Width: 2048
VWidth: 0
GlyphClass: 2
Flags: W
AnchorPoint: "top" 1628 1642 basechar 0
AnchorPoint: "base" 1080 -147 basechar 0
LayerCount: 2
Fore
SplineSet
1385.75 895 m 257
 1060 0 l 257
 1119 0 l 257
 1444.75 895 l 257
 1385.75 895 l 257
734.062 1547 m 257
 483.65 859 l 257
 544.65 859 l 257
 795.062 1547 l 257
 734.062 1547 l 257
2376.06 1536 m 257
 2129.65 859 l 257
 2189.65 859 l 257
 2436.06 1536 l 257
 2376.06 1536 l 257
551.488 919 m 257
 529.65 859 l 257
 2162.65 859 l 257
 2184.49 919 l 257
 551.488 919 l 257
EndSplineSet
EndChar

StartChar: Z
Encoding: 90 90 114
GlifName: Z_
Width: 2048
VWidth: 0
GlyphClass: 2
Flags: W
AnchorPoint: "top" 1596 1638 basechar 0
AnchorPoint: "base" 560 -46 basechar 0
LayerCount: 2
Fore
SplineSet
662.154 1550 m 257
 640.68 1491 l 257
 2492.68 1491 l 257
 2514.15 1550 l 257
 662.154 1550 l 257
120.838 60 m 257
 99 0 l 257
 1950 0 l 257
 1971.84 60 l 257
 120.838 60 l 257
2432.68 1491 m 257
 120.838 60 l 257
 180.838 60 l 257
 2492.68 1491 l 257
 2432.68 1491 l 257
EndSplineSet
EndChar

StartChar: a
Encoding: 97 97 118
GlifName: a
Width: 2048
VWidth: 0
GlyphClass: 2
Flags: W
AnchorPoint: "top" 1413 1189 basechar 0
AnchorPoint: "base" 994 -139 basechar 0
LayerCount: 2
Fore
SplineSet
538.342 1023 m 257
 514.319 957 l 257
 2187.32 957 l 257
 2211.34 1023 l 257
 538.342 1023 l 257
2173.34 1023 m 257
 1801 0 l 257
 1878 0 l 257
 2250.34 1023 l 257
 2173.34 1023 l 257
387.382 600 m 257
 364.816 538 l 257
 2012.82 538 l 257
 2035.38 600 l 257
 387.382 600 l 257
380.011 577 m 257
 170 0 l 257
 241 0 l 257
 451.011 577 l 257
 380.011 577 l 257
205.934 74 m 257
 179 0 l 257
 1867 0 l 257
 1893.93 74 l 257
 205.934 74 l 257
EndSplineSet
EndChar

StartChar: acute
Encoding: 180 180 122
GlifName: acute
Width: 2048
VWidth: 0
GlyphClass: 2
Flags: W
LayerCount: 2
Fore
SplineSet
1088.34 1556 m 257
 865.89 1302 l 257
 937.146 1256 l 257
 1160.96 1511 l 257
 1088.34 1556 l 257
EndSplineSet
EndChar

StartChar: acutecomb
Encoding: 769 769 123
GlifName: acutecomb
Width: 0
VWidth: 0
GlyphClass: 4
Flags: W
AnchorPoint: "top" 228 664 mark 0
LayerCount: 2
Fore
SplineSet
358.408 949 m 257
 212.073 764 l 257
 252.698 730 l 257
 399.033 915 l 257
 358.408 949 l 257
EndSplineSet
EndChar

StartChar: ae
Encoding: 230 230 125
GlifName: ae
Width: 2048
VWidth: 0
GlyphClass: 2
Flags: W
LayerCount: 2
Fore
SplineSet
476.342 1023 m 257
 453.775 961 l 257
 2243.78 961 l 257
 2266.34 1023 l 257
 476.342 1023 l 257
1396.34 1023 m 257
 1024 0 l 257
 1084 0 l 257
 1456.34 1023 l 257
 1396.34 1023 l 257
346.019 599 m 257
 323.816 538 l 257
 2063.82 538 l 257
 2086.02 599 l 257
 346.019 599 l 257
337.283 575 m 257
 128 0 l 257
 188 0 l 257
 397.283 575 l 257
 337.283 575 l 257
148.202 61 m 257
 126 0 l 257
 1946 0 l 257
 1968.2 61 l 257
 148.202 61 l 257
2234.34 1023 m 257
 2057.82 538 l 257
 2119.82 538 l 257
 2296.34 1023 l 257
 2234.34 1023 l 257
EndSplineSet
EndChar

StartChar: ampersand
Encoding: 38 38 128
GlifName: ampersand
Width: 2048
VWidth: 0
GlyphClass: 2
Flags: W
LayerCount: 2
Fore
SplineSet
1330.33 1534 m 257
 1305.65 43 l 257
 1386.38 56 l 257
 1408.33 1534 l 257
 1330.33 1534 l 257
1849.94 1467 m 257
 1875.06 1536 l 257
 1409.06 1536 l 257
 1383.94 1467 l 257
 1849.94 1467 l 257
1798.5 1485 m 257
 1624.15 1006 l 257
 1682.15 1006 l 257
 1856.5 1485 l 257
 1798.5 1485 l 257
1000.35 1045 m 257
 978.511 985 l 257
 1674.51 985 l 257
 1696.35 1045 l 257
 1000.35 1045 l 257
1000.35 1045 m 257
 628.735 24 l 257
 718.735 24 l 257
 1090.35 1045 l 257
 1000.35 1045 l 257
645.842 71 m 257
 622.184 6 l 257
 1430.18 6 l 257
 1453.84 71 l 257
 645.842 71 l 257
EndSplineSet
EndChar

StartChar: asciicircum
Encoding: 94 94 131
GlifName: asciicircum
Width: 2048
VWidth: 0
GlyphClass: 2
Flags: W
LayerCount: 2
Fore
SplineSet
1395.8 1027 m 257
 1323.8 1027 l 257
 834.136 407 l 257
 875.761 373 l 257
 1395.8 1027 l 257
1330.89 1030 m 257
 1412.49 364 l 257
 1507.59 400 l 257
 1404.89 1030 l 257
 1330.89 1030 l 257
EndSplineSet
EndChar

StartChar: asciitilde
Encoding: 126 126 132
GlifName: asciitilde
Width: 2048
VWidth: 0
GlyphClass: 2
Flags: W
LayerCount: 2
Fore
SplineSet
1156.8 766 m 257
 1138.6 716 l 257
 1462.76 645 l 257
 1480.96 695 l 257
 1156.8 766 l 257
896.419 710 m 257
 889.309 652 l 257
 1138.6 716 l 257
 1156.8 766 l 257
 896.419 710 l 257
1480.96 695 m 257
 1462.76 645 l 257
 1699.72 796 l 257
 1702.83 843 l 257
 1480.96 695 l 257
EndSplineSet
EndChar

StartChar: asterisk
Encoding: 42 42 133
GlifName: asterisk
Width: 2048
VWidth: 0
GlyphClass: 2
Flags: W
LayerCount: 2
Fore
SplineSet
1470.07 1297 m 257
 1103.19 289 l 257
 1203.19 289 l 257
 1570.07 1297 l 257
 1470.07 1297 l 257
1071.66 1153 m 257
 1530.32 424 l 257
 1624.53 496 l 257
 1156.77 1222 l 257
 1071.66 1153 l 257
1788.76 1200 m 257
 767.423 449 l 257
 805.225 399 l 257
 1816.74 1134 l 257
 1788.76 1200 l 257
EndSplineSet
EndChar

StartChar: at
Encoding: 64 64 134
GlifName: at
Width: 2048
VWidth: 0
GlyphClass: 2
Flags: W
LayerCount: 2
Fore
SplineSet
966.342 1023 m 257
 941.955 956 l 257
 1839.96 956 l 257
 1864.34 1023 l 257
 966.342 1023 l 257
1469.65 598 m 257
 1252 0 l 257
 1320 0 l 257
 1537.65 598 l 257
 1469.65 598 l 257
1050.75 601 m 257
 1032.55 551 l 257
 1456.55 551 l 257
 1474.75 601 l 257
 1050.75 601 l 257
1042.38 589 m 257
 832.367 12 l 257
 886.367 12 l 257
 1096.38 589 l 257
 1042.38 589 l 257
853.662 76 m 257
 826 0 l 257
 1320 0 l 257
 1347.66 76 l 257
 853.662 76 l 257
912.342 1023 m 257
 458.835 -223 l 257
 524.835 -223 l 257
 978.342 1023 l 257
 912.342 1023 l 257
472.85 -179 m 257
 444.096 -258 l 257
 1392.1 -258 l 257
 1420.85 -179 l 257
 472.85 -179 l 257
1799.98 1033 m 257
 1424 0 l 257
 1510 0 l 257
 1885.98 1033 l 257
 1799.98 1033 l 257
1293.66 76 m 257
 1266 0 l 257
 1456 0 l 257
 1483.66 76 l 257
 1293.66 76 l 257
EndSplineSet
EndChar

StartChar: b
Encoding: 98 98 136
GlifName: b
Width: 2048
VWidth: 0
GlyphClass: 2
Flags: W
AnchorPoint: "base" 1121 -189 basechar 0
AnchorPoint: "top" 814 1723 basechar 0
LayerCount: 2
Fore
SplineSet
694.059 1536 m 257
 135 0 l 257
 195 0 l 257
 754.059 1536 l 257
 694.059 1536 l 257
553.981 1033 m 257
 531.779 972 l 257
 2219.78 972 l 257
 2241.98 1033 l 257
 553.981 1033 l 257
2228.98 1033 m 257
 1853 0 l 257
 1913 0 l 257
 2288.98 1033 l 257
 2228.98 1033 l 257
191.838 60 m 257
 170 0 l 257
 1891 0 l 257
 1912.84 60 l 257
 191.838 60 l 257
EndSplineSet
EndChar

StartChar: backslash
Encoding: 92 92 137
GlifName: backslash
Width: 2048
VWidth: 0
GlyphClass: 2
Flags: W
LayerCount: 2
Fore
SplineSet
1271.15 1550 m 257
 1263 0 l 257
 1341 0 l 257
 1354.15 1550 l 257
 1271.15 1550 l 257
EndSplineSet
EndChar

StartChar: bar
Encoding: 124 124 138
GlifName: bar
Width: 2048
VWidth: 0
GlyphClass: 2
Flags: W
LayerCount: 2
Fore
SplineSet
1506.3 1435 m 257
 951.243 -90 l 257
 1031.24 -90 l 257
 1586.3 1435 l 257
 1506.3 1435 l 257
EndSplineSet
EndChar

StartChar: braceleft
Encoding: 123 123 139
GlifName: braceleft
Width: 2048
VWidth: 0
GlyphClass: 2
Flags: W
LayerCount: 2
Fore
SplineSet
1606.35 1600 m 257
 1329.01 838 l 257
 1403.01 838 l 257
 1680.35 1600 l 257
 1606.35 1600 l 257
1190.32 424 m 257
 941.004 -261 l 257
 1027 -261 l 257
 1276.32 424 l 257
 1190.32 424 l 257
987.14 690 m 257
 965.301 630 l 257
 1404.28 836 l 257
 1328.28 836 l 257
 987.14 690 l 257
987.14 690 m 257
 965.301 630 l 257
 1188.69 425 l 257
 1274.69 425 l 257
 987.14 690 l 257
1626.35 1600 m 257
 1600.51 1529 l 257
 1871.8 1571 l 257
 1886.35 1600 l 257
 1626.35 1600 l 257
976.85 -179 m 257
 946.275 -263 l 257
 1216.28 -263 l 257
 1221.01 -250 l 257
 976.85 -179 l 257
EndSplineSet
EndChar

StartChar: braceright
Encoding: 125 125 140
GlifName: braceright
Width: 2048
VWidth: 0
GlyphClass: 2
Flags: W
LayerCount: 2
Fore
SplineSet
1601.97 1544 m 257
 1542.97 1544 l 257
 1286.01 838 l 257
 1344.01 838 l 257
 1601.97 1544 l 257
1180.32 424 m 257
 1120.32 424 l 257
 861.904 -286 l 257
 921.904 -286 l 257
 1180.32 424 l 257
1564.14 690 m 257
 1340.01 838 l 257
 1285.01 838 l 257
 1542.3 630 l 257
 1564.14 690 l 257
1564.14 690 m 257
 1120.32 424 l 257
 1180.32 424 l 257
 1542.3 630 l 257
 1564.14 690 l 257
1624.44 1603 m 257
 1349.44 1603 l 257
 1342.89 1574 l 257
 1587.23 1509 l 257
 1624.44 1603 l 257
941.206 -200 m 257
 635.272 -274 l 257
 631.633 -284 l 257
 907.633 -284 l 257
 941.206 -200 l 257
EndSplineSet
EndChar

StartChar: bracketleft
Encoding: 91 91 141
GlifName: bracketleft
Width: 2048
VWidth: 0
GlyphClass: 2
Flags: W
LayerCount: 2
Fore
SplineSet
1451.24 1542 m 257
 801.919 -242 l 257
 858.919 -242 l 257
 1508.24 1542 l 257
 1451.24 1542 l 257
1505.61 1543 m 257
 1483.04 1481 l 257
 1692.04 1481 l 257
 1714.61 1543 l 257
 1505.61 1543 l 257
864.853 -168 m 257
 837.919 -242 l 257
 1069.92 -242 l 257
 1096.85 -168 l 257
 864.853 -168 l 257
EndSplineSet
EndChar

StartChar: bracketright
Encoding: 93 93 142
GlifName: bracketright
Width: 2048
VWidth: 0
GlyphClass: 2
Flags: W
LayerCount: 2
Fore
SplineSet
1659.24 1542 m 257
 1009.92 -242 l 257
 1071.92 -242 l 257
 1721.24 1542 l 257
 1659.24 1542 l 257
1447.61 1543 m 257
 1423.95 1478 l 257
 1651.95 1478 l 257
 1675.61 1543 l 257
 1447.61 1543 l 257
825.945 -165 m 257
 797.919 -242 l 257
 1035.92 -242 l 257
 1063.95 -165 l 257
 825.945 -165 l 257
EndSplineSet
EndChar

StartChar: breve
Encoding: 728 728 143
GlifName: breve
Width: 2048
VWidth: 0
GlyphClass: 2
Flags: W
AnchorPoint: "top" 1539 1458 basechar 0
LayerCount: 2
Fore
SplineSet
1753.15 1550 m 257
 1727.68 1480 l 257
 1918.15 1550 l 257
 1952.73 1645 l 257
 1753.15 1550 l 257
1429.15 1550 m 257
 1403.68 1480 l 257
 1727.68 1480 l 257
 1753.15 1550 l 257
 1429.15 1550 l 257
1287.27 1630 m 257
 1258.15 1550 l 257
 1403.68 1480 l 257
 1429.15 1550 l 257
 1287.27 1630 l 257
EndSplineSet
EndChar

StartChar: brokenbar
Encoding: 166 166 144
GlifName: brokenbar
Width: 2048
VWidth: 0
GlyphClass: 2
Flags: W
LayerCount: 2
Fore
SplineSet
881.162 -332 m 257
 925.162 -332 l 257
 1294.23 682 l 257
 1250.23 682 l 257
 881.162 -332 l 257
1296.54 790 m 257
 1333.54 790 l 257
 1641.46 1636 l 257
 1604.46 1636 l 257
 1296.54 790 l 257
EndSplineSet
EndChar

StartChar: bullet
Encoding: 8226 8226 145
GlifName: bullet
Width: 2048
VWidth: 0
GlyphClass: 2
Flags: W
LayerCount: 2
Fore
SplineSet
1314.25 1009 m 257
 1254.19 844 l 257
 1408.19 844 l 257
 1468.25 1009 l 257
 1314.25 1009 l 257
EndSplineSet
EndChar

StartChar: c
Encoding: 99 99 146
GlifName: c
Width: 2048
VWidth: 0
GlyphClass: 2
Flags: W
AnchorPoint: "base" 978 -112 basechar 0
AnchorPoint: "top" 1504 1173 basechar 0
LayerCount: 2
Fore
SplineSet
537.798 1027 m 257
 515.959 967 l 257
 2235.96 967 l 257
 2257.8 1027 l 257
 537.798 1027 l 257
524.146 984 m 257
 166 0 l 257
 226 0 l 257
 584.146 984 l 257
 524.146 984 l 257
235.838 60 m 257
 214 0 l 257
 1878 0 l 257
 1899.84 60 l 257
 235.838 60 l 257
EndSplineSet
EndChar

StartChar: caron
Encoding: 711 711 148
GlifName: caron
Width: 2048
VWidth: 0
GlyphClass: 2
Flags: W
LayerCount: 2
Fore
SplineSet
1424.09 1102 m 257
 1402.11 1429 l 257
 1368.93 1412 l 257
 1388.09 1102 l 257
 1424.09 1102 l 257
1390.73 1101 m 257
 1427.73 1101 l 257
 1708.38 1416 l 257
 1673.93 1434 l 257
 1390.73 1101 l 257
EndSplineSet
EndChar

StartChar: cedilla
Encoding: 184 184 153
GlifName: cedilla
Width: 2048
VWidth: 0
GlyphClass: 2
Flags: W
LayerCount: 2
Fore
SplineSet
873.062 187 m 257
 785.71 -53 l 257
 843.71 -53 l 257
 931.062 187 l 257
 873.062 187 l 257
687.25 -340 m 257
 665.048 -401 l 257
 1111.05 -401 l 257
 1133.25 -340 l 257
 687.25 -340 l 257
1200.55 7 m 257
 1065.15 -365 l 257
 1124.15 -365 l 257
 1259.55 7 l 257
 1200.55 7 l 257
813.548 7 m 257
 791.71 -53 l 257
 1237.71 -53 l 257
 1259.55 7 l 257
 813.548 7 l 257
EndSplineSet
EndChar

StartChar: cent
Encoding: 162 162 154
GlifName: cent
Width: 2048
VWidth: 0
GlyphClass: 2
Flags: W
LayerCount: 2
Fore
SplineSet
1546.58 1183 m 257
 1486.58 1183 l 257
 1024.7 -86 l 257
 1084.7 -86 l 257
 1546.58 1183 l 257
1049.8 1027 m 257
 1027.6 966 l 257
 1723.6 966 l 257
 1745.8 1027 l 257
 1049.8 1027 l 257
1036.15 984 m 257
 678 0 l 257
 743 0 l 257
 1101.15 984 l 257
 1036.15 984 l 257
749.202 61 m 257
 727 0 l 257
 1366 0 l 257
 1388.2 61 l 257
 749.202 61 l 257
EndSplineSet
EndChar

StartChar: circumflex
Encoding: 710 710 155
GlifName: circumflex
Width: 2048
VWidth: 0
GlyphClass: 2
Flags: W
LayerCount: 2
Fore
SplineSet
1863.04 2308 m 257
 1827.04 2308 l 257
 1582.21 1998 l 257
 1603.03 1981 l 257
 1863.04 2308 l 257
1830.77 2310 m 257
 1871.21 1976 l 257
 1918.76 1994 l 257
 1867.77 2310 l 257
 1830.77 2310 l 257
EndSplineSet
EndChar

StartChar: colon
Encoding: 58 58 156
GlifName: colon
Width: 2048
VWidth: 0
GlyphClass: 2
Flags: W
LayerCount: 2
Fore
SplineSet
1015.69 164 m 257
 958.548 7 l 257
 1094.55 7 l 257
 1151.69 164 l 257
 1015.69 164 l 257
1157.28 553 m 257
 1100.13 396 l 257
 1236.13 396 l 257
 1293.28 553 l 257
 1157.28 553 l 257
EndSplineSet
EndChar

StartChar: comma
Encoding: 44 44 157
GlifName: comma
Width: 2048
VWidth: 0
GlyphClass: 2
Flags: W
LayerCount: 2
Fore
SplineSet
1016.05 165 m 257
 958.912 8 l 257
 1094.91 8 l 257
 1152.05 165 l 257
 1016.05 165 l 257
1089.14 135 m 257
 961.967 -99 l 257
 994.133 -148 l 257
 1099.46 26 l 257
 1089.14 135 l 257
EndSplineSet
EndChar

StartChar: copyright
Encoding: 169 169 158
GlifName: copyright
Width: 2048
VWidth: 0
GlyphClass: 2
Flags: W
LayerCount: 2
Fore
SplineSet
1084.51 1540 m 257
 524 0 l 257
 584 0 l 257
 1144.51 1540 l 257
 1084.51 1540 l 257
2023.42 1537 m 257
 1464 0 l 257
 1524 0 l 257
 2083.42 1537 l 257
 2023.42 1537 l 257
1135.79 1538 m 257
 1113.22 1476 l 257
 2057.22 1476 l 257
 2079.79 1538 l 257
 1135.79 1538 l 257
557.838 60 m 257
 536 0 l 257
 1506 0 l 257
 1527.84 60 l 257
 557.838 60 l 257
1205.67 1197 m 257
 1183.11 1135 l 257
 1617.11 1135 l 257
 1639.67 1197 l 257
 1205.67 1197 l 257
1190.02 1154 m 257
 893.75 340 l 257
 953.75 340 l 257
 1250.02 1154 l 257
 1190.02 1154 l 257
899.573 356 m 257
 877.007 294 l 257
 1317.01 294 l 257
 1339.57 356 l 257
 899.573 356 l 257
EndSplineSet
EndChar

StartChar: currency
Encoding: 164 164 159
GlifName: currency
Width: 2048
VWidth: 0
GlyphClass: 2
Flags: W
LayerCount: 2
Fore
SplineSet
1040.21 1182 m 257
 668.235 160 l 257
 728.235 160 l 257
 1100.21 1182 l 257
 1040.21 1182 l 257
1798.94 1184 m 257
 1426.24 160 l 257
 1486.24 160 l 257
 1858.94 1184 l 257
 1798.94 1184 l 257
1104.03 1187 m 257
 1082.19 1127 l 257
 1782.19 1127 l 257
 1804.03 1187 l 257
 1104.03 1187 l 257
736.802 222 m 257
 714.235 160 l 257
 1434.24 160 l 257
 1456.8 222 l 257
 736.802 222 l 257
991.327 1251 m 257
 949.834 1137 l 257
 1093.83 1137 l 257
 1135.33 1251 l 257
 991.327 1251 l 257
1823.69 1241 m 257
 1782.19 1127 l 257
 1924.19 1127 l 257
 1965.69 1241 l 257
 1823.69 1241 l 257
611.165 223 m 257
 569.673 109 l 257
 713.673 109 l 257
 755.165 223 l 257
 611.165 223 l 257
1454.07 220 m 257
 1412.58 106 l 257
 1556.58 106 l 257
 1598.07 220 l 257
 1454.07 220 l 257
EndSplineSet
EndChar

StartChar: d
Encoding: 100 100 160
GlifName: d
Width: 2048
VWidth: 0
GlyphClass: 2
Flags: W
AnchorPoint: "base" 956 -167 basechar 0
AnchorPoint: "top" 2496 1851 basechar 0
LayerCount: 2
Fore
SplineSet
2368.15 1550 m 257
 1804 0 l 257
 1864 0 l 257
 2428.15 1550 l 257
 2368.15 1550 l 257
601.434 1026 m 257
 579.596 966 l 257
 2189.6 966 l 257
 2211.43 1026 l 257
 601.434 1026 l 257
556.342 1023 m 257
 184 0 l 257
 244 0 l 257
 616.342 1023 l 257
 556.342 1023 l 257
245.475 59 m 257
 222.544 -4 l 257
 1814.54 -4 l 257
 1837.47 59 l 257
 245.475 59 l 257
EndSplineSet
EndChar

StartChar: dagger
Encoding: 8224 8224 161
GlifName: dagger
Width: 2048
VWidth: 0
GlyphClass: 2
Flags: W
LayerCount: 2
Fore
SplineSet
664.327 1251 m 257
 645.765 1200 l 257
 1251.76 1200 l 257
 1270.33 1251 l 257
 664.327 1251 l 257
1045.15 1550 m 257
 481 0 l 257
 547 0 l 257
 1111.15 1550 l 257
 1045.15 1550 l 257
EndSplineSet
EndChar

StartChar: daggerdbl
Encoding: 8225 8225 162
GlifName: daggerdbl
Width: 2048
VWidth: 0
GlyphClass: 2
Flags: W
LayerCount: 2
Fore
SplineSet
508.548 823 m 257
 489.985 772 l 257
 1095.99 772 l 257
 1114.55 823 l 257
 508.548 823 l 257
664.327 1251 m 257
 645.765 1200 l 257
 1251.76 1200 l 257
 1270.33 1251 l 257
 664.327 1251 l 257
1054.15 1550 m 257
 490 0 l 257
 552 0 l 257
 1116.15 1550 l 257
 1054.15 1550 l 257
EndSplineSet
EndChar

StartChar: dcaron
Encoding: 271 271 163
GlifName: dcaron
Width: 2048
VWidth: 0
GlyphClass: 2
Flags: W
LayerCount: 2
Fore
SplineSet
2325.78 1527 m 257
 1770 0 l 257
 1830 0 l 257
 2385.78 1527 l 257
 2325.78 1527 l 257
486.342 1023 m 257
 464.14 962 l 257
 2140.14 962 l 257
 2162.34 1023 l 257
 486.342 1023 l 257
442.342 1023 m 257
 70 0 l 257
 128 0 l 257
 500.342 1023 l 257
 442.342 1023 l 257
107.838 60 m 257
 86 0 l 257
 1782 0 l 257
 1803.84 60 l 257
 107.838 60 l 257
2472.5 1496 m 257
 2388.06 1264 l 257
 2438.06 1264 l 257
 2522.5 1496 l 257
 2472.5 1496 l 257
EndSplineSet
EndChar

StartChar: dcroat
Encoding: 273 273 164
GlifName: dcroat
Width: 2048
VWidth: 0
GlyphClass: 2
Flags: W
LayerCount: 2
Fore
SplineSet
2347.78 1527 m 257
 1792 0 l 257
 1852 0 l 257
 2407.78 1527 l 257
 2347.78 1527 l 257
494.342 1023 m 257
 472.14 962 l 257
 2164.14 962 l 257
 2186.34 1023 l 257
 494.342 1023 l 257
462.342 1023 m 257
 90 0 l 257
 150 0 l 257
 522.342 1023 l 257
 462.342 1023 l 257
160.202 61 m 257
 138 0 l 257
 1804 0 l 257
 1826.2 61 l 257
 160.202 61 l 257
2108.6 1260 m 257
 2087.49 1202 l 257
 2395.49 1202 l 257
 2416.6 1260 l 257
 2108.6 1260 l 257
EndSplineSet
EndChar

StartChar: degree
Encoding: 176 176 165
GlifName: degree
Width: 2048
VWidth: 0
GlyphClass: 2
Flags: W
LayerCount: 2
Fore
SplineSet
1426.75 1439 m 257
 1676.75 1439 l 257
 1601.05 1231 l 257
 1351.05 1231 l 257
 1426.75 1439 l 257
1385.59 1488 m 257
 1273.12 1179 l 257
 1633.12 1179 l 257
 1745.59 1488 l 257
 1385.59 1488 l 257
EndSplineSet
EndChar

StartChar: dieresis
Encoding: 168 168 166
GlifName: dieresis
Width: 2048
VWidth: 0
GlyphClass: 2
Flags: W
LayerCount: 2
Fore
SplineSet
1237.34 1023 m 257
 1200.94 923 l 257
 1312.94 923 l 257
 1349.34 1023 l 257
 1237.34 1023 l 257
1479.34 1023 m 257
 1442.94 923 l 257
 1554.94 923 l 257
 1591.34 1023 l 257
 1479.34 1023 l 257
EndSplineSet
EndChar

StartChar: divide
Encoding: 247 247 167
GlifName: divide
Width: 2048
VWidth: 0
GlyphClass: 2
Flags: W
LayerCount: 2
Fore
SplineSet
1131.91 280 m 257
 1097.33 185 l 257
 1249.33 185 l 257
 1283.91 280 l 257
 1131.91 280 l 257
1431.19 1127 m 257
 1396.25 1031 l 257
 1533.25 1031 l 257
 1568.19 1127 l 257
 1431.19 1127 l 257
351.948 662 m 257
 329.382 600 l 257
 2155.38 600 l 257
 2177.95 662 l 257
 351.948 662 l 257
EndSplineSet
EndChar

StartChar: dollar
Encoding: 36 36 168
GlifName: dollar
Width: 2048
VWidth: 0
GlyphClass: 2
Flags: W
LayerCount: 2
Fore
SplineSet
1198.15 1539 m 257
 1168.3 1457 l 257
 1766.3 1457 l 257
 1796.15 1539 l 257
 1198.15 1539 l 257
1199.24 1542 m 257
 1012.16 1028 l 257
 1096.16 1028 l 257
 1283.24 1542 l 257
 1199.24 1542 l 257
691.114 69 m 257
 666 0 l 257
 1374 0 l 257
 1399.11 69 l 257
 691.114 69 l 257
1330 0 m 257
 1410 0 l 257
 1539.21 355 l 257
 1459.21 355 l 257
 1330 0 l 257
1012.16 1028 m 257
 1458.21 355 l 257
 1539.21 355 l 257
 1096.16 1028 l 257
 1012.16 1028 l 257
1528.46 1636 m 257
 854.746 -215 l 257
 924.746 -215 l 257
 1598.46 1636 l 257
 1528.46 1636 l 257
EndSplineSet
EndChar

StartChar: dotaccent
Encoding: 729 729 169
GlifName: dotaccent
Width: 2048
VWidth: 0
GlyphClass: 2
Flags: W
AnchorPoint: "top" 1382 946 mark 0
LayerCount: 2
Fore
SplineSet
1360.36 1078 m 257
 1323.6 977 l 257
 1435.6 977 l 257
 1472.36 1078 l 257
 1360.36 1078 l 257
EndSplineSet
EndChar

StartChar: dotbelowcomb
Encoding: 803 803 170
GlifName: dotbelowcomb
Width: 0
VWidth: 0
GlyphClass: 4
Flags: W
HStem: -365 75<878.448 878.448 878.448 931.15 931.15 931.15>
AnchorPoint: "base" -14 -187 mark 0
LayerCount: 2
Fore
SplineSet
878.448 -290 m 257
 851.15 -365 l 257
 931.15 -365 l 257
 958.448 -290 l 257
 878.448 -290 l 257
EndSplineSet
PickledDataWithLists: "(dp0
Vcom.fontlab.hintData
p1
(dp2
Vhhints
p3
(lp4
(dp5
Vposition
p6
I-365
sVwidth
p7
I75
sass."
EndChar

StartChar: dotlessi
Encoding: 305 305 171
GlifName: dotlessi
Width: 2048
VWidth: 0
GlyphClass: 2
Flags: W
AnchorPoint: "top" 1476 1295 basechar 0
AnchorPoint: "base" 1182 -9 basechar 0
LayerCount: 2
Fore
SplineSet
1394.34 1023 m 257
 1040.93 52 l 257
 1100.93 52 l 257
 1454.34 1023 l 257
 1394.34 1023 l 257
162.838 60 m 257
 141 0 l 257
 1907 0 l 257
 1928.84 60 l 257
 162.838 60 l 257
563.342 1023 m 257
 541.14 962 l 257
 1389.14 962 l 257
 1411.34 1023 l 257
 563.342 1023 l 257
EndSplineSet
EndChar

StartChar: e
Encoding: 101 101 172
GlifName: e
Width: 2048
VWidth: 0
GlyphClass: 2
Flags: W
AnchorPoint: "top" 1447 1188 basechar 0
AnchorPoint: "base" 976 -151 basechar 0
LayerCount: 2
Fore
SplineSet
590.342 1023 m 257
 570.323 968 l 257
 2232.32 968 l 257
 2252.34 1023 l 257
 590.342 1023 l 257
538.342 1023 m 257
 166 0 l 257
 224 0 l 257
 596.342 1023 l 257
 538.342 1023 l 257
230.202 61 m 257
 208 0 l 257
 1876 0 l 257
 1898.2 61 l 257
 230.202 61 l 257
370.169 506 m 257
 356.331 446 l 257
 2010.33 446 l 257
 2032.17 506 l 257
 370.169 506 l 257
2183.42 993 m 257
 1983.97 445 l 257
 2043.97 445 l 257
 2243.42 993 l 257
 2183.42 993 l 257
EndSplineSet
EndChar

StartChar: eight
Encoding: 56 56 180
GlifName: eight
Width: 2048
VWidth: 0
GlyphClass: 2
Flags: W
LayerCount: 2
Fore
SplineSet
620.154 1550 m 257
 56 0 l 257
 1991.91 -3 l 257
 2557.15 1550 l 257
 620.154 1550 l 257
2258.21 899 m 257
 1951.75 57 l 257
 139.746 57 l 257
 446.209 899 l 257
 2258.21 899 l 257
2281.05 959 m 257
 467.048 959 l 257
 659.952 1489 l 257
 2473.95 1489 l 257
 2281.05 959 l 257
EndSplineSet
EndChar

StartChar: ellipsis
Encoding: 8230 8230 181
GlifName: ellipsis
Width: 2048
VWidth: 0
GlyphClass: 2
Flags: W
LayerCount: 2
Fore
SplineSet
733.492 114 m 257
 692 0 l 257
 834 0 l 257
 875.492 114 l 257
 733.492 114 l 257
989.492 114 m 257
 948 0 l 257
 1092 0 l 257
 1133.49 114 l 257
 989.492 114 l 257
1255.49 114 m 257
 1214 0 l 257
 1356 0 l 257
 1397.49 114 l 257
 1255.49 114 l 257
EndSplineSet
EndChar

StartChar: emdash
Encoding: 8212 8212 183
GlifName: emdash
Width: 2048
VWidth: 0
GlyphClass: 2
Flags: W
LayerCount: 2
Fore
SplineSet
218.382 600 m 257
 2232.38 600 l 257
 2264.41 688 l 257
 250.411 688 l 257
 218.382 600 l 257
EndSplineSet
EndChar

StartChar: endash
Encoding: 8211 8211 184
GlifName: endash
Width: 2048
VWidth: 0
GlyphClass: 2
Flags: W
LayerCount: 2
Fore
SplineSet
829.382 600 m 257
 1655.38 600 l 257
 1683.77 678 l 257
 857.771 678 l 257
 829.382 600 l 257
EndSplineSet
EndChar

StartChar: eng
Encoding: 331 331 185
GlifName: eng
Width: 2048
VWidth: 0
GlyphClass: 2
Flags: W
LayerCount: 2
Fore
SplineSet
1367 -348 m 257
 1331.5 -408 l 257
 1718.5 -408 l 257
 1740 -348 l 257
 1367 -348 l 257
604.33 990 m 257
 244 0 l 257
 308 0 l 257
 668 990 l 257
 604.33 990 l 257
2159 976 m 257
 1656 -408 l 257
 1719.5 -408 l 257
 2223.24 976 l 257
 2159 976 l 257
437.342 1023 m 257
 417 963 l 257
 2219 963 l 257
 2239.34 1023 l 257
 437.342 1023 l 257
EndSplineSet
EndChar

StartChar: equal
Encoding: 61 61 187
GlifName: equal
Width: 2048
VWidth: 0
GlyphClass: 2
Flags: W
LayerCount: 2
Fore
SplineSet
915.911 824 m 257
 879.515 724 l 257
 1695.51 724 l 257
 1731.91 824 l 257
 915.911 824 l 257
812.544 540 m 257
 779.786 450 l 257
 1595.79 450 l 257
 1628.54 540 l 257
 812.544 540 l 257
EndSplineSet
EndChar

StartChar: eth
Encoding: 240 240 188
GlifName: eth
Width: 2048
VWidth: 0
GlyphClass: 2
Flags: W
LayerCount: 2
Fore
SplineSet
1316.15 1550 m 257
 1856 0 l 257
 1904 0 l 257
 1372.15 1550 l 257
 1316.15 1550 l 257
556.342 1023 m 257
 534.867 964 l 257
 1526.87 964 l 257
 1548.34 1023 l 257
 556.342 1023 l 257
516.342 1023 m 257
 144 0 l 257
 204 0 l 257
 576.342 1023 l 257
 516.342 1023 l 257
211.475 59 m 257
 190 0 l 257
 1856 0 l 257
 1877.47 59 l 257
 211.475 59 l 257
1187.38 1416 m 257
 1163.72 1351 l 257
 1507.72 1351 l 257
 1531.38 1416 l 257
 1187.38 1416 l 257
EndSplineSet
EndChar

StartChar: exclam
Encoding: 33 33 189
GlifName: exclam
Width: 2048
VWidth: 0
GlyphClass: 2
Flags: W
LayerCount: 2
Fore
SplineSet
1017.66 76 m 257
 1084.66 76 l 257
 1120.33 174 l 257
 1053.33 174 l 257
 1017.66 76 l 257
1137.59 411 m 257
 1209.59 411 l 257
 1580.11 1429 l 257
 1508.11 1429 l 257
 1137.59 411 l 257
EndSplineSet
EndChar

StartChar: exclamdown
Encoding: 161 161 190
GlifName: exclamdown
Width: 2048
VWidth: 0
GlyphClass: 2
Flags: W
LayerCount: 2
Fore
SplineSet
1607.23 1520 m 257
 1547.23 1520 l 257
 1456.97 1272 l 257
 1516.97 1272 l 257
 1607.23 1520 l 257
1426.71 1035 m 257
 1372.71 1035 l 257
 1002.19 17 l 257
 1060.19 17 l 257
 1426.71 1035 l 257
EndSplineSet
EndChar

StartChar: f
Encoding: 102 102 191
GlifName: f
Width: 2048
VWidth: 0
GlyphClass: 2
Flags: W
LayerCount: 2
Fore
SplineSet
1301.34 1023 m 257
 779.772 -410 l 257
 839.772 -410 l 257
 1361.34 1023 l 257
 1301.34 1023 l 257
1302.34 1023 m 257
 1280.5 963 l 257
 2190.5 963 l 257
 2212.34 1023 l 257
 1302.34 1023 l 257
375.154 462 m 257
 353.316 402 l 257
 1856.32 402 l 257
 1878.15 462 l 257
 375.154 462 l 257
EndSplineSet
EndChar

StartChar: five
Encoding: 53 53 192
GlifName: five
Width: 2048
VWidth: 0
GlyphClass: 2
Flags: W
LayerCount: 2
Fore
SplineSet
2268.21 899 m 257
 1962.11 58 l 257
 80.1104 58 l 257
 59 0 l 257
 2001 0 l 257
 2350.05 959 l 257
 469.048 959 l 257
 663.044 1492 l 257
 2554.04 1492 l 257
 2575.15 1550 l 257
 624.154 1550 l 257
 387.209 899 l 257
 2268.21 899 l 257
EndSplineSet
EndChar

StartChar: four
Encoding: 52 52 193
GlifName: four
Width: 2048
VWidth: 0
GlyphClass: 2
Flags: W
LayerCount: 2
Fore
SplineSet
367.981 761 m 257
 2172.98 761 l 257
 1898.55 7 l 257
 1955.55 7 l 257
 2517.15 1550 l 257
 2457.15 1550 l 257
 2191.82 821 l 257
 449.819 821 l 257
 715.154 1550 l 257
 655.154 1550 l 257
 367.981 761 l 257
EndSplineSet
EndChar

StartChar: g
Encoding: 103 103 194
GlifName: g
Width: 2048
VWidth: 0
GlyphClass: 2
Flags: W
AnchorPoint: "base" 946 -480 basechar 0
AnchorPoint: "top" 1354 1244 basechar 0
LayerCount: 2
Fore
SplineSet
595.342 1023 m 257
 223 0 l 257
 283 0 l 257
 655.342 1023 l 257
 595.342 1023 l 257
635.342 1023 m 257
 613.14 962 l 257
 2153.14 962 l 257
 2175.34 1023 l 257
 635.342 1023 l 257
2137.34 1023 m 257
 1615.41 -411 l 257
 1675.41 -411 l 257
 2197.34 1023 l 257
 2137.34 1023 l 257
307.11 58 m 257
 286 0 l 257
 1767 0 l 257
 1788.11 58 l 257
 307.11 58 l 257
134.154 -354 m 257
 112.681 -413 l 257
 1625.68 -413 l 257
 1647.15 -354 l 257
 134.154 -354 l 257
EndSplineSet
EndChar

StartChar: germandbls
Encoding: 223 223 198
GlifName: germandbls
Width: 2048
VWidth: 0
GlyphClass: 2
Flags: W
LayerCount: 2
Fore
SplineSet
982.544 1084 m 257
 960.342 1023 l 257
 1211.34 1023 l 257
 1233.54 1084 l 257
 982.544 1084 l 257
1336.06 1547 m 257
 771.544 -4 l 257
 835.544 -4 l 257
 1400.06 1547 l 257
 1336.06 1547 l 257
1389.15 1550 m 257
 1366.59 1488 l 257
 1973.59 1488 l 257
 1996.15 1550 l 257
 1389.15 1550 l 257
1962.15 1550 m 257
 1770.34 1023 l 257
 1831.34 1023 l 257
 2023.15 1550 l 257
 1962.15 1550 l 257
1788.54 1062 m 257
 1550.54 1062 l 257
 1464.64 826 l 257
 1702.64 826 l 257
 1788.54 1062 l 257
1708.65 848 m 257
 1463.69 175 l 257
 1521.69 175 l 257
 1766.65 848 l 257
 1708.65 848 l 257
1185.06 187 m 257
 1164.68 131 l 257
 1507.68 131 l 257
 1528.06 187 l 257
 1185.06 187 l 257
EndSplineSet
EndChar

StartChar: grave
Encoding: 96 96 199
GlifName: grave
Width: 2048
VWidth: 0
GlyphClass: 2
Flags: W
LayerCount: 2
Fore
SplineSet
1406.07 1286 m 257
 1406.72 1057 l 257
 1514.74 1112 l 257
 1505.72 1340 l 257
 1406.07 1286 l 257
EndSplineSet
EndChar

StartChar: gravecomb
Encoding: 768 768 200
GlifName: gravecomb
Width: 0
VWidth: 0
GlyphClass: 4
Flags: W
AnchorPoint: "top" 386 761 mark 0
LayerCount: 2
Fore
SplineSet
275.246 1009 m 257
 324.996 805 l 257
 404.65 859 l 257
 355.265 1064 l 257
 275.246 1009 l 257
EndSplineSet
EndChar

StartChar: greater
Encoding: 62 62 201
GlifName: greater
Width: 2048
VWidth: 0
GlyphClass: 2
Flags: W
LayerCount: 2
Fore
SplineSet
1663.03 632 m 257
 985.702 1013 l 257
 963.5 952 l 257
 1640.1 569 l 257
 1663.03 632 l 257
1663.03 632 m 257
 682.698 186 l 257
 659.404 122 l 257
 1640.1 569 l 257
 1663.03 632 l 257
EndSplineSet
EndChar

StartChar: guillemotleft
Encoding: 171 171 202
GlifName: guillemotleft
Width: 2048
VWidth: 0
GlyphClass: 2
Flags: W
LayerCount: 2
Fore
SplineSet
795.261 509 m 257
 781.794 472 l 257
 1322.53 757 l 257
 1332.35 784 l 257
 795.261 509 l 257
795.261 509 m 257
 781.794 472 l 257
 1022.4 122 l 257
 1044.24 160 l 257
 795.261 509 l 257
1219.81 527 m 257
 1209.26 498 l 257
 1722.99 783 l 257
 1737.55 823 l 257
 1219.81 527 l 257
1218.81 527 m 257
 1207.89 497 l 257
 1437.4 122 l 257
 1464.23 149 l 257
 1218.81 527 l 257
EndSplineSet
EndChar

StartChar: guillemotright
Encoding: 187 187 203
GlifName: guillemotright
Width: 2048
VWidth: 0
GlyphClass: 2
Flags: W
LayerCount: 2
Fore
SplineSet
1623.26 509 m 257
 1286.35 784 l 257
 1276.53 757 l 257
 1608.79 472 l 257
 1623.26 509 l 257
1623.26 509 m 257
 1120.24 160 l 257
 1114.4 122 l 257
 1608.79 472 l 257
 1623.26 509 l 257
1211.81 527 m 257
 909.548 823 l 257
 894.988 783 l 257
 1202.26 498 l 257
 1211.81 527 l 257
1212.81 527 m 257
 692.231 149 l 257
 699.404 122 l 257
 1201.89 497 l 257
 1212.81 527 l 257
EndSplineSet
EndChar

StartChar: guilsinglleft
Encoding: 8249 8249 204
GlifName: guilsinglleft
Width: 2048
VWidth: 0
GlyphClass: 2
Flags: W
LayerCount: 2
Fore
SplineSet
340.309 652 m 257
 310.099 569 l 257
 1265.32 946 l 257
 1289.7 1013 l 257
 340.309 652 l 257
340.309 652 m 257
 310.099 569 l 257
 959.404 122 l 257
 987.43 199 l 257
 340.309 652 l 257
EndSplineSet
EndChar

StartChar: guilsinglright
Encoding: 8250 8250 205
GlifName: guilsinglright
Width: 2048
VWidth: 0
GlyphClass: 2
Flags: W
LayerCount: 2
Fore
SplineSet
1151.03 632 m 257
 473.702 1013 l 257
 451.5 952 l 257
 1128.1 569 l 257
 1151.03 632 l 257
1151.03 632 m 257
 170.698 186 l 257
 147.404 122 l 257
 1128.1 569 l 257
 1151.03 632 l 257
EndSplineSet
EndChar

StartChar: h
Encoding: 104 104 206
GlifName: h
Width: 2048
VWidth: 0
GlyphClass: 2
Flags: W
AnchorPoint: "top" 780 1638 basechar 0
AnchorPoint: "base" 1160 -26 basechar 0
LayerCount: 2
Fore
SplineSet
729.055 1525 m 257
 176.184 6 l 257
 235.184 6 l 257
 788.055 1525 l 257
 729.055 1525 l 257
588.161 1028 m 257
 566.323 968 l 257
 2179.32 968 l 257
 2201.16 1028 l 257
 588.161 1028 l 257
2189.16 1028 m 257
 1815 0 l 257
 1874 0 l 257
 2248.16 1028 l 257
 2189.16 1028 l 257
EndSplineSet
EndChar

StartChar: hbar
Encoding: 295 295 207
GlifName: hbar
Width: 2048
VWidth: 0
GlyphClass: 2
Flags: W
LayerCount: 2
Fore
SplineSet
802.878 1541 m 257
 244.184 6 l 257
 304.184 6 l 257
 862.878 1541 l 257
 802.878 1541 l 257
648.342 1023 m 257
 627.596 966 l 257
 2285.6 966 l 257
 2306.34 1023 l 257
 648.342 1023 l 257
2255.34 1023 m 257
 1883 0 l 257
 1942 0 l 257
 2314.34 1023 l 257
 2255.34 1023 l 257
626.113 1429 m 257
 604.275 1369 l 257
 1060.28 1369 l 257
 1082.11 1429 l 257
 626.113 1429 l 257
EndSplineSet
EndChar

StartChar: hookabovecomb
Encoding: 777 777 209
GlifName: hookabovecomb
Width: 0
VWidth: 0
GlyphClass: 4
Flags: W
AnchorPoint: "top" 450 1111 mark 0
LayerCount: 2
Fore
SplineSet
345.573 1774 m 257
 345.573 1703 l 257
 800.573 1703 l 257
 800.573 1774 l 257
 345.573 1774 l 257
740.573 1774 m 257
 740.573 1432 l 257
 805.573 1432 l 257
 805.573 1774 l 257
 740.573 1774 l 257
433.573 1453 m 257
 433.573 1386 l 257
 804.573 1386 l 257
 804.573 1453 l 257
 433.573 1453 l 257
433.573 1453 m 257
 433.573 1190 l 257
 495.573 1190 l 257
 495.573 1453 l 257
 433.573 1453 l 257
EndSplineSet
EndChar

StartChar: hungarumlaut
Encoding: 733 733 210
GlifName: hungarumlaut
Width: 2048
VWidth: 0
GlyphClass: 2
Flags: W
LayerCount: 2
Fore
SplineSet
836.404 122 m 257
 902.404 122 l 257
 992.669 370 l 257
 926.669 370 l 257
 836.404 122 l 257
1240.4 122 m 257
 1300.4 122 l 257
 1390.67 370 l 257
 1330.67 370 l 257
 1240.4 122 l 257
EndSplineSet
EndChar

StartChar: hyphen
Encoding: 45 45 211
GlifName: hyphen
Width: 2048
VWidth: 0
GlyphClass: 2
Flags: W
LayerCount: 2
Fore
SplineSet
899.628 793 m 257
 863.959 695 l 257
 1689.96 695 l 257
 1725.63 793 l 257
 899.628 793 l 257
EndSplineSet
EndChar

StartChar: i
Encoding: 105 105 212
GlifName: i
Width: 2048
VWidth: 0
GlyphClass: 2
Flags: W
AnchorPoint: "base" 1020 -110 basechar 0
LayerCount: 2
Fore
SplineSet
1394.34 1023 m 257
 1040.93 52 l 257
 1100.93 52 l 257
 1454.34 1023 l 257
 1394.34 1023 l 257
162.838 60 m 257
 141 0 l 257
 1907 0 l 257
 1928.84 60 l 257
 162.838 60 l 257
1306.25 1292 m 257
 1263.3 1174 l 257
 1376.3 1174 l 257
 1419.25 1292 l 257
 1306.25 1292 l 257
563.342 1023 m 257
 541.14 962 l 257
 1389.14 962 l 257
 1411.34 1023 l 257
 563.342 1023 l 257
EndSplineSet
EndChar

StartChar: j
Encoding: 106 106 222
GlifName: j
Width: 2048
VWidth: 0
GlyphClass: 2
Flags: W
AnchorPoint: "base" 1003 -581 basechar 0
AnchorPoint: "top" 2323 1379 basechar 0
LayerCount: 2
Fore
SplineSet
2164.34 1023 m 257
 1642.41 -411 l 257
 1700.41 -411 l 257
 2222.34 1023 l 257
 2164.34 1023 l 257
71.3379 -348 m 257
 49.1357 -409 l 257
 1663.14 -409 l 257
 1685.34 -348 l 257
 71.3379 -348 l 257
195.816 -6 m 257
 60.4189 -378 l 257
 120.419 -378 l 257
 255.816 -6 l 257
 195.816 -6 l 257
2227.13 1201 m 257
 2205.65 1142 l 257
 2265.65 1142 l 257
 2287.13 1201 l 257
 2227.13 1201 l 257
EndSplineSet
EndChar

StartChar: k
Encoding: 107 107 224
GlifName: k
Width: 2048
VWidth: 0
GlyphClass: 2
Flags: W
AnchorPoint: "base" 811 -133 basechar 0
AnchorPoint: "top" 756 1678 basechar 0
LayerCount: 2
Fore
SplineSet
646.694 1535 m 257
 89.8203 5 l 257
 149.82 5 l 257
 706.694 1535 l 257
 646.694 1535 l 257
290.231 421 m 257
 265.117 352 l 257
 2166.34 1023 l 257
 2106.34 1023 l 257
 290.231 421 l 257
689.548 551 m 257
 631.896 508 l 257
 1899 0 l 257
 1960 0 l 257
 689.548 551 l 257
EndSplineSet
EndChar

StartChar: l
Encoding: 108 108 225
GlifName: l
Width: 2048
VWidth: 0
GlyphClass: 2
Flags: W
AnchorPoint: "base" 1011 -189 basechar 0
AnchorPoint: "top" 1640 1670 basechar 0
LayerCount: 2
Fore
SplineSet
233.206 72 m 257
 207 0 l 257
 1841 0 l 257
 1867.21 72 l 257
 233.206 72 l 257
1571.25 1553 m 257
 1026.75 57 l 257
 1086.75 57 l 257
 1631.25 1553 l 257
 1571.25 1553 l 257
833.246 1553 m 257
 811.771 1494 l 257
 1558.77 1494 l 257
 1580.25 1553 l 257
 833.246 1553 l 257
EndSplineSet
EndChar

StartChar: lcaron
Encoding: 318 318 227
GlifName: lcaron
Width: 2048
VWidth: 0
GlyphClass: 2
Flags: W
LayerCount: 2
Fore
SplineSet
218.566 62 m 257
 196 0 l 257
 1854 0 l 257
 1876.57 62 l 257
 218.566 62 l 257
1567.06 1547 m 257
 1020.74 46 l 257
 1078.74 46 l 257
 1625.06 1547 l 257
 1567.06 1547 l 257
758.154 1550 m 257
 735.952 1489 l 257
 1559.95 1489 l 257
 1582.15 1550 l 257
 758.154 1550 l 257
1686.5 1496 m 257
 1602.06 1264 l 257
 1654.06 1264 l 257
 1738.5 1496 l 257
 1686.5 1496 l 257
EndSplineSet
EndChar

StartChar: less
Encoding: 60 60 229
GlifName: less
Width: 2048
VWidth: 0
GlyphClass: 2
Flags: W
LayerCount: 2
Fore
SplineSet
852.309 652 m 257
 822.099 569 l 257
 1777.32 946 l 257
 1801.7 1013 l 257
 852.309 652 l 257
852.309 652 m 257
 822.099 569 l 257
 1471.4 122 l 257
 1499.43 199 l 257
 852.309 652 l 257
EndSplineSet
EndChar

StartChar: logicalnot
Encoding: 172 172 230
GlifName: logicalnot
Width: 2048
VWidth: 0
GlyphClass: 2
Flags: W
LayerCount: 2
Fore
SplineSet
1581.31 935 m 257
 1473.94 640 l 257
 1526.94 640 l 257
 1634.31 935 l 257
 1581.31 935 l 257
1094.31 935 m 257
 1072.47 875 l 257
 1606.47 875 l 257
 1628.31 935 l 257
 1094.31 935 l 257
EndSplineSet
EndChar

StartChar: lslash
Encoding: 322 322 231
GlifName: lslash
Width: 2048
VWidth: 0
GlyphClass: 2
Flags: W
LayerCount: 2
Fore
SplineSet
216.838 60 m 257
 195 0 l 257
 1853 0 l 257
 1874.84 60 l 257
 216.838 60 l 257
1629.25 1553 m 257
 1072.01 22 l 257
 1132.01 22 l 257
 1689.25 1553 l 257
 1629.25 1553 l 257
821.246 1553 m 257
 799.407 1493 l 257
 1633.41 1493 l 257
 1655.25 1553 l 257
 821.246 1553 l 257
1705.17 1039 m 257
 1003.51 702 l 257
 1105.51 702 l 257
 1807.17 1039 l 257
 1705.17 1039 l 257
EndSplineSet
EndChar

StartChar: m
Encoding: 109 109 232
GlifName: m
Width: 2048
VWidth: 0
GlyphClass: 2
Flags: W
AnchorPoint: "base" 1019 -165 basechar 0
AnchorPoint: "top" 1476 1110 basechar 0
LayerCount: 2
Fore
SplineSet
695.423 993 m 257
 334 0 l 257
 394 0 l 257
 755.423 993 l 257
 695.423 993 l 257
1383.78 972 m 257
 1030 0 l 257
 1090 0 l 257
 1443.78 972 l 257
 1383.78 972 l 257
2283.24 976 m 257
 1928 0 l 257
 1988 0 l 257
 2343.24 976 l 257
 2283.24 976 l 257
432.342 1023 m 257
 411.596 966 l 257
 2339.6 966 l 257
 2360.34 1023 l 257
 432.342 1023 l 257
EndSplineSet
EndChar

StartChar: macron
Encoding: 175 175 233
GlifName: macron
Width: 2048
VWidth: 0
GlyphClass: 2
Flags: W
LayerCount: 2
Fore
SplineSet
1107.89 1019 m 257
 1092.6 977 l 257
 1652.6 977 l 257
 1667.89 1019 l 257
 1107.89 1019 l 257
EndSplineSet
EndChar

StartChar: mu
Encoding: 181 181 235
GlifName: mu
Width: 2048
VWidth: 0
GlyphClass: 2
Flags: W
LayerCount: 2
Fore
SplineSet
1878.31 935 m 257
 1538 0 l 257
 1663 0 l 257
 2003.31 935 l 257
 1878.31 935 l 257
451.838 60 m 257
 430 0 l 257
 1600 0 l 257
 1621.84 60 l 257
 451.838 60 l 257
673.312 935 m 257
 176.493 -430 l 257
 305.493 -430 l 257
 802.312 935 l 257
 673.312 935 l 257
EndSplineSet
EndChar

StartChar: multiply
Encoding: 215 215 236
GlifName: multiply
Width: 2048
VWidth: 0
GlyphClass: 2
Flags: W
LayerCount: 2
Fore
SplineSet
199.371 295 m 257
 295.371 295 l 257
 2429.53 1323 l 257
 2347.53 1323 l 257
 199.371 295 l 257
571.169 1322 m 257
 1974.82 288 l 257
 2062.82 288 l 257
 655.169 1322 l 257
 571.169 1322 l 257
EndSplineSet
EndChar

StartChar: n
Encoding: 110 110 237
GlifName: n
Width: 2048
VWidth: 0
GlyphClass: 2
Flags: W
AnchorPoint: "base" 1155 -61 basechar 0
AnchorPoint: "top" 1388 1134 basechar 0
LayerCount: 2
Fore
SplineSet
862.33 990 m 257
 502 0 l 257
 563 0 l 257
 923.33 990 l 257
 862.33 990 l 257
2221.24 976 m 257
 1866 0 l 257
 1926 0 l 257
 2281.24 976 l 257
 2221.24 976 l 257
495.798 1027 m 257
 473.959 967 l 257
 2275.96 967 l 257
 2297.8 1027 l 257
 495.798 1027 l 257
EndSplineSet
EndChar

StartChar: nine
Encoding: 57 57 240
GlifName: nine
Width: 2048
VWidth: 0
GlyphClass: 2
Flags: W
LayerCount: 2
Fore
SplineSet
2221.25 759 m 257
 1966.47 59 l 257
 100.475 59 l 257
 79 0 l 257
 2001 0 l 257
 2566.25 1553 l 257
 622.246 1553 l 257
 617.878 1541 l 257
 333.253 759 l 257
 2221.25 759 l 257
2239.73 818 m 257
 414.728 818 l 257
 661.136 1495 l 257
 2486.14 1495 l 257
 2239.73 818 l 257
EndSplineSet
EndChar

StartChar: numbersign
Encoding: 35 35 242
GlifName: numbersign
Width: 2048
VWidth: 0
GlyphClass: 2
Flags: W
LayerCount: 2
Fore
SplineSet
1171.94 1184 m 257
 777.033 99 l 257
 836.033 99 l 257
 1230.94 1184 l 257
 1171.94 1184 l 257
1669.85 1192 m 257
 1270.58 95 l 257
 1341.58 95 l 257
 1740.85 1192 l 257
 1669.85 1192 l 257
979.15 995 m 257
 958.04 937 l 257
 1759.04 937 l 257
 1780.15 995 l 257
 979.15 995 l 257
800.438 493 m 257
 772.775 417 l 257
 1582.78 417 l 257
 1610.44 493 l 257
 800.438 493 l 257
EndSplineSet
EndChar

StartChar: o
Encoding: 111 111 243
GlifName: o
Width: 2048
VWidth: 0
GlyphClass: 2
Flags: W
AnchorPoint: "top" 1400 1086 basechar 0
AnchorPoint: "base" 1008 -118 basechar 0
LayerCount: 2
Fore
SplineSet
476.342 1023 m 257
 104 0 l 257
 160 0 l 257
 532.342 1023 l 257
 476.342 1023 l 257
2256.34 1023 m 257
 1884 0 l 257
 1946 0 l 257
 2318.34 1023 l 257
 2256.34 1023 l 257
524.342 1023 m 257
 503.959 967 l 257
 2240.96 967 l 257
 2261.34 1023 l 257
 524.342 1023 l 257
172.566 62 m 257
 150 0 l 257
 1892 0 l 257
 1914.57 62 l 257
 172.566 62 l 257
EndSplineSet
EndChar

StartChar: oe
Encoding: 339 339 248
GlifName: oe
Width: 2048
VWidth: 0
GlyphClass: 2
Flags: W
LayerCount: 2
Fore
SplineSet
1283.17 506 m 257
 1261.33 446 l 257
 2073.33 446 l 257
 2095.17 506 l 257
 1283.17 506 l 257
2258.34 1023 m 257
 2047.97 445 l 257
 2106.97 445 l 257
 2317.34 1023 l 257
 2258.34 1023 l 257
465.342 1023 m 257
 93 0 l 257
 152 0 l 257
 524.342 1023 l 257
 465.342 1023 l 257
1432.34 1023 m 257
 1060 0 l 257
 1121 0 l 257
 1493.34 1023 l 257
 1432.34 1023 l 257
520.342 1023 m 257
 498.867 964 l 257
 2296.87 964 l 257
 2318.34 1023 l 257
 520.342 1023 l 257
161.566 62 m 257
 139 0 l 257
 1955 0 l 257
 1977.57 62 l 257
 161.566 62 l 257
EndSplineSet
EndChar

StartChar: ogonek
Encoding: 731 731 249
GlifName: ogonek
Width: 2048
VWidth: 0
GlyphClass: 2
Flags: W
LayerCount: 2
Fore
SplineSet
643.809 -300 m 257
 621.971 -360 l 257
 1162.97 -360 l 257
 1184.81 -300 l 257
 643.809 -300 l 257
771.562 51 m 257
 621.971 -360 l 257
 681.971 -360 l 257
 831.562 51 l 257
 771.562 51 l 257
771.562 51 m 257
 750.088 -8 l 257
 1292.09 -8 l 257
 1313.56 51 l 257
 771.562 51 l 257
EndSplineSet
EndChar

StartChar: one
Encoding: 49 49 253
GlifName: one
Width: 2048
VWidth: 0
GlyphClass: 2
Flags: W
LayerCount: 2
Fore
SplineSet
1054 0 m 257
 1114 0 l 257
 1678.15 1550 l 257
 1618.15 1550 l 257
 1054 0 l 257
1618.15 1550 m 257
 1453.02 1426 l 257
 1494.83 1398 l 257
 1678.15 1550 l 257
 1618.15 1550 l 257
EndSplineSet
EndChar

StartChar: onehalf
Encoding: 189 189 254
GlifName: onehalf
Width: 2048
VWidth: 0
GlyphClass: 2
Flags: W
LayerCount: 2
Fore
SplineSet
1931.68 1480 m 257
 100.64 10 l 257
 203.64 10 l 257
 2034.68 1480 l 257
 1931.68 1480 l 257
667.158 1017 m 257
 731.158 1017 l 257
 925.154 1550 l 257
 861.154 1550 l 257
 667.158 1017 l 257
861.154 1550 m 257
 718.867 1508 l 257
 769.228 1498 l 257
 925.154 1550 l 257
 861.154 1550 l 257
1540.75 623 m 257
 1830.75 623 l 257
 1742.67 381 l 257
 1455.67 381 l 257
 1317 0 l 257
 1622 0 l 257
 1631.1 25 l 257
 1349.1 25 l 257
 1469.57 356 l 257
 1756.57 356 l 257
 1862.85 648 l 257
 1549.85 648 l 257
 1540.75 623 l 257
EndSplineSet
EndChar

StartChar: onequarter
Encoding: 188 188 255
GlifName: onequarter
Width: 2048
VWidth: 0
GlyphClass: 2
Flags: W
LayerCount: 2
Fore
SplineSet
2100.68 1480 m 257
 82.6396 10 l 257
 185.64 10 l 257
 2203.68 1480 l 257
 2100.68 1480 l 257
766.349 1045 m 257
 800.349 1045 l 257
 984.154 1550 l 257
 950.154 1550 l 257
 766.349 1045 l 257
950.154 1550 m 257
 805.94 1456 l 257
 807.845 1442 l 257
 983.154 1550 l 257
 950.154 1550 l 257
1601.94 379 m 257
 1940.94 379 l 257
 1805.55 7 l 257
 1830.55 7 l 257
 2107.53 768 l 257
 2081.53 768 l 257
 1950.86 409 l 257
 1638.86 409 l 257
 1770.26 770 l 257
 1744.26 770 l 257
 1601.94 379 l 257
EndSplineSet
EndChar

StartChar: ordfeminine
Encoding: 170 170 256
GlifName: ordfeminine
Width: 2048
VWidth: 0
GlyphClass: 2
Flags: W
LayerCount: 2
Fore
SplineSet
1173.08 1319 m 257
 1148.69 1252 l 257
 1797.69 1252 l 257
 1822.08 1319 l 257
 1173.08 1319 l 257
1784.44 1320 m 257
 1411.74 296 l 257
 1488.74 296 l 257
 1861.44 1320 l 257
 1784.44 1320 l 257
1021.75 895 m 257
 999.188 833 l 257
 1623.19 833 l 257
 1645.75 895 l 257
 1021.75 895 l 257
1014.38 872 m 257
 804.007 294 l 257
 875.007 294 l 257
 1085.38 872 l 257
 1014.38 872 l 257
840.305 369 m 257
 813.007 294 l 257
 1477.01 294 l 257
 1504.3 369 l 257
 840.305 369 l 257
614.386 67 m 257
 591.456 4 l 257
 1459.46 4 l 257
 1482.39 67 l 257
 614.386 67 l 257
EndSplineSet
EndChar

StartChar: ordmasculine
Encoding: 186 186 257
GlifName: ordmasculine
Width: 2048
VWidth: 0
GlyphClass: 2
Flags: W
LayerCount: 2
Fore
SplineSet
992.342 1023 m 257
 620 0 l 257
 679 0 l 257
 1051.34 1023 l 257
 992.342 1023 l 257
1749.34 1023 m 257
 1377 0 l 257
 1438 0 l 257
 1810.34 1023 l 257
 1749.34 1023 l 257
1054.8 1027 m 257
 1032.96 967 l 257
 1733.96 967 l 257
 1755.8 1027 l 257
 1054.8 1027 l 257
688.566 62 m 257
 666 0 l 257
 1385 0 l 257
 1407.57 62 l 257
 688.566 62 l 257
486.522 -70 m 257
 462.5 -136 l 257
 1486.5 -136 l 257
 1510.52 -70 l 257
 486.522 -70 l 257
EndSplineSet
EndChar

StartChar: oslash
Encoding: 248 248 258
GlifName: oslash
Width: 2048
VWidth: 0
GlyphClass: 2
Flags: W
LayerCount: 2
Fore
SplineSet
2337.47 1125 m 257
 64.8975 -36 l 257
 92.5225 -70 l 257
 2360.54 1073 l 257
 2337.47 1125 l 257
484.342 1023 m 257
 112 0 l 257
 172 0 l 257
 544.342 1023 l 257
 484.342 1023 l 257
2240.34 1023 m 257
 1868 0 l 257
 1928 0 l 257
 2300.34 1023 l 257
 2240.34 1023 l 257
526.342 1023 m 257
 504.503 963 l 257
 2250.5 963 l 257
 2272.34 1023 l 257
 526.342 1023 l 257
178.93 63 m 257
 156 0 l 257
 1904 0 l 257
 1926.93 63 l 257
 178.93 63 l 257
EndSplineSet
EndChar

StartChar: p
Encoding: 112 112 260
GlifName: p
Width: 2048
VWidth: 0
GlyphClass: 2
Flags: W
AnchorPoint: "top" 1404 1250 basechar 0
LayerCount: 2
Fore
SplineSet
619.849 1181 m 257
 42.2285 -406 l 257
 102.229 -406 l 257
 679.849 1181 l 257
 619.849 1181 l 257
606.342 1023 m 257
 584.867 964 l 257
 2194.87 964 l 257
 2216.34 1023 l 257
 606.342 1023 l 257
258.202 61 m 257
 236 0 l 257
 1856 0 l 257
 1878.2 61 l 257
 258.202 61 l 257
2168.34 1023 m 257
 1796 0 l 257
 1854 0 l 257
 2226.34 1023 l 257
 2168.34 1023 l 257
EndSplineSet
EndChar

StartChar: paragraph
Encoding: 182 182 261
GlifName: paragraph
Width: 2048
VWidth: 0
GlyphClass: 2
Flags: W
LayerCount: 2
Fore
SplineSet
981.985 1044 m 257
 960.511 985 l 257
 1524.51 985 l 257
 1545.99 1044 l 257
 981.985 1044 l 257
1166.15 1550 m 257
 965.971 1000 l 257
 1027.97 1000 l 257
 1228.15 1550 l 257
 1166.15 1550 l 257
1166.15 1550 m 257
 1145.41 1493 l 257
 1965.41 1493 l 257
 1986.15 1550 l 257
 1166.15 1550 l 257
1716.15 1550 m 257
 1152 0 l 257
 1216 0 l 257
 1780.15 1550 l 257
 1716.15 1550 l 257
1948.15 1550 m 257
 1384 0 l 257
 1446 0 l 257
 2010.15 1550 l 257
 1948.15 1550 l 257
EndSplineSet
EndChar

StartChar: parenleft
Encoding: 40 40 262
GlifName: parenleft
Width: 2048
VWidth: 0
GlyphClass: 2
Flags: W
LayerCount: 2
Fore
SplineSet
1201.43 1026 m 257
 893.15 179 l 257
 1021.15 179 l 257
 1329.43 1026 l 257
 1201.43 1026 l 257
1787.46 1636 m 257
 1201.43 1026 l 257
 1329.43 1026 l 257
 1814.36 1633 l 257
 1787.46 1636 l 257
893.15 179 m 257
 1053.53 -309 l 257
 1081.53 -309 l 257
 1021.15 179 l 257
 893.15 179 l 257
EndSplineSet
EndChar

StartChar: parenright
Encoding: 41 41 263
GlifName: parenright
Width: 2048
VWidth: 0
GlyphClass: 2
Flags: W
LayerCount: 2
Fore
SplineSet
1435.43 1026 m 257
 1127.15 179 l 257
 1255.15 179 l 257
 1563.43 1026 l 257
 1435.43 1026 l 257
1453.09 1635 m 257
 1435.43 1026 l 257
 1563.43 1026 l 257
 1491.09 1635 l 257
 1453.09 1635 l 257
1127.15 179 m 257
 745.533 -309 l 257
 773.533 -309 l 257
 1255.15 179 l 257
 1127.15 179 l 257
EndSplineSet
EndChar

StartChar: percent
Encoding: 37 37 264
GlifName: percent
Width: 2048
VWidth: 0
GlyphClass: 2
Flags: W
LayerCount: 2
Fore
SplineSet
795.603 444 m 257
 814.775 417 l 257
 1692.08 775 l 257
 1682.54 801 l 257
 795.603 444 l 257
1157.84 1148 m 257
 1032.27 803 l 257
 1063.27 803 l 257
 1188.84 1148 l 257
 1157.84 1148 l 257
1159.29 1152 m 257
 1149.83 1126 l 257
 1496.83 1126 l 257
 1506.29 1152 l 257
 1159.29 1152 l 257
1040.64 826 m 257
 1027.17 789 l 257
 1371.17 789 l 257
 1384.64 826 l 257
 1040.64 826 l 257
1470.29 1152 m 257
 1338.9 791 l 257
 1374.9 791 l 257
 1506.29 1152 l 257
 1470.29 1152 l 257
1225.69 436 m 257
 1101.21 94 l 257
 1144.21 94 l 257
 1268.69 436 l 257
 1225.69 436 l 257
1227.15 440 m 257
 1211.5 397 l 257
 1558.5 397 l 257
 1574.15 440 l 257
 1227.15 440 l 257
1106.67 109 m 257
 1095.03 77 l 257
 1439.03 77 l 257
 1450.67 109 l 257
 1106.67 109 l 257
1540.15 440 m 257
 1408.75 79 l 257
 1442.75 79 l 257
 1574.15 440 l 257
 1540.15 440 l 257
EndSplineSet
EndChar

StartChar: period
Encoding: 46 46 265
GlifName: period
Width: 2048
VWidth: 0
GlyphClass: 2
Flags: W
LayerCount: 2
Fore
SplineSet
993.129 113 m 257
 952 0 l 257
 1096 0 l 257
 1137.13 113 l 257
 993.129 113 l 257
EndSplineSet
EndChar

StartChar: periodcentered
Encoding: 183 183 266
GlifName: periodcentered
Width: 0
VWidth: 0
GlyphClass: 2
Flags: W
LayerCount: 2
Fore
SplineSet
336.353 1056 m 257
 299.592 955 l 257
 395.592 955 l 257
 432.353 1056 l 257
 336.353 1056 l 257
EndSplineSet
EndChar

StartChar: perthousand
Encoding: 8240 8240 267
GlifName: perthousand
Width: 2048
VWidth: 0
GlyphClass: 2
Flags: W
LayerCount: 2
Fore
SplineSet
1332.69 436 m 257
 1214.04 110 l 257
 1292.04 110 l 257
 1410.69 436 l 257
 1332.69 436 l 257
1334.15 440 m 257
 1299.57 345 l 257
 1645.57 345 l 257
 1680.15 440 l 257
 1334.15 440 l 257
1231.87 159 m 257
 1202.03 77 l 257
 1546.03 77 l 257
 1575.87 159 l 257
 1231.87 159 l 257
1588.15 440 m 257
 1456.75 79 l 257
 1548.75 79 l 257
 1680.15 440 l 257
 1588.15 440 l 257
717.992 522 m 257
 707.217 377 l 257
 1654.6 716 l 257
 1663.01 860 l 257
 717.992 522 l 257
1085.84 1148 m 257
 967.184 822 l 257
 1045.18 822 l 257
 1163.84 1148 l 257
 1085.84 1148 l 257
1087.29 1152 m 257
 1052.72 1057 l 257
 1398.72 1057 l 257
 1433.29 1152 l 257
 1087.29 1152 l 257
985.019 871 m 257
 955.173 789 l 257
 1299.17 789 l 257
 1329.02 871 l 257
 985.019 871 l 257
1341.29 1152 m 257
 1209.9 791 l 257
 1301.9 791 l 257
 1433.29 1152 l 257
 1341.29 1152 l 257
930.691 436 m 257
 812.037 110 l 257
 890.037 110 l 257
 1008.69 436 l 257
 930.691 436 l 257
932.146 440 m 257
 897.569 345 l 257
 1245.57 345 l 257
 1280.15 440 l 257
 932.146 440 l 257
829.871 159 m 257
 800.025 77 l 257
 1144.03 77 l 257
 1173.87 159 l 257
 829.871 159 l 257
1188.15 440 m 257
 1056.75 79 l 257
 1148.75 79 l 257
 1280.15 440 l 257
 1188.15 440 l 257
EndSplineSet
EndChar

StartChar: plus
Encoding: 43 43 268
GlifName: plus
Width: 2048
VWidth: 0
GlyphClass: 2
Flags: W
LayerCount: 2
Fore
SplineSet
1390.41 1221 m 257
 1006.05 165 l 257
 1116.05 165 l 257
 1500.41 1221 l 257
 1390.41 1221 l 257
862.721 796 m 257
 825.231 693 l 257
 1727.23 693 l 257
 1764.72 796 l 257
 862.721 796 l 257
EndSplineSet
EndChar

StartChar: plusminus
Encoding: 177 177 269
GlifName: plusminus
Width: 2048
VWidth: 0
GlyphClass: 2
Flags: W
LayerCount: 2
Fore
SplineSet
651.037 110 m 257
 628.471 48 l 257
 1454.47 48 l 257
 1477.04 110 l 257
 651.037 110 l 257
1422.41 1221 m 257
 1060.99 228 l 257
 1121.99 228 l 257
 1483.41 1221 l 257
 1422.41 1221 l 257
843.794 744 m 257
 822.684 686 l 257
 1724.68 686 l 257
 1745.79 744 l 257
 843.794 744 l 257
EndSplineSet
EndChar

StartChar: q
Encoding: 113 113 270
GlifName: q
Width: 2048
VWidth: 0
GlyphClass: 2
Flags: W
LayerCount: 2
Fore
SplineSet
1982.4 1188 m 257
 1400.77 -410 l 257
 1460.77 -410 l 257
 2042.4 1188 l 257
 1982.4 1188 l 257
518.342 1023 m 257
 495.775 961 l 257
 1943.78 961 l 257
 1966.34 1023 l 257
 518.342 1023 l 257
172.746 57 m 257
 152 0 l 257
 1568 0 l 257
 1588.75 57 l 257
 172.746 57 l 257
510.342 1023 m 257
 138 0 l 257
 196 0 l 257
 568.342 1023 l 257
 510.342 1023 l 257
1428.79 -344 m 257
 1404.77 -410 l 257
 1760.77 -410 l 257
 1784.79 -344 l 257
 1428.79 -344 l 257
EndSplineSet
EndChar

StartChar: question
Encoding: 63 63 271
GlifName: question
Width: 2048
VWidth: 0
GlyphClass: 2
Flags: W
LayerCount: 2
Fore
SplineSet
928.772 134 m 257
 880 0 l 257
 992 0 l 257
 1040.77 134 l 257
 928.772 134 l 257
1256.87 1519 m 257
 1223.02 1426 l 257
 1859.02 1426 l 257
 1892.87 1519 l 257
 1256.87 1519 l 257
1809.05 1514 m 257
 1609.6 966 l 257
 1695.6 966 l 257
 1895.05 1514 l 257
 1809.05 1514 l 257
1249.43 1015 m 257
 1225.04 948 l 257
 1689.04 948 l 257
 1713.43 1015 l 257
 1249.43 1015 l 257
1247.97 1011 m 257
 1022.68 392 l 257
 1118.68 392 l 257
 1343.97 1011 l 257
 1247.97 1011 l 257
EndSplineSet
EndChar

StartChar: questiondown
Encoding: 191 191 272
GlifName: questiondown
Width: 2048
VWidth: 0
GlyphClass: 2
Flags: W
LayerCount: 2
Fore
SplineSet
1631.33 1273 m 257
 1720.87 1519 l 257
 1662.87 1519 l 257
 1572.97 1272 l 257
 1631.33 1273 l 257
1344 0 m 257
 1366.2 61 l 257
 730.202 61 l 257
 708 0 l 257
 1344 0 l 257
765.82 5 m 257
 965.275 553 l 257
 905.275 553 l 257
 705.82 5 l 257
 765.82 5 l 257
1351.44 504 m 257
 1374.01 566 l 257
 910.007 566 l 257
 887.441 504 l 257
 1351.44 504 l 257
1352.9 508 m 257
 1578.19 1127 l 257
 1520.19 1127 l 257
 1294.9 508 l 257
 1352.9 508 l 257
EndSplineSet
EndChar

StartChar: quotedbl
Encoding: 34 34 273
GlifName: quotedbl
Width: 2048
VWidth: 0
GlyphClass: 2
Flags: W
LayerCount: 2
Fore
SplineSet
1274.62 1326 m 257
 1340.62 1326 l 257
 1430.89 1574 l 257
 1364.89 1574 l 257
 1274.62 1326 l 257
1678.62 1326 m 257
 1738.62 1326 l 257
 1828.89 1574 l 257
 1768.89 1574 l 257
 1678.62 1326 l 257
EndSplineSet
EndChar

StartChar: quotedblbase
Encoding: 8222 8222 274
GlifName: quotedblbase
Width: 2048
VWidth: 0
GlyphClass: 2
Flags: W
LayerCount: 2
Fore
SplineSet
937.86 126 m 257
 894.912 8 l 257
 1003.91 8 l 257
 1046.86 126 l 257
 937.86 126 l 257
894.912 8 m 257
 779.052 -118 l 257
 829.048 -129 l 257
 1003.91 8 l 257
 894.912 8 l 257
1162.86 126 m 257
 1119.91 8 l 257
 1228.91 8 l 257
 1271.86 126 l 257
 1162.86 126 l 257
1119.91 8 m 257
 1004.05 -118 l 257
 1054.05 -129 l 257
 1228.91 8 l 257
 1119.91 8 l 257
EndSplineSet
EndChar

StartChar: quotedblleft
Encoding: 8220 8220 275
GlifName: quotedblleft
Width: 2048
VWidth: 0
GlyphClass: 2
Flags: W
LayerCount: 2
Fore
SplineSet
1707.83 1953 m 257
 1749.33 2067 l 257
 1625.33 2067 l 257
 1583.83 1953 l 257
 1707.83 1953 l 257
1677.4 2004 m 257
 1787.35 2144 l 257
 1726.27 2174 l 257
 1627.05 2069 l 257
 1677.4 2004 l 257
1875.83 1953 m 257
 1917.33 2067 l 257
 1793.33 2067 l 257
 1751.83 1953 l 257
 1875.83 1953 l 257
1845.4 2004 m 257
 1955.35 2144 l 257
 1894.27 2174 l 257
 1795.05 2069 l 257
 1845.4 2004 l 257
EndSplineSet
EndChar

StartChar: quotedblright
Encoding: 8221 8221 276
GlifName: quotedblright
Width: 2048
VWidth: 0
GlyphClass: 2
Flags: W
LayerCount: 2
Fore
SplineSet
1837.27 2174 m 257
 1795.78 2060 l 257
 1919.78 2060 l 257
 1961.27 2174 l 257
 1837.27 2174 l 257
1868.71 2123 m 257
 1758.75 1983 l 257
 1818.83 1953 l 257
 1918.05 2058 l 257
 1868.71 2123 l 257
1678.27 2174 m 257
 1636.78 2060 l 257
 1760.78 2060 l 257
 1802.27 2174 l 257
 1678.27 2174 l 257
1709.71 2123 m 257
 1599.75 1983 l 257
 1659.83 1953 l 257
 1759.05 2058 l 257
 1709.71 2123 l 257
EndSplineSet
EndChar

StartChar: quoteleft
Encoding: 8216 8216 277
GlifName: quoteleft
Width: 2048
VWidth: 0
GlyphClass: 2
Flags: W
LayerCount: 2
Fore
SplineSet
1770.28 1913 m 257
 1830.33 2078 l 257
 1699.33 2078 l 257
 1640.73 1917 l 257
 1770.28 1913 l 257
1790.96 2066 m 257
 1933.03 2275 l 257
 1866.67 2285 l 257
 1696.59 2054 l 257
 1790.96 2066 l 257
EndSplineSet
EndChar

StartChar: quoteright
Encoding: 8217 8217 278
GlifName: quoteright
Width: 2048
VWidth: 0
GlyphClass: 2
Flags: W
LayerCount: 2
Fore
SplineSet
1755.09 2168 m 257
 1714.32 2056 l 257
 1830.32 2056 l 257
 1871.09 2168 l 257
 1755.09 2168 l 257
1803.9 2140 m 257
 1681.37 1927 l 257
 1718.99 1882 l 257
 1830.32 2056 l 257
 1803.9 2140 l 257
EndSplineSet
EndChar

StartChar: quotesinglbase
Encoding: 8218 8218 279
GlifName: quotesinglbase
Width: 2048
VWidth: 0
GlyphClass: 2
Flags: W
LayerCount: 2
Fore
SplineSet
1049.86 126 m 257
 1006.91 8 l 257
 1116.91 8 l 257
 1159.86 126 l 257
 1049.86 126 l 257
1006.91 8 m 257
 891.052 -118 l 257
 941.048 -129 l 257
 1116.91 8 l 257
 1006.91 8 l 257
EndSplineSet
EndChar

StartChar: quotesingle
Encoding: 39 39 280
GlifName: quotesingle
Width: 2048
VWidth: 0
GlyphClass: 2
Flags: W
LayerCount: 2
Fore
SplineSet
1536.5 1496 m 257
 1471.35 1317 l 257
 1535.35 1317 l 257
 1600.5 1496 l 257
 1536.5 1496 l 257
EndSplineSet
EndChar

StartChar: r
Encoding: 114 114 281
GlifName: r
Width: 2048
VWidth: 0
GlyphClass: 2
Flags: W
AnchorPoint: "top" 1344 1214 basechar 0
AnchorPoint: "base" 876 -126 basechar 0
LayerCount: 2
Fore
SplineSet
518.342 1023 m 257
 495.775 961 l 257
 2251.78 961 l 257
 2274.34 1023 l 257
 518.342 1023 l 257
1231.97 989 m 257
 872 0 l 257
 932 0 l 257
 1291.97 989 l 257
 1231.97 989 l 257
2197.24 976 m 257
 2078.58 650 l 257
 2138.58 650 l 257
 2257.24 976 l 257
 2197.24 976 l 257
EndSplineSet
EndChar

StartChar: registered
Encoding: 174 174 284
GlifName: registered
Width: 2048
VWidth: 0
GlyphClass: 2
Flags: W
LayerCount: 2
Fore
SplineSet
1284.62 1032 m 257
 1091.35 501 l 257
 1128.35 501 l 257
 1321.62 1032 l 257
 1284.62 1032 l 257
1309.62 1032 m 257
 1295.79 994 l 257
 1524.79 994 l 257
 1538.62 1032 l 257
 1309.62 1032 l 257
1509.62 1032 m 257
 1425.9 802 l 257
 1463.9 802 l 257
 1547.62 1032 l 257
 1509.62 1032 l 257
1238.65 848 m 257
 1221.54 801 l 257
 1459.54 801 l 257
 1476.65 848 l 257
 1238.65 848 l 257
1271.45 809 m 257
 1357.99 500 l 257
 1400.99 500 l 257
 1306.45 809 l 257
 1271.45 809 l 257
1113.51 1540 m 257
 553 0 l 257
 615 0 l 257
 1175.51 1540 l 257
 1113.51 1540 l 257
1992.42 1537 m 257
 1433 0 l 257
 1495 0 l 257
 2054.42 1537 l 257
 1992.42 1537 l 257
1151.79 1538 m 257
 1129.95 1478 l 257
 2001.95 1478 l 257
 2023.79 1538 l 257
 1151.79 1538 l 257
610.202 61 m 257
 588 0 l 257
 1480 0 l 257
 1502.2 61 l 257
 610.202 61 l 257
EndSplineSet
EndChar

StartChar: ring
Encoding: 730 730 285
GlifName: ring
Width: 2048
VWidth: 0
GlyphClass: 2
Flags: W
LayerCount: 2
Fore
SplineSet
1351.89 1302 m 257
 1641.89 1302 l 257
 1549.8 1049 l 257
 1259.8 1049 l 257
 1351.89 1302 l 257
1328.44 1331 m 257
 1216.34 1023 l 257
 1576.34 1023 l 257
 1688.44 1331 l 257
 1328.44 1331 l 257
EndSplineSet
EndChar

StartChar: s
Encoding: 115 115 286
GlifName: s
Width: 2048
VWidth: 0
GlyphClass: 2
Flags: W
AnchorPoint: "top" 1432 1134 basechar 0
AnchorPoint: "base" 1088 -162 basechar 0
LayerCount: 2
Fore
SplineSet
579.342 1023 m 257
 557.867 964 l 257
 2190.87 964 l 257
 2212.34 1023 l 257
 579.342 1023 l 257
579.342 1023 m 257
 474.882 736 l 257
 535.882 736 l 257
 640.342 1023 l 257
 579.342 1023 l 257
229.475 59 m 257
 208 0 l 257
 1837 0 l 257
 1858.47 59 l 257
 229.475 59 l 257
1883.83 299 m 257
 1779.37 12 l 257
 1842.37 12 l 257
 1946.83 299 l 257
 1883.83 299 l 257
474.882 736 m 257
 1883.83 299 l 257
 1946.83 299 l 257
 535.882 736 l 257
 474.882 736 l 257
EndSplineSet
EndChar

StartChar: section
Encoding: 167 167 291
GlifName: section
Width: 2048
VWidth: 0
GlyphClass: 2
Flags: W
LayerCount: 2
Fore
SplineSet
1088.23 1237 m 257
 1066.76 1178 l 257
 1664.76 1178 l 257
 1686.23 1237 l 257
 1088.23 1237 l 257
1088.23 1237 m 257
 858.202 605 l 257
 921.202 605 l 257
 1151.23 1237 l 257
 1088.23 1237 l 257
602.206 -200 m 257
 580.368 -260 l 257
 1288.37 -260 l 257
 1310.21 -200 l 257
 602.206 -200 l 257
1255.73 -259 m 257
 1315.73 -259 l 257
 1444.58 95 l 257
 1384.58 95 l 257
 1255.73 -259 l 257
858.566 606 m 257
 1381.03 88 l 257
 1442.03 88 l 257
 916.566 606 l 257
 858.566 606 l 257
1229.82 1626 m 257
 1207.98 1566 l 257
 1805.98 1566 l 257
 1827.82 1626 l 257
 1229.82 1626 l 257
1230.91 1629 m 257
 1088.23 1237 l 257
 1151.23 1237 l 257
 1293.91 1629 l 257
 1230.91 1629 l 257
698.029 88 m 257
 680.195 39 l 257
 1388.2 39 l 257
 1406.03 88 l 257
 698.029 88 l 257
1381.03 88 m 257
 1442.03 88 l 257
 1570.88 442 l 257
 1509.88 442 l 257
 1381.03 88 l 257
1088.23 1237 m 257
 1510.88 442 l 257
 1570.88 442 l 257
 1151.23 1237 l 257
 1088.23 1237 l 257
EndSplineSet
EndChar

StartChar: semicolon
Encoding: 59 59 292
GlifName: semicolon
Width: 2048
VWidth: 0
GlyphClass: 2
Flags: W
LayerCount: 2
Fore
SplineSet
1015.69 164 m 257
 958.548 7 l 257
 1094.55 7 l 257
 1151.69 164 l 257
 1015.69 164 l 257
1089.14 135 m 257
 961.967 -99 l 257
 994.133 -148 l 257
 1099.46 26 l 257
 1089.14 135 l 257
1139.08 503 m 257
 1081.93 346 l 257
 1217.93 346 l 257
 1275.08 503 l 257
 1139.08 503 l 257
EndSplineSet
EndChar

StartChar: seven
Encoding: 55 55 293
GlifName: seven
Width: 2048
VWidth: 0
GlyphClass: 2
Flags: W
LayerCount: 2
Fore
SplineSet
598.136 1495 m 257
 2473.14 1495 l 257
 1929 0 l 257
 1991 0 l 257
 2557.7 1557 l 257
 620.701 1557 l 257
 598.136 1495 l 257
EndSplineSet
EndChar

StartChar: six
Encoding: 54 54 294
GlifName: six
Width: 2048
VWidth: 0
GlyphClass: 2
Flags: W
LayerCount: 2
Fore
SplineSet
605.154 1550 m 257
 114.158 201 l 257
 42.4561 4 l 257
 2005.46 4 l 257
 2302.09 819 l 257
 401.092 819 l 257
 644.588 1488 l 257
 2550.59 1488 l 257
 2573.15 1550 l 257
 605.154 1550 l 257
2218.25 759 m 257
 1964.93 63 l 257
 131.93 63 l 257
 385.253 759 l 257
 2218.25 759 l 257
EndSplineSet
EndChar

StartChar: slash
Encoding: 47 47 295
GlifName: slash
Width: 2048
VWidth: 0
GlyphClass: 2
Flags: W
LayerCount: 2
Fore
SplineSet
1804.68 1480 m 257
 682.64 10 l 257
 785.64 10 l 257
 1907.68 1480 l 257
 1804.68 1480 l 257
EndSplineSet
EndChar

StartChar: sterling
Encoding: 163 163 297
GlifName: sterling
Width: 2048
VWidth: 0
GlyphClass: 2
Flags: W
LayerCount: 2
Fore
SplineSet
1508.61 1543 m 257
 1486.4 1482 l 257
 1675.4 1482 l 257
 1697.61 1543 l 257
 1508.61 1543 l 257
889.257 770 m 257
 865.599 705 l 257
 1591.6 705 l 257
 1615.26 770 l 257
 889.257 770 l 257
1484.24 1542 m 257
 924.092 3 l 257
 1000.09 3 l 257
 1560.24 1542 l 257
 1484.24 1542 l 257
739.206 72 m 257
 714.092 3 l 257
 1440.09 3 l 257
 1465.21 72 l 257
 739.206 72 l 257
EndSplineSet
EndChar

StartChar: t
Encoding: 116 116 298
GlifName: t
Width: 2048
VWidth: 0
GlyphClass: 2
Flags: W
AnchorPoint: "top" 1636 1706 basechar 0
AnchorPoint: "base" 996 -178 basechar 0
LayerCount: 2
Fore
SplineSet
1532.51 1529 m 257
 976 0 l 257
 1036 0 l 257
 1592.51 1529 l 257
 1532.51 1529 l 257
1009.84 60 m 257
 988 0 l 257
 1892 0 l 257
 1913.84 60 l 257
 1009.84 60 l 257
528.342 1023 m 257
 507.231 965 l 257
 2205.23 965 l 257
 2226.34 1023 l 257
 528.342 1023 l 257
EndSplineSet
EndChar

StartChar: tcaron
Encoding: 357 357 299
GlifName: tcaron
Width: 2048
VWidth: 0
GlyphClass: 2
Flags: W
LayerCount: 2
Fore
SplineSet
1532.51 1529 m 257
 976 0 l 257
 1036 0 l 257
 1592.51 1529 l 257
 1532.51 1529 l 257
1009.84 60 m 257
 988 0 l 257
 1892 0 l 257
 1913.84 60 l 257
 1009.84 60 l 257
528.342 1023 m 257
 507.231 965 l 257
 2205.23 965 l 257
 2226.34 1023 l 257
 528.342 1023 l 257
1710.5 1496 m 257
 1645.35 1317 l 257
 1707.35 1317 l 257
 1772.5 1496 l 257
 1710.5 1496 l 257
EndSplineSet
EndChar

StartChar: thorn
Encoding: 254 254 300
GlifName: thorn
Width: 2048
VWidth: 0
GlyphClass: 2
Flags: W
LayerCount: 2
Fore
SplineSet
530.346 1034 m 257
 6.22852 -406 l 257
 64.2285 -406 l 257
 588.346 1034 l 257
 530.346 1034 l 257
448.769 667 m 257
 426.202 605 l 257
 2114.2 605 l 257
 2136.77 667 l 257
 448.769 667 l 257
142.864 -135 m 257
 121.025 -195 l 257
 1823.03 -195 l 257
 1844.86 -135 l 257
 142.864 -135 l 257
2069.12 646 m 257
 1772.12 -170 l 257
 1832.12 -170 l 257
 2129.12 646 l 257
 2069.12 646 l 257
EndSplineSet
EndChar

StartChar: three
Encoding: 51 51 301
GlifName: three
Width: 2048
VWidth: 0
GlyphClass: 2
Flags: W
LayerCount: 2
Fore
SplineSet
368.882 736 m 257
 2194.88 736 l 257
 1945.93 52 l 257
 77.9268 52 l 257
 65.0879 -8 l 257
 1984.09 -8 l 257
 2551.15 1550 l 257
 653.154 1550 l 257
 632.407 1493 l 257
 2468.41 1493 l 257
 2214.72 796 l 257
 390.721 796 l 257
 368.882 736 l 257
EndSplineSet
EndChar

StartChar: threequarters
Encoding: 190 190 302
GlifName: threequarters
Width: 2048
VWidth: 0
GlyphClass: 2
Flags: W
LayerCount: 2
Fore
SplineSet
1913.77 1483 m 257
 212.184 6 l 257
 235.614 -67 l 257
 1936.2 1410 l 257
 1913.77 1483 l 257
558.97 1272 m 257
 1125.97 1272 l 257
 1057.54 1084 l 257
 453.544 1084 l 257
 436.43 1015 l 257
 1100.43 1015 l 257
 1296.25 1553 l 257
 651.246 1553 l 257
 626.132 1484 l 257
 1201.13 1484 l 257
 1148.72 1340 l 257
 583.72 1340 l 257
 558.97 1272 l 257
1374.75 340 m 257
 2002.75 340 l 257
 1881.55 7 l 257
 1959.55 7 l 257
 2207.05 687 l 257
 2127.05 687 l 257
 2032.78 428 l 257
 1493.78 428 l 257
 1588.78 689 l 257
 1501.78 689 l 257
 1374.75 340 l 257
EndSplineSet
EndChar

StartChar: tilde
Encoding: 732 732 303
GlifName: tilde
Width: 2048
VWidth: 0
GlyphClass: 2
Flags: W
LayerCount: 2
Fore
SplineSet
979.548 279 m 257
 961.35 229 l 257
 1285.51 158 l 257
 1303.71 208 l 257
 979.548 279 l 257
719.165 223 m 257
 712.055 165 l 257
 961.35 229 l 257
 979.548 279 l 257
 719.165 223 l 257
1303.71 208 m 257
 1285.51 158 l 257
 1522.47 309 l 257
 1525.57 356 l 257
 1303.71 208 l 257
EndSplineSet
EndChar

StartChar: tildecomb
Encoding: 771 771 304
GlifName: tildecomb
Width: 0
VWidth: 0
GlyphClass: 4
Flags: W
AnchorPoint: "top" 648 1782 mark 0
LayerCount: 2
Fore
SplineSet
569.565 1966 m 257
 551.367 1916 l 257
 875.525 1845 l 257
 893.724 1895 l 257
 569.565 1966 l 257
309.184 1910 m 257
 302.073 1852 l 257
 551.367 1916 l 257
 569.565 1966 l 257
 309.184 1910 l 257
893.724 1895 m 257
 875.525 1845 l 257
 1112.48 1996 l 257
 1115.59 2043 l 257
 893.724 1895 l 257
EndSplineSet
EndChar

StartChar: two
Encoding: 50 50 306
GlifName: two
Width: 2048
VWidth: 0
GlyphClass: 2
Flags: W
LayerCount: 2
Fore
SplineSet
649.132 1484 m 257
 2422.13 1484 l 257
 2212.49 908 l 257
 446.485 908 l 257
 116 0 l 257
 1928 0 l 257
 1949.47 59 l 257
 197.475 59 l 257
 485.011 849 l 257
 2251.01 849 l 257
 2503.97 1544 l 257
 670.97 1544 l 257
 649.132 1484 l 257
EndSplineSet
EndChar

StartChar: u
Encoding: 117 117 307
GlifName: u
Width: 2048
VWidth: 0
GlyphClass: 2
Flags: W
AnchorPoint: "top" 1280 1062 basechar 0
AnchorPoint: "base" 724 -50 basechar 0
LayerCount: 2
Fore
SplineSet
514.346 1034 m 257
 138 0 l 257
 198 0 l 257
 574.346 1034 l 257
 514.346 1034 l 257
1887.98 1033 m 257
 1513.46 4 l 257
 1571.46 4 l 257
 1945.98 1033 l 257
 1887.98 1033 l 257
206.202 61 m 257
 184 0 l 257
 1910 0 l 257
 1932.2 61 l 257
 206.202 61 l 257
EndSplineSet
EndChar

StartChar: underscore
Encoding: 95 95 315
GlifName: underscore
Width: 2048
VWidth: 0
GlyphClass: 2
Flags: W
LayerCount: 2
Fore
SplineSet
0 0 m 257
 -14.5586 -40 l 257
 2033.44 -40 l 257
 2048 0 l 257
 0 0 l 257
EndSplineSet
EndChar

StartChar: uni00B2
Encoding: 178 178 317
GlifName: uni00B_2
Width: 2048
VWidth: 0
GlyphClass: 2
Flags: W
LayerCount: 2
Fore
SplineSet
1224.87 1519 m 257
 2062.87 1519 l 257
 1974.79 1277 l 257
 1139.79 1277 l 257
 1000.75 895 l 257
 1856.75 895 l 257
 1865.85 920 l 257
 1037.85 920 l 257
 1158.69 1252 l 257
 1993.69 1252 l 257
 2099.97 1544 l 257
 1233.97 1544 l 257
 1224.87 1519 l 257
EndSplineSet
EndChar

StartChar: uni00B3
Encoding: 179 179 318
GlifName: uni00B_3
Width: 2048
VWidth: 0
GlyphClass: 2
Flags: W
LayerCount: 2
Fore
SplineSet
368.882 736 m 257
 2194.88 736 l 257
 1945.93 52 l 257
 77.9268 52 l 257
 65.0879 -8 l 257
 1984.09 -8 l 257
 2551.15 1550 l 257
 653.154 1550 l 257
 632.407 1493 l 257
 2468.41 1493 l 257
 2214.72 796 l 257
 390.721 796 l 257
 368.882 736 l 257
EndSplineSet
EndChar

StartChar: uni00B9
Encoding: 185 185 319
GlifName: uni00B_9
Width: 2048
VWidth: 0
GlyphClass: 2
Flags: W
LayerCount: 2
Fore
SplineSet
1361.77 887.5 m 257
 1391.77 887.5 l 257
 1673.85 1662.5 l 257
 1643.85 1662.5 l 257
 1361.77 887.5 l 257
1643.85 1662.5 m 257
 1561.78 1600.5 l 257
 1582.19 1586.5 l 257
 1673.85 1662.5 l 257
 1643.85 1662.5 l 257
EndSplineSet
EndChar

StartChar: uni0192
Encoding: 402 402 332
GlifName: uni0192
Width: 2048
VWidth: 0
GlyphClass: 2
Flags: W
LayerCount: 2
Fore
SplineSet
1346.34 1023 m 257
 826.229 -406 l 257
 888.229 -406 l 257
 1408.34 1023 l 257
 1346.34 1023 l 257
1374.34 1023 m 257
 1353.6 966 l 257
 2145.6 966 l 257
 2166.34 1023 l 257
 1374.34 1023 l 257
519.459 559 m 257
 497.985 500 l 257
 1715.99 500 l 257
 1737.46 559 l 257
 519.459 559 l 257
128.431 -345 m 257
 106.229 -406 l 257
 880.229 -406 l 257
 902.431 -345 l 257
 128.431 -345 l 257
EndSplineSet
EndChar

StartChar: uni0237
Encoding: 567 567 340
GlifName: uni0237
Width: 2048
VWidth: 0
GlyphClass: 2
Flags: W
AnchorPoint: "top" 720 1182 basechar 0
LayerCount: 2
Fore
SplineSet
2164.34 1023 m 257
 1642.41 -411 l 257
 1700.41 -411 l 257
 2222.34 1023 l 257
 2164.34 1023 l 257
71.3379 -348 m 257
 49.1357 -409 l 257
 1663.14 -409 l 257
 1685.34 -348 l 257
 71.3379 -348 l 257
195.816 -6 m 257
 60.4189 -378 l 257
 120.419 -378 l 257
 255.816 -6 l 257
 195.816 -6 l 257
EndSplineSet
EndChar

StartChar: uni02C9
Encoding: 713 713 344
GlifName: uni02C_9
Width: 2048
VWidth: 0
GlyphClass: 2
Flags: W
LayerCount: 2
Fore
SplineSet
1337.27 1630 m 257
 1308.15 1550 l 257
 1868.15 1550 l 257
 1897.27 1630 l 257
 1337.27 1630 l 257
EndSplineSet
EndChar

StartChar: uni02CA
Encoding: 714 714 345
GlifName: uni02C_A_
Width: 2048
VWidth: 0
GlyphClass: 2
Flags: W
AnchorPoint: "top" 1245 714 basechar 0
LayerCount: 2
Fore
SplineSet
1382.41 949 m 257
 1236.07 764 l 257
 1276.7 730 l 257
 1423.03 915 l 257
 1382.41 949 l 257
EndSplineSet
EndChar

StartChar: uni02CB
Encoding: 715 715 346
GlifName: uni02C_B_
Width: 2048
VWidth: 0
GlyphClass: 2
Flags: W
AnchorPoint: "top" 1347 678 basechar 0
LayerCount: 2
Fore
SplineSet
1251.2 877 m 257
 1300.95 673 l 257
 1380.61 727 l 257
 1331.22 932 l 257
 1251.2 877 l 257
EndSplineSet
EndChar

StartChar: uni0302
Encoding: 770 770 347
GlifName: uni0302
Width: 0
VWidth: 0
GlyphClass: 4
Flags: W
AnchorPoint: "top" 434 1203 mark 0
LayerCount: 2
Fore
SplineSet
678.441 1555 m 257
 642.441 1555 l 257
 284.78 1245 l 257
 299.405 1228 l 257
 678.441 1555 l 257
646.534 1556.5 m 257
 566.13 1223.5 l 257
 620.232 1241.5 l 257
 683.534 1556.5 l 257
 646.534 1556.5 l 257
EndSplineSet
EndChar

StartChar: uni0304
Encoding: 772 772 348
GlifName: uni0304
Width: 0
VWidth: 0
GlyphClass: 4
Flags: W
AnchorPoint: "top" 542 1488 mark 0
LayerCount: 2
Fore
SplineSet
313.271 1630 m 257
 284.154 1550 l 257
 844.154 1550 l 257
 873.271 1630 l 257
 313.271 1630 l 257
EndSplineSet
EndChar

StartChar: uni0305
Encoding: 773 773 349
GlifName: uni0305
Width: 0
VWidth: 0
GlyphClass: 4
Flags: W
AnchorPoint: "top" 530 1460 mark 0
LayerCount: 2
Fore
SplineSet
195.161 1602 m 257
 195.161 1542 l 257
 949.161 1542 l 257
 949.161 1602 l 257
 195.161 1602 l 257
EndSplineSet
EndChar

StartChar: uni0306
Encoding: 774 774 350
GlifName: uni0306
Width: 0
VWidth: 0
GlyphClass: 4
Flags: W
AnchorPoint: "top" 509 1392 mark 0
LayerCount: 2
Fore
SplineSet
729.154 1550 m 257
 703.676 1480 l 257
 894.154 1550 l 257
 928.731 1645 l 257
 729.154 1550 l 257
405.154 1550 m 257
 379.676 1480 l 257
 703.676 1480 l 257
 729.154 1550 l 257
 405.154 1550 l 257
263.271 1630 m 257
 234.154 1550 l 257
 379.676 1480 l 257
 405.154 1550 l 257
 263.271 1630 l 257
EndSplineSet
EndChar

StartChar: uni0307
Encoding: 775 775 351
GlifName: uni0307
Width: 0
VWidth: 0
GlyphClass: 4
Flags: W
AnchorPoint: "top" 572 1559 mark 0
LayerCount: 2
Fore
SplineSet
576.58 1738 m 257
 539.819 1637 l 257
 651.819 1637 l 257
 688.58 1738 l 257
 576.58 1738 l 257
EndSplineSet
EndChar

StartChar: uni0308
Encoding: 776 776 352
GlifName: uni0308
Width: 0
VWidth: 0
GlyphClass: 4
Flags: W
AnchorPoint: "top" 584 1561 mark 0
LayerCount: 2
Fore
SplineSet
455.58 1738 m 257
 418.819 1637 l 257
 530.819 1637 l 257
 567.58 1738 l 257
 455.58 1738 l 257
697.58 1738 m 257
 660.819 1637 l 257
 772.819 1637 l 257
 809.58 1738 l 257
 697.58 1738 l 257
EndSplineSet
EndChar

StartChar: uni030A
Encoding: 778 778 353
GlifName: uni030A_
Width: 0
VWidth: 0
GlyphClass: 4
Flags: W
AnchorPoint: "top" 531 1464 mark 0
LayerCount: 2
Fore
SplineSet
564.132 1756 m 257
 712.132 1756 l 257
 664.815 1626 l 257
 516.815 1626 l 257
 564.132 1756 l 257
492.253 1847 m 257
 379.786 1538 l 257
 739.786 1538 l 257
 852.253 1847 l 257
 492.253 1847 l 257
EndSplineSet
EndChar

StartChar: uni030C
Encoding: 780 780 355
GlifName: uni030C_
Width: 0
VWidth: 0
GlyphClass: 4
Flags: W
AnchorPoint: "top" 434 1159 mark 0
LayerCount: 2
Fore
SplineSet
466.338 1284 m 257
 444.356 1611 l 257
 411.169 1594 l 257
 430.702 1285 l 257
 466.338 1284 l 257
432.974 1283 m 257
 469.974 1283 l 257
 750.624 1598 l 257
 716.176 1616 l 257
 432.974 1283 l 257
EndSplineSet
EndChar

StartChar: uni0326
Encoding: 806 806 356
GlifName: uni0326
Width: 0
VWidth: 0
GlyphClass: 4
Flags: W
AnchorPoint: "base" 22 -5 mark 0
LayerCount: 2
Fore
SplineSet
990 0 m 257
 941.956 -132 l 257
 1053.96 -132 l 257
 1102 0 l 257
 990 0 l 257
941.956 -132 m 257
 856.463 -246 l 257
 910.636 -273 l 257
 1053.96 -132 l 257
 941.956 -132 l 257
EndSplineSet
EndChar

StartChar: uni0327
Encoding: 807 807 357
GlifName: uni0327
Width: 0
VWidth: 0
GlyphClass: 4
Flags: W
AnchorPoint: "base" -446 90 mark 0
LayerCount: 2
Fore
SplineSet
863.515 180 m 257
 776.162 -60 l 257
 834.162 -60 l 257
 921.515 180 l 257
 863.515 180 l 257
677.702 -347 m 257
 656.229 -406 l 257
 1102.23 -406 l 257
 1123.7 -347 l 257
 677.702 -347 l 257
1191 0 m 257
 1055.6 -372 l 257
 1114.6 -372 l 257
 1250 0 l 257
 1191 0 l 257
804 0 m 257
 782.162 -60 l 257
 1228.16 -60 l 257
 1250 0 l 257
 804 0 l 257
EndSplineSet
EndChar

StartChar: uni0328
Encoding: 808 808 358
GlifName: uni0328
Width: 0
VWidth: 0
GlyphClass: 4
Flags: W
AnchorPoint: "base" -167 0 mark 0
LayerCount: 2
Fore
SplineSet
625.246 -351 m 257
 603.408 -411 l 257
 1144.41 -411 l 257
 1166.25 -351 l 257
 625.246 -351 l 257
753 0 m 257
 603.408 -411 l 257
 663.408 -411 l 257
 813 0 l 257
 753 0 l 257
753 0 m 257
 731.525 -59 l 257
 1273.53 -59 l 257
 1295 0 l 257
 753 0 l 257
EndSplineSet
EndChar

StartChar: uni0331
Encoding: 817 817 359
GlifName: uni0331
Width: 0
VWidth: 0
GlyphClass: 4
Flags: W
AnchorPoint: "base" 4 -163 mark 0
LayerCount: 2
Fore
SplineSet
669.75 -204 m 257
 653.735 -248 l 257
 1213.74 -248 l 257
 1229.75 -204 l 257
 669.75 -204 l 257
EndSplineSet
EndChar

StartChar: uni0900
Encoding: 2304 2304 360
GlifName: uni0900
Width: 0
VWidth: 0
GlyphClass: 2
Flags: W
LayerCount: 2
Fore
SplineSet
955.98 2121 m 257
 777.999 1632 l 257
 836.999 1632 l 257
 1014.98 2121 l 257
 955.98 2121 l 257
969.98 2121 m 257
 948.143 2061 l 257
 2361.14 2061 l 257
 2382.98 2121 l 257
 969.98 2121 l 257
1595.46 1930 m 257
 1550.69 1807 l 257
 1667.69 1807 l 257
 1712.46 1930 l 257
 1595.46 1930 l 257
2359.98 2121 m 257
 2182.36 1633 l 257
 2242.36 1633 l 257
 2419.98 2121 l 257
 2359.98 2121 l 257
EndSplineSet
EndChar

StartChar: uni0901
Encoding: 2305 2305 361
GlifName: uni0901
Width: 0
VWidth: 0
GlyphClass: 2
Flags: W
LayerCount: 2
Fore
SplineSet
909.073 2124 m 257
 732.547 1639 l 257
 792.547 1639 l 257
 969.073 2124 l 257
 909.073 2124 l 257
789.386 1699 m 257
 767.547 1639 l 257
 2201.55 1639 l 257
 2223.39 1699 l 257
 789.386 1699 l 257
1587.11 1962 m 257
 1542.34 1839 l 257
 1659.34 1839 l 257
 1704.11 1962 l 257
 1587.11 1962 l 257
2349.98 2132 m 257
 2171.28 1641 l 257
 2231.28 1641 l 257
 2409.98 2132 l 257
 2349.98 2132 l 257
EndSplineSet
EndChar

StartChar: uni0902
Encoding: 2306 2306 362
GlifName: uni0902
Width: 0
VWidth: 0
GlyphClass: 2
Flags: W
LayerCount: 2
Fore
SplineSet
1093.77 1755 m 257
 1050.09 1635 l 257
 1170.09 1635 l 257
 1213.77 1755 l 257
 1093.77 1755 l 257
EndSplineSet
EndChar

StartChar: uni0903
Encoding: 2307 2307 363
GlifName: uni0903
Width: 2048
VWidth: 0
GlyphClass: 2
Flags: W
LayerCount: 2
Fore
SplineSet
1078 261 m 257
 1034.32 141 l 257
 1154.32 141 l 257
 1198 261 l 257
 1078 261 l 257
1367.93 1162 m 257
 1323.17 1039 l 257
 1440.17 1039 l 257
 1484.93 1162 l 257
 1367.93 1162 l 257
EndSplineSet
EndChar

StartChar: uni0904
Encoding: 2308 2308 364
GlifName: uni0904
Width: 2048
VWidth: 0
GlyphClass: 2
Flags: W
LayerCount: 2
Fore
SplineSet
1521.51 2062 m 257
 1434.52 1823 l 257
 1495.52 1823 l 257
 1582.51 2062 l 257
 1521.51 2062 l 257
1449.17 1866 m 257
 1428.42 1809 l 257
 2423.42 1809 l 257
 2444.17 1866 l 257
 1449.17 1866 l 257
2383.08 1863 m 257
 2267.33 1545 l 257
 2327.33 1545 l 257
 2443.08 1863 l 257
 2383.08 1863 l 257
1805.15 1550 m 257
 1782.59 1488 l 257
 2591.59 1488 l 257
 2614.15 1550 l 257
 1805.15 1550 l 257
2284.51 1518 m 257
 1732 0 l 257
 1793 0 l 257
 2345.51 1518 l 257
 2284.51 1518 l 257
606.062 1547 m 257
 584.224 1487 l 257
 1619.22 1487 l 257
 1641.06 1547 l 257
 606.062 1547 l 257
1609.15 1550 m 257
 1057.38 34 l 257
 1116.38 34 l 257
 1668.15 1550 l 257
 1609.15 1550 l 257
452.39 894 m 257
 430.915 835 l 257
 2062.92 835 l 257
 2084.39 894 l 257
 452.39 894 l 257
41.6582 65 m 257
 18 0 l 257
 1104 0 l 257
 1127.66 65 l 257
 41.6582 65 l 257
EndSplineSet
EndChar

StartChar: uni0905
Encoding: 2309 2309 365
GlifName: uni0905
Width: 2048
VWidth: 0
GlyphClass: 2
Flags: W
LayerCount: 2
Fore
SplineSet
1782.15 1550 m 257
 1760.32 1490 l 257
 2592.32 1490 l 257
 2614.15 1550 l 257
 1782.15 1550 l 257
2254.51 1518 m 257
 1702 0 l 257
 1764 0 l 257
 2316.51 1518 l 257
 2254.51 1518 l 257
601.062 1547 m 257
 579.224 1487 l 257
 1601.22 1487 l 257
 1623.06 1547 l 257
 601.062 1547 l 257
1592.15 1550 m 257
 1040.38 34 l 257
 1098.38 34 l 257
 1650.15 1550 l 257
 1592.15 1550 l 257
447.39 894 m 257
 425.915 835 l 257
 2033.92 835 l 257
 2055.39 894 l 257
 447.39 894 l 257
35.6582 65 m 257
 12 0 l 257
 1086 0 l 257
 1109.66 65 l 257
 35.6582 65 l 257
EndSplineSet
EndChar

StartChar: uni0906
Encoding: 2310 2310 366
GlifName: uni0906
Width: 2048
VWidth: 0
GlyphClass: 2
Flags: W
LayerCount: 2
Fore
SplineSet
1613.15 1550 m 257
 1590.95 1489 l 257
 2591.95 1489 l 257
 2614.15 1550 l 257
 1613.15 1550 l 257
2072.51 1518 m 257
 1520 0 l 257
 1581 0 l 257
 2133.51 1518 l 257
 2072.51 1518 l 257
616.062 1547 m 257
 594.224 1487 l 257
 1417.22 1487 l 257
 1439.06 1547 l 257
 616.062 1547 l 257
1407.15 1550 m 257
 855.375 34 l 257
 914.375 34 l 257
 1466.15 1550 l 257
 1407.15 1550 l 257
462.39 894 m 257
 440.915 835 l 257
 1848.92 835 l 257
 1870.39 894 l 257
 462.39 894 l 257
51.6582 65 m 257
 28 0 l 257
 902 0 l 257
 925.658 65 l 257
 51.6582 65 l 257
2455.51 1518 m 257
 1903 0 l 257
 1964 0 l 257
 2516.51 1518 l 257
 2455.51 1518 l 257
EndSplineSet
EndChar

StartChar: uni0907
Encoding: 2311 2311 367
GlifName: uni0907
Width: 2048
VWidth: 0
GlyphClass: 2
Flags: W
LayerCount: 2
Fore
SplineSet
558.154 1550 m 257
 535.952 1489 l 257
 2596.95 1489 l 257
 2619.15 1550 l 257
 558.154 1550 l 257
1946.51 1529 m 257
 1816.94 1173 l 257
 1875.94 1173 l 257
 2005.51 1529 l 257
 1946.51 1529 l 257
606.584 1205 m 257
 584.382 1144 l 257
 1864.38 1144 l 257
 1886.58 1205 l 257
 606.584 1205 l 257
597.849 1181 m 257
 475.555 845 l 257
 533.555 845 l 257
 655.849 1181 l 257
 597.849 1181 l 257
488.658 881 m 257
 466.092 819 l 257
 1812.09 819 l 257
 1834.66 881 l 257
 488.658 881 l 257
1800.66 881 m 257
 1583.73 285 l 257
 1643.73 285 l 257
 1860.66 881 l 257
 1800.66 881 l 257
254.463 298 m 257
 232.261 237 l 257
 1628.26 237 l 257
 1650.46 298 l 257
 254.463 298 l 257
370.463 298 m 257
 173.191 -244 l 257
 233.191 -244 l 257
 430.463 298 l 257
 370.463 298 l 257
EndSplineSet
EndChar

StartChar: uni0908
Encoding: 2312 2312 368
GlifName: uni0908
Width: 2048
VWidth: 0
GlyphClass: 2
Flags: W
LayerCount: 2
Fore
SplineSet
558.154 1550 m 257
 535.588 1488 l 257
 2596.59 1488 l 257
 2619.15 1550 l 257
 558.154 1550 l 257
1957.25 1553 m 257
 1822.58 1183 l 257
 1882.58 1183 l 257
 2017.25 1553 l 257
 1957.25 1553 l 257
609.312 1207 m 257
 587.11 1146 l 257
 1869.11 1146 l 257
 1891.31 1207 l 257
 609.312 1207 l 257
599.849 1181 m 257
 479.011 849 l 257
 539.011 849 l 257
 659.849 1181 l 257
 599.849 1181 l 257
490.658 881 m 257
 468.819 821 l 257
 1820.82 821 l 257
 1842.66 881 l 257
 490.658 881 l 257
1804.66 881 m 257
 1587.73 285 l 257
 1647.73 285 l 257
 1864.66 881 l 257
 1804.66 881 l 257
256.463 298 m 257
 234.261 237 l 257
 1632.26 237 l 257
 1654.46 298 l 257
 256.463 298 l 257
372.463 298 m 257
 175.191 -244 l 257
 235.191 -244 l 257
 432.463 298 l 257
 372.463 298 l 257
992.984 1860 m 257
 1810.15 1550 l 257
 1914.15 1550 l 257
 1088.46 1908 l 257
 992.984 1860 l 257
EndSplineSet
EndChar

StartChar: uni0909
Encoding: 2313 2313 369
GlifName: uni0909
Width: 2048
VWidth: 0
GlyphClass: 2
Flags: W
LayerCount: 2
Fore
SplineSet
564.154 1550 m 257
 541.588 1488 l 257
 2591.59 1488 l 257
 2614.15 1550 l 257
 564.154 1550 l 257
1691.87 1530 m 257
 1499.33 1001 l 257
 1558.33 1001 l 257
 1750.87 1530 l 257
 1691.87 1530 l 257
629.985 1044 m 257
 608.511 985 l 257
 2050.51 985 l 257
 2071.99 1044 l 257
 629.985 1044 l 257
1994.79 994 m 257
 1633 0 l 257
 1693 0 l 257
 2054.79 994 l 257
 1994.79 994 l 257
167.202 61 m 257
 145 0 l 257
 1682 0 l 257
 1704.2 61 l 257
 167.202 61 l 257
270.934 346 m 257
 151.915 19 l 257
 210.915 19 l 257
 329.934 346 l 257
 270.934 346 l 257
EndSplineSet
EndChar

StartChar: uni090A
Encoding: 2314 2314 370
GlifName: uni090A_
Width: 2048
VWidth: 0
GlyphClass: 2
Flags: W
LayerCount: 2
Fore
SplineSet
560.154 1550 m 257
 537.952 1489 l 257
 2591.95 1489 l 257
 2614.15 1550 l 257
 560.154 1550 l 257
1502.87 1530 m 257
 1310.33 1001 l 257
 1371.33 1001 l 257
 1563.87 1530 l 257
 1502.87 1530 l 257
545.985 1044 m 257
 523.783 983 l 257
 2128.78 983 l 257
 2150.99 1044 l 257
 545.985 1044 l 257
1602.79 994 m 257
 1241 0 l 257
 1302 0 l 257
 1663.79 994 l 257
 1602.79 994 l 257
83.2021 61 m 257
 61 0 l 257
 1299 0 l 257
 1321.2 61 l 257
 83.2021 61 l 257
186.934 346 m 257
 67.915 19 l 257
 128.915 19 l 257
 247.934 346 l 257
 186.934 346 l 257
2083.34 1023 m 257
 1782.7 197 l 257
 1842.7 197 l 257
 2143.34 1023 l 257
 2083.34 1023 l 257
EndSplineSet
EndChar

StartChar: uni090B
Encoding: 2315 2315 371
GlifName: uni090B_
Width: 2048
VWidth: 0
GlyphClass: 2
Flags: W
LayerCount: 2
Fore
SplineSet
564.154 1550 m 257
 541.588 1488 l 257
 2588.59 1488 l 257
 2611.15 1550 l 257
 564.154 1550 l 257
1579.97 1533 m 257
 1022 0 l 257
 1081 0 l 257
 1638.97 1533 l 257
 1579.97 1533 l 257
399.621 1043 m 257
 377.783 983 l 257
 680.783 983 l 257
 702.621 1043 l 257
 399.621 1043 l 257
1214.43 471 m 257
 255.43 471 l 257
 320.775 417 l 257
 1229.78 417 l 257
 1214.43 471 l 257
702.621 1043 m 257
 680.783 983 l 257
 1397.3 902 l 257
 1417.68 958 l 257
 702.621 1043 l 257
1395.48 897 m 257
 1373.64 837 l 257
 2002.64 837 l 257
 2024.48 897 l 257
 1395.48 897 l 257
1982.48 897 m 257
 1752.45 265 l 257
 1813.45 265 l 257
 2043.48 897 l 257
 1982.48 897 l 257
1773.93 324 m 257
 1752.09 264 l 257
 2142.09 264 l 257
 2163.93 324 l 257
 1773.93 324 l 257
EndSplineSet
EndChar

StartChar: uni090C
Encoding: 2316 2316 372
GlifName: uni090C_
Width: 2048
VWidth: 0
GlyphClass: 2
Flags: W
LayerCount: 2
Fore
SplineSet
564.154 1550 m 257
 541.588 1488 l 257
 2589.59 1488 l 257
 2612.15 1550 l 257
 564.154 1550 l 257
1724.15 1550 m 257
 1436.25 759 l 257
 1496.25 759 l 257
 1784.15 1550 l 257
 1724.15 1550 l 257
2079.9 791 m 257
 343.9 791 l 257
 322.062 731 l 257
 2058.06 731 l 257
 2079.9 791 l 257
340.805 777 m 257
 149.721 252 l 257
 209.721 252 l 257
 400.805 777 l 257
 340.805 777 l 257
947.9 791 m 257
 817.599 433 l 257
 877.599 433 l 257
 1007.9 791 l 257
 947.9 791 l 257
2010.26 792 m 257
 1748.57 73 l 257
 1808.57 73 l 257
 2070.26 792 l 257
 2010.26 792 l 257
1814.04 132 m 257
 1791.84 71 l 257
 2071.84 71 l 257
 2094.04 132 l 257
 1814.04 132 l 257
EndSplineSet
EndChar

StartChar: uni090D
Encoding: 2317 2317 373
GlifName: uni090D_
Width: 2048
VWidth: 0
GlyphClass: 2
Flags: W
LayerCount: 2
Fore
SplineSet
564.154 1550 m 257
 541.588 1488 l 257
 2589.59 1488 l 257
 2612.15 1550 l 257
 564.154 1550 l 257
2449.33 1545 m 257
 2170.53 779 l 257
 2229.53 779 l 257
 2508.33 1545 l 257
 2449.33 1545 l 257
1372.37 839 m 257
 1350.53 779 l 257
 2229.53 779 l 257
 2251.37 839 l 257
 1372.37 839 l 257
708.242 1542 m 257
 270.021 338 l 257
 330.021 338 l 257
 768.242 1542 l 257
 708.242 1542 l 257
277.302 358 m 257
 255.1 297 l 257
 1282.1 297 l 257
 1304.3 358 l 257
 277.302 358 l 257
1251.3 358 m 257
 1085.33 -98 l 257
 1145.33 -98 l 257
 1311.3 358 l 257
 1251.3 358 l 257
378.169 -38 m 257
 356.331 -98 l 257
 1143.33 -98 l 257
 1165.17 -38 l 257
 378.169 -38 l 257
935.073 2124 m 257
 758.547 1639 l 257
 817.547 1639 l 257
 994.073 2124 l 257
 935.073 2124 l 257
827.113 1701 m 257
 805.275 1641 l 257
 2439.28 1641 l 257
 2461.11 1701 l 257
 827.113 1701 l 257
2558.98 2132 m 257
 2380.28 1641 l 257
 2439.28 1641 l 257
 2617.98 2132 l 257
 2558.98 2132 l 257
EndSplineSet
EndChar

StartChar: uni090E
Encoding: 2318 2318 374
GlifName: uni090E_
Width: 2048
VWidth: 0
GlyphClass: 2
Flags: W
LayerCount: 2
Fore
SplineSet
564.154 1550 m 257
 541.588 1488 l 257
 2590.59 1488 l 257
 2613.15 1550 l 257
 564.154 1550 l 257
2444.33 1545 m 257
 2165.53 779 l 257
 2223.53 779 l 257
 2502.33 1545 l 257
 2444.33 1545 l 257
1355.37 839 m 257
 1333.53 779 l 257
 2223.53 779 l 257
 2245.37 839 l 257
 1355.37 839 l 257
713.242 1542 m 257
 275.021 338 l 257
 335.021 338 l 257
 773.242 1542 l 257
 713.242 1542 l 257
282.302 358 m 257
 260.1 297 l 257
 1264.1 297 l 257
 1286.3 358 l 257
 282.302 358 l 257
1234.3 358 m 257
 1068.33 -98 l 257
 1128.33 -98 l 257
 1294.3 358 l 257
 1234.3 358 l 257
384.169 -38 m 257
 362.331 -98 l 257
 1126.33 -98 l 257
 1148.17 -38 l 257
 384.169 -38 l 257
1280.51 2062 m 257
 1193.52 1823 l 257
 1255.52 1823 l 257
 1342.51 2062 l 257
 1280.51 2062 l 257
1209.17 1866 m 257
 1188.42 1809 l 257
 2622.42 1809 l 257
 2643.17 1866 l 257
 1209.17 1866 l 257
2577.71 1840 m 257
 2461.96 1522 l 257
 2521.96 1522 l 257
 2637.71 1840 l 257
 2577.71 1840 l 257
EndSplineSet
EndChar

StartChar: uni090F
Encoding: 2319 2319 375
GlifName: uni090F_
Width: 2048
VWidth: 0
GlyphClass: 2
Flags: W
LayerCount: 2
Fore
SplineSet
559.154 1550 m 257
 536.588 1488 l 257
 2595.59 1488 l 257
 2618.15 1550 l 257
 559.154 1550 l 257
2454.33 1545 m 257
 2175.53 779 l 257
 2235.53 779 l 257
 2514.33 1545 l 257
 2454.33 1545 l 257
1451.37 839 m 257
 1429.53 779 l 257
 2235.53 779 l 257
 2257.37 839 l 257
 1451.37 839 l 257
703.242 1542 m 257
 265.021 338 l 257
 325.021 338 l 257
 763.242 1542 l 257
 703.242 1542 l 257
272.302 358 m 257
 250.1 297 l 257
 1362.1 297 l 257
 1384.3 358 l 257
 272.302 358 l 257
1330.3 358 m 257
 1164.33 -98 l 257
 1224.33 -98 l 257
 1390.3 358 l 257
 1330.3 358 l 257
372.169 -38 m 257
 350.331 -98 l 257
 1222.33 -98 l 257
 1244.17 -38 l 257
 372.169 -38 l 257
EndSplineSet
EndChar

StartChar: uni0910
Encoding: 2320 2320 376
GlifName: uni0910
Width: 2048
VWidth: 0
GlyphClass: 2
Flags: W
LayerCount: 2
Fore
SplineSet
558.79 1549 m 257
 536.952 1489 l 257
 2595.95 1489 l 257
 2617.79 1549 l 257
 558.79 1549 l 257
2452.33 1545 m 257
 2173.53 779 l 257
 2235.53 779 l 257
 2514.33 1545 l 257
 2452.33 1545 l 257
1451.74 840 m 257
 1429.53 779 l 257
 2235.53 779 l 257
 2257.74 840 l 257
 1451.74 840 l 257
703.242 1542 m 257
 265.021 338 l 257
 325.021 338 l 257
 763.242 1542 l 257
 703.242 1542 l 257
272.665 359 m 257
 250.1 297 l 257
 1362.1 297 l 257
 1384.67 359 l 257
 272.665 359 l 257
1344.3 358 m 257
 1178.33 -98 l 257
 1236.33 -98 l 257
 1402.3 358 l 257
 1344.3 358 l 257
372.533 -37 m 257
 350.331 -98 l 257
 1222.33 -98 l 257
 1244.53 -37 l 257
 372.533 -37 l 257
1782.11 1962 m 257
 2441.06 1547 l 257
 2513.06 1547 l 257
 1849.21 1998 l 257
 1782.11 1962 l 257
EndSplineSet
EndChar

StartChar: uni0911
Encoding: 2321 2321 377
GlifName: uni0911
Width: 2048
VWidth: 0
GlyphClass: 2
Flags: W
LayerCount: 2
Fore
SplineSet
1893.43 1548 m 257
 1871.59 1488 l 257
 2589.59 1488 l 257
 2611.43 1548 l 257
 1893.43 1548 l 257
1892.14 1506 m 257
 1344 0 l 257
 1406 0 l 257
 1954.14 1506 l 257
 1892.14 1506 l 257
590.154 1550 m 257
 567.588 1488 l 257
 1439.59 1488 l 257
 1462.15 1550 l 257
 590.154 1550 l 257
1428.15 1550 m 257
 874.919 30 l 257
 934.919 30 l 257
 1488.15 1550 l 257
 1428.15 1550 l 257
435.39 894 m 257
 413.551 834 l 257
 1685.55 834 l 257
 1707.39 894 l 257
 435.39 894 l 257
22.2021 61 m 257
 0 0 l 257
 924 0 l 257
 946.202 61 l 257
 22.2021 61 l 257
2383.41 1504 m 257
 1836 0 l 257
 1896 0 l 257
 2443.41 1504 l 257
 2383.41 1504 l 257
2084.88 2085 m 257
 1922.55 1639 l 257
 1984.55 1639 l 257
 2146.88 2085 l 257
 2084.88 2085 l 257
1951.11 1701 m 257
 1929.28 1641 l 257
 2645.28 1641 l 257
 2667.11 1701 l 257
 1951.11 1701 l 257
2734.15 2083 m 257
 2573.28 1641 l 257
 2645.28 1641 l 257
 2806.15 2083 l 257
 2734.15 2083 l 257
EndSplineSet
EndChar

StartChar: uni0912
Encoding: 2322 2322 378
GlifName: uni0912
Width: 2048
VWidth: 0
GlyphClass: 2
Flags: W
LayerCount: 2
Fore
SplineSet
1619.43 1548 m 257
 1597.59 1488 l 257
 2589.59 1488 l 257
 2611.43 1548 l 257
 1619.43 1548 l 257
1977.51 1518 m 257
 1425 0 l 257
 1486 0 l 257
 2038.51 1518 l 257
 1977.51 1518 l 257
604.062 1547 m 257
 582.224 1487 l 257
 1438.22 1487 l 257
 1460.06 1547 l 257
 604.062 1547 l 257
1428.15 1550 m 257
 876.375 34 l 257
 935.375 34 l 257
 1487.15 1550 l 257
 1428.15 1550 l 257
450.39 894 m 257
 428.915 835 l 257
 1753.92 835 l 257
 1775.39 894 l 257
 450.39 894 l 257
39.6582 65 m 257
 16 0 l 257
 923 0 l 257
 946.658 65 l 257
 39.6582 65 l 257
2467.51 1518 m 257
 1915 0 l 257
 1976 0 l 257
 2528.51 1518 l 257
 2467.51 1518 l 257
1007.51 2062 m 257
 920.518 1823 l 257
 981.518 1823 l 257
 1068.51 2062 l 257
 1007.51 2062 l 257
935.169 1866 m 257
 914.422 1809 l 257
 2621.42 1809 l 257
 2642.17 1866 l 257
 935.169 1866 l 257
2585.17 1866 m 257
 2464.33 1534 l 257
 2524.33 1534 l 257
 2645.17 1866 l 257
 2585.17 1866 l 257
EndSplineSet
EndChar

StartChar: uni0913
Encoding: 2323 2323 379
GlifName: uni0913
Width: 2048
VWidth: 0
GlyphClass: 2
Flags: W
LayerCount: 2
Fore
SplineSet
1591.79 1549 m 257
 1569.95 1489 l 257
 2589.95 1489 l 257
 2611.79 1549 l 257
 1591.79 1549 l 257
2106.51 1518 m 257
 1554 0 l 257
 1616 0 l 257
 2168.51 1518 l 257
 2106.51 1518 l 257
601.062 1547 m 257
 579.224 1487 l 257
 1413.22 1487 l 257
 1435.06 1547 l 257
 601.062 1547 l 257
1404.15 1550 m 257
 852.375 34 l 257
 910.375 34 l 257
 1462.15 1550 l 257
 1404.15 1550 l 257
447.39 894 m 257
 425.915 835 l 257
 1883.92 835 l 257
 1905.39 894 l 257
 447.39 894 l 257
35.6582 65 m 257
 12 0 l 257
 898 0 l 257
 921.658 65 l 257
 35.6582 65 l 257
2470.51 1518 m 257
 1918 0 l 257
 1980 0 l 257
 2532.51 1518 l 257
 2470.51 1518 l 257
2087.69 1807 m 257
 2462.51 1529 l 257
 2546.15 1550 l 257
 2166.61 1826 l 257
 2087.69 1807 l 257
EndSplineSet
EndChar

StartChar: uni0914
Encoding: 2324 2324 380
GlifName: uni0914
Width: 2048
VWidth: 0
GlyphClass: 2
Flags: W
LayerCount: 2
Fore
SplineSet
1919.25 1553 m 257
 1897.77 1494 l 257
 2579.77 1494 l 257
 2601.25 1553 l 257
 1919.25 1553 l 257
2106.51 1518 m 257
 1554 0 l 257
 1616 0 l 257
 2168.51 1518 l 257
 2106.51 1518 l 257
601.062 1547 m 257
 579.224 1487 l 257
 1413.22 1487 l 257
 1435.06 1547 l 257
 601.062 1547 l 257
1404.15 1550 m 257
 852.375 34 l 257
 910.375 34 l 257
 1462.15 1550 l 257
 1404.15 1550 l 257
447.39 894 m 257
 425.915 835 l 257
 1883.92 835 l 257
 1905.39 894 l 257
 447.39 894 l 257
35.6582 65 m 257
 12 0 l 257
 898 0 l 257
 921.658 65 l 257
 35.6582 65 l 257
2470.51 1518 m 257
 1918 0 l 257
 1980 0 l 257
 2532.51 1518 l 257
 2470.51 1518 l 257
1590.2 1682 m 257
 2105.05 1525 l 257
 2174.51 1540 l 257
 1650.03 1731 l 257
 1590.2 1682 l 257
1727.31 1751 m 257
 2188.15 1550 l 257
 2270.15 1550 l 257
 1792.96 1783 l 257
 1727.31 1751 l 257
EndSplineSet
EndChar

StartChar: uni0915
Encoding: 2325 2325 381
GlifName: uni0915
Width: 2048
VWidth: 0
GlyphClass: 2
Flags: W
LayerCount: 2
Fore
SplineSet
565.246 1553 m 257
 534.672 1469 l 257
 2582.67 1469 l 257
 2613.25 1553 l 257
 565.246 1553 l 257
1662.51 1518 m 257
 1128.56 51 l 257
 1182.56 51 l 257
 1716.51 1518 l 257
 1662.51 1518 l 257
570.084 1069 m 257
 548.61 1010 l 257
 1389.61 1010 l 257
 1411.08 1069 l 257
 570.084 1069 l 257
558.72 1068 m 257
 389.838 604 l 257
 449.838 604 l 257
 618.72 1068 l 257
 558.72 1068 l 257
430.68 675 m 257
 405.202 605 l 257
 1377.2 605 l 257
 1402.68 675 l 257
 430.68 675 l 257
1498.61 999 m 257
 1477.86 942 l 257
 2254.86 942 l 257
 2275.61 999 l 257
 1498.61 999 l 257
2225.97 1000 m 257
 2145.53 779 l 257
 2203.53 779 l 257
 2283.97 1000 l 257
 2225.97 1000 l 257
EndSplineSet
EndChar

StartChar: uni0915_uni0930_uni094D.vatu
Encoding: 65536 -1 382
GlifName: uni0915_uni0930_uni094D_.vatu
Width: 2048
VWidth: 0
GlyphClass: 3
Flags: W
LayerCount: 2
Fore
SplineSet
565.246 1553 m 257
 534.672 1469 l 257
 2582.67 1469 l 257
 2613.25 1553 l 257
 565.246 1553 l 257
1662.51 1518 m 257
 1128.56 51 l 257
 1182.56 51 l 257
 1716.51 1518 l 257
 1662.51 1518 l 257
570.084 1069 m 257
 548.61 1010 l 257
 1387.61 1010 l 257
 1409.08 1069 l 257
 570.084 1069 l 257
558.72 1068 m 257
 389.838 604 l 257
 449.838 604 l 257
 618.72 1068 l 257
 558.72 1068 l 257
430.68 675 m 257
 405.202 605 l 257
 1377.2 605 l 257
 1402.68 675 l 257
 430.68 675 l 257
1497.61 999 m 257
 1477.86 942 l 257
 2254.86 942 l 257
 2275.61 999 l 257
 1497.61 999 l 257
2225.97 1000 m 257
 2145.53 779 l 257
 2203.53 779 l 257
 2283.97 1000 l 257
 2225.97 1000 l 257
188.908 -3 m 257
 310.908 -3 l 257
 1266.83 299 l 257
 1288.3 358 l 257
 188.908 -3 l 257
EndSplineSet
Ligature2: "rkrfRakarVariantsinDevanagari2lookup0 subtable" uni0915 uni0930_uni094D.blwf
EndChar

StartChar: uni0915_uni094D.half
Encoding: 65537 -1 383
GlifName: uni0915_uni094D_.half
Width: 2048
VWidth: 0
GlyphClass: 3
Flags: W
LayerCount: 2
Fore
SplineSet
564.154 1550 m 257
 537.948 1478 l 257
 2585.95 1478 l 257
 2612.15 1550 l 257
 564.154 1550 l 257
1662.51 1518 m 257
 1128.56 51 l 257
 1182.56 51 l 257
 1716.51 1518 l 257
 1662.51 1518 l 257
570.084 1069 m 257
 548.61 1010 l 257
 1389.61 1010 l 257
 1411.08 1069 l 257
 570.084 1069 l 257
558.72 1068 m 257
 389.838 604 l 257
 449.838 604 l 257
 618.72 1068 l 257
 558.72 1068 l 257
430.68 675 m 257
 405.202 605 l 257
 1377.2 605 l 257
 1402.68 675 l 257
 430.68 675 l 257
1498.61 999 m 257
 1477.86 942 l 257
 2507.86 942 l 257
 2528.61 999 l 257
 1498.61 999 l 257
EndSplineSet
Ligature2: "halfHalfFormsinDevanagari2lookup0 subtable" uni0915 uni094D
EndChar

StartChar: uni0915_uni094D.haln
Encoding: 65538 -1 384
GlifName: uni0915_uni094D_.haln
Width: 2048
VWidth: 0
GlyphClass: 3
Flags: W
LayerCount: 2
Fore
SplineSet
1130.49 1553 m 257
 1069.34 1469 l 257
 3117.34 1469 l 257
 3178.49 1553 l 257
 1130.49 1553 l 257
2215.01 1518 m 257
 1147.12 51 l 257
 1201.12 51 l 257
 2269.01 1518 l 257
 2215.01 1518 l 257
959.168 1069 m 257
 916.22 1010 l 257
 1757.22 1010 l 257
 1800.17 1069 l 257
 959.168 1069 l 257
947.439 1068 m 257
 609.676 604 l 257
 669.676 604 l 257
 1007.44 1068 l 257
 947.439 1068 l 257
676.359 675 m 257
 625.404 605 l 257
 1597.4 605 l 257
 1648.36 675 l 257
 676.359 675 l 257
1862.21 999 m 257
 1820.72 942 l 257
 2597.72 942 l 257
 2639.21 999 l 257
 1862.21 999 l 257
2589.94 1000 m 257
 2429.07 779 l 257
 2487.07 779 l 257
 2647.94 1000 l 257
 2589.94 1000 l 257
1123.35 -16 m 257
 1078.95 -77 l 257
 1422.95 -77 l 257
 1467.35 -16 l 257
 1123.35 -16 l 257
1398.32 -71 m 257
 1636.72 -418 l 257
 1704.57 -366 l 257
 1468.08 -15 l 257
 1398.32 -71 l 257
EndSplineSet
Ligature2: "halnHalantFormsinDevanagari2lookup0 subtable" uni0915 uni094D
EndChar

StartChar: uni0915_uni094D_uni0937.akhn
Encoding: 65539 -1 385
GlifName: uni0915_uni094D__uni0937.akhn
Width: 2048
VWidth: 0
GlyphClass: 3
Flags: W
LayerCount: 2
Fore
SplineSet
2253.15 1550 m 257
 2231.68 1491 l 257
 2590.68 1491 l 257
 2612.15 1550 l 257
 2253.15 1550 l 257
2435.96 1511 m 257
 1887.46 4 l 257
 1946.46 4 l 257
 2494.96 1511 l 257
 2435.96 1511 l 257
518.36 1078 m 257
 496.521 1018 l 257
 2315.52 1018 l 257
 2337.36 1078 l 257
 518.36 1078 l 257
498.342 1023 m 257
 558.342 1023 l 257
 703.565 1422 l 257
 643.565 1422 l 257
 498.342 1023 l 257
649.297 1435 m 257
 627.095 1374 l 257
 1579.09 1374 l 257
 1601.3 1435 l 257
 649.297 1435 l 257
1535.57 1422 m 257
 1392.89 1030 l 257
 1452.89 1030 l 257
 1595.57 1422 l 257
 1535.57 1422 l 257
393.488 647 m 257
 453.488 647 l 257
 1451.16 1028 l 257
 1393.16 1028 l 257
 393.488 647 l 257
393.488 647 m 257
 230.794 200 l 257
 290.794 200 l 257
 453.488 647 l 257
 393.488 647 l 257
240.257 226 m 257
 218.419 166 l 257
 1966.42 166 l 257
 1988.26 226 l 257
 240.257 226 l 257
EndSplineSet
Ligature2: "akhnAkhandinDevanagari2lookup0 subtable" uni0915 uni094D uni0937
EndChar

StartChar: uni0915_uni094D_uni0937.half
Encoding: 65540 -1 386
GlifName: uni0915_uni094D__uni0937.half
Width: 2048
VWidth: 0
GlyphClass: 3
Flags: W
LayerCount: 2
Fore
SplineSet
2253.15 1550 m 257
 2231.68 1491 l 257
 2590.68 1491 l 257
 2612.15 1550 l 257
 2253.15 1550 l 257
518.36 1078 m 257
 496.521 1018 l 257
 2415.52 1018 l 257
 2437.36 1078 l 257
 518.36 1078 l 257
498.342 1023 m 257
 558.342 1023 l 257
 703.565 1422 l 257
 643.565 1422 l 257
 498.342 1023 l 257
649.297 1435 m 257
 627.095 1374 l 257
 1579.09 1374 l 257
 1601.3 1435 l 257
 649.297 1435 l 257
1535.57 1422 m 257
 1392.89 1030 l 257
 1452.89 1030 l 257
 1595.57 1422 l 257
 1535.57 1422 l 257
393.488 647 m 257
 453.488 647 l 257
 1451.16 1028 l 257
 1393.16 1028 l 257
 393.488 647 l 257
393.488 647 m 257
 230.794 200 l 257
 290.794 200 l 257
 453.488 647 l 257
 393.488 647 l 257
240.257 226 m 257
 218.419 166 l 257
 2066.42 166 l 257
 2088.26 226 l 257
 240.257 226 l 257
EndSplineSet
Ligature2: "halfHalfFormsinDevanagari2lookup0 subtable" uni0915_uni094D_uni0937.akhn uni094D
EndChar

StartChar: uni0915_uni094D_uni0937_uni094D
Encoding: 65541 -1 387
GlifName: uni0915_uni094D__uni0937_uni094D_
Width: 2048
VWidth: 0
GlyphClass: 3
Flags: W
LayerCount: 2
Fore
SplineSet
2817.31 1550 m 257
 2774.36 1491 l 257
 3133.36 1491 l 257
 3176.31 1550 l 257
 2817.31 1550 l 257
2985.92 1511 m 257
 1888.91 4 l 257
 1947.91 4 l 257
 3044.92 1511 l 257
 2985.92 1511 l 257
910.72 1078 m 257
 867.043 1018 l 257
 2686.04 1018 l 257
 2729.72 1078 l 257
 910.72 1078 l 257
870.684 1023 m 257
 930.684 1023 l 257
 1221.13 1422 l 257
 1161.13 1422 l 257
 870.684 1023 l 257
1171.59 1435 m 257
 1127.19 1374 l 257
 2079.19 1374 l 257
 2123.59 1435 l 257
 1171.59 1435 l 257
2053.13 1422 m 257
 1767.78 1030 l 257
 1827.78 1030 l 257
 2113.13 1422 l 257
 2053.13 1422 l 257
628.977 647 m 257
 688.977 647 l 257
 1825.32 1028 l 257
 1767.32 1028 l 257
 628.977 647 l 257
628.977 647 m 257
 303.588 200 l 257
 363.588 200 l 257
 688.977 647 l 257
 628.977 647 l 257
322.514 226 m 257
 278.838 166 l 257
 2026.84 166 l 257
 2070.51 226 l 257
 322.514 226 l 257
1247.35 -16 m 257
 1202.95 -77 l 257
 1546.95 -77 l 257
 1591.35 -16 l 257
 1247.35 -16 l 257
1522.32 -71 m 257
 1760.72 -418 l 257
 1828.57 -366 l 257
 1592.08 -15 l 257
 1522.32 -71 l 257
EndSplineSet
Ligature2: "halnHalantFormsinDevanagari2lookup0 subtable" uni0915_uni094D_uni0937.akhn uni094D
EndChar

StartChar: uni0916
Encoding: 2326 2326 388
GlifName: uni0916
Width: 2048
VWidth: 0
GlyphClass: 2
Flags: W
LayerCount: 2
Fore
SplineSet
562.338 1556 m 257
 540.499 1496 l 257
 2596.5 1496 l 257
 2618.34 1556 l 257
 562.338 1556 l 257
2410.05 1514 m 257
 1859 0 l 257
 1920 0 l 257
 2471.05 1514 l 257
 2410.05 1514 l 257
1389.33 979 m 257
 1367.49 919 l 257
 1795.49 919 l 257
 1817.33 979 l 257
 1389.33 979 l 257
1359.33 979 m 257
 1153.68 414 l 257
 1214.68 414 l 257
 1420.33 979 l 257
 1359.33 979 l 257
1159.14 429 m 257
 1136.94 368 l 257
 2008.94 368 l 257
 2031.14 429 l 257
 1159.14 429 l 257
1006.59 1510 m 257
 500.677 120 l 257
 561.677 120 l 257
 1067.59 1510 l 257
 1006.59 1510 l 257
272.875 714 m 257
 251.036 654 l 257
 755.036 654 l 257
 776.875 714 l 257
 272.875 714 l 257
504.316 130 m 257
 482.478 70 l 257
 1882.48 70 l 257
 1904.32 130 l 257
 504.316 130 l 257
EndSplineSet
EndChar

StartChar: uni0916_uni0930_uni094D.vatu
Encoding: 65542 -1 389
GlifName: uni0916_uni0930_uni094D_.vatu
Width: 2048
VWidth: 0
GlyphClass: 3
Flags: W
LayerCount: 2
Fore
SplineSet
190 0 m 257
 447 0 l 257
 1993.94 357 l 257
 2015.41 416 l 257
 190 0 l 257
562.338 1556 m 257
 540.499 1496 l 257
 2596.5 1496 l 257
 2618.34 1556 l 257
 562.338 1556 l 257
2410.05 1514 m 257
 1859 0 l 257
 1920 0 l 257
 2471.05 1514 l 257
 2410.05 1514 l 257
1498.52 1279 m 257
 1476.68 1219 l 257
 1904.68 1219 l 257
 1926.52 1279 l 257
 1498.52 1279 l 257
1468.52 1279 m 257
 1262.88 714 l 257
 1323.88 714 l 257
 1529.52 1279 l 257
 1468.52 1279 l 257
1268.33 729 m 257
 1246.13 668 l 257
 2118.13 668 l 257
 2140.33 729 l 257
 1268.33 729 l 257
1006.59 1510 m 257
 609.867 420 l 257
 670.867 420 l 257
 1067.59 1510 l 257
 1006.59 1510 l 257
382.065 1014 m 257
 360.228 954 l 257
 864.228 954 l 257
 886.065 1014 l 257
 382.065 1014 l 257
613.507 430 m 257
 591.669 370 l 257
 1991.67 370 l 257
 2013.51 430 l 257
 613.507 430 l 257
EndSplineSet
Ligature2: "rkrfRakarVariantsinDevanagari2lookup0 subtable" uni0916 uni0930_uni094D.blwf
EndChar

StartChar: uni0916_uni094D.half
Encoding: 65543 -1 390
GlifName: uni0916_uni094D_.half
Width: 2048
VWidth: 0
GlyphClass: 3
Flags: W
LayerCount: 2
Fore
SplineSet
562.338 1556 m 257
 540.499 1496 l 257
 2596.5 1496 l 257
 2618.34 1556 l 257
 562.338 1556 l 257
1389.33 979 m 257
 1367.49 919 l 257
 1795.49 919 l 257
 1817.33 979 l 257
 1389.33 979 l 257
1359.33 979 m 257
 1153.68 414 l 257
 1214.68 414 l 257
 1420.33 979 l 257
 1359.33 979 l 257
1159.14 429 m 257
 1136.94 368 l 257
 2183.94 368 l 257
 2206.14 429 l 257
 1159.14 429 l 257
1006.59 1510 m 257
 500.677 120 l 257
 561.677 120 l 257
 1067.59 1510 l 257
 1006.59 1510 l 257
272.875 714 m 257
 251.036 654 l 257
 755.036 654 l 257
 776.875 714 l 257
 272.875 714 l 257
504.316 130 m 257
 482.478 70 l 257
 2057.48 70 l 257
 2079.32 130 l 257
 504.316 130 l 257
EndSplineSet
Ligature2: "halfHalfFormsinDevanagari2lookup0 subtable" uni0916 uni094D
EndChar

StartChar: uni0916_uni094D.haln
Encoding: 65544 -1 391
GlifName: uni0916_uni094D_.haln
Width: 2048
VWidth: 0
GlyphClass: 3
Flags: W
LayerCount: 2
Fore
SplineSet
1128.67 1556 m 257
 1085 1496 l 257
 3141 1496 l 257
 3184.67 1556 l 257
 1128.67 1556 l 257
2961.1 1514 m 257
 1859 0 l 257
 1920 0 l 257
 3022.1 1514 l 257
 2961.1 1514 l 257
1745.65 979 m 257
 1701.98 919 l 257
 2129.98 919 l 257
 2173.65 979 l 257
 1745.65 979 l 257
1715.65 979 m 257
 1304.37 414 l 257
 1365.37 414 l 257
 1776.65 979 l 257
 1715.65 979 l 257
1315.29 429 m 257
 1270.88 368 l 257
 2142.88 368 l 257
 2187.29 429 l 257
 1315.29 429 l 257
1556.19 1510 m 257
 544.354 120 l 257
 605.354 120 l 257
 1617.19 1510 l 257
 1556.19 1510 l 257
532.75 714 m 257
 489.072 654 l 257
 993.072 654 l 257
 1036.75 714 l 257
 532.75 714 l 257
551.633 130 m 257
 507.955 70 l 257
 1907.96 70 l 257
 1951.63 130 l 257
 551.633 130 l 257
1123.35 -16 m 257
 1078.95 -77 l 257
 1422.95 -77 l 257
 1467.35 -16 l 257
 1123.35 -16 l 257
1398.32 -71 m 257
 1636.72 -418 l 257
 1704.57 -366 l 257
 1468.08 -15 l 257
 1398.32 -71 l 257
EndSplineSet
Ligature2: "halnHalantFormsinDevanagari2lookup0 subtable" uni0916 uni094D
EndChar

StartChar: uni0917
Encoding: 2327 2327 392
GlifName: uni0917
Width: 2048
VWidth: 0
GlyphClass: 2
Flags: W
LayerCount: 2
Fore
SplineSet
361.467 853 m 257
 431.467 853 l 257
 500.985 1044 l 257
 430.985 1044 l 257
 361.467 853 l 257
372.021 882 m 257
 346.544 812 l 257
 1205.54 812 l 257
 1231.02 882 l 257
 372.021 882 l 257
1406.34 1556 m 257
 1135.54 812 l 257
 1205.54 812 l 257
 1476.34 1556 l 257
 1406.34 1556 l 257
2563.7 1557 m 257
 1288.7 1557 l 257
 1266.5 1496 l 257
 2541.5 1496 l 257
 2563.7 1557 l 257
2400.33 1523 m 257
 1846 0 l 257
 1916 0 l 257
 2470.33 1523 l 257
 2400.33 1523 l 257
EndSplineSet
EndChar

StartChar: uni0917_uni0930_uni094D.vatu
Encoding: 65545 -1 393
GlifName: uni0917_uni0930_uni094D_.vatu
Width: 2048
VWidth: 0
GlyphClass: 3
Flags: W
LayerCount: 2
Fore
SplineSet
196 0 m 257
 453 0 l 257
 1999.94 357 l 257
 2021.41 416 l 257
 196 0 l 257
361.467 853 m 257
 431.467 853 l 257
 500.985 1044 l 257
 430.985 1044 l 257
 361.467 853 l 257
372.021 882 m 257
 346.544 812 l 257
 1205.54 812 l 257
 1231.02 882 l 257
 372.021 882 l 257
1406.34 1556 m 257
 1135.54 812 l 257
 1205.54 812 l 257
 1476.34 1556 l 257
 1406.34 1556 l 257
2563.7 1557 m 257
 1288.7 1557 l 257
 1266.5 1496 l 257
 2541.5 1496 l 257
 2563.7 1557 l 257
2400.33 1523 m 257
 1846 0 l 257
 1916 0 l 257
 2470.33 1523 l 257
 2400.33 1523 l 257
EndSplineSet
Ligature2: "rkrfRakarVariantsinDevanagari2lookup0 subtable" uni0917 uni0930_uni094D.blwf
EndChar

StartChar: uni0917_uni094D.half
Encoding: 65546 -1 394
GlifName: uni0917_uni094D_.half
Width: 2048
VWidth: 0
GlyphClass: 3
Flags: W
LayerCount: 2
Fore
SplineSet
361.467 853 m 257
 431.467 853 l 257
 500.985 1044 l 257
 430.985 1044 l 257
 361.467 853 l 257
372.021 882 m 257
 346.544 812 l 257
 1205.54 812 l 257
 1231.02 882 l 257
 372.021 882 l 257
1406.34 1556 m 257
 1135.54 812 l 257
 1205.54 812 l 257
 1476.34 1556 l 257
 1406.34 1556 l 257
2618.7 1557 m 257
 1288.7 1557 l 257
 1266.5 1496 l 257
 2596.5 1496 l 257
 2618.7 1557 l 257
EndSplineSet
Ligature2: "halfHalfFormsinDevanagari2lookup0 subtable" uni0917 uni094D
EndChar

StartChar: uni0917_uni094D.haln
Encoding: 65547 -1 395
GlifName: uni0917_uni094D_.haln
Width: 2048
VWidth: 0
GlyphClass: 3
Flags: W
LayerCount: 2
Fore
SplineSet
671.934 853 m 257
 741.934 853 l 257
 880.97 1044 l 257
 810.97 1044 l 257
 671.934 853 l 257
693.043 882 m 257
 642.088 812 l 257
 1501.09 812 l 257
 1552.04 882 l 257
 693.043 882 l 257
1972.67 1556 m 257
 1431.09 812 l 257
 1501.09 812 l 257
 2042.67 1556 l 257
 1972.67 1556 l 257
3130.4 1557 m 257
 1855.4 1557 l 257
 1811 1496 l 257
 3086 1496 l 257
 3130.4 1557 l 257
2954.65 1523 m 257
 1846 0 l 257
 1916 0 l 257
 3024.65 1523 l 257
 2954.65 1523 l 257
1523.35 -16 m 257
 1478.95 -77 l 257
 1822.95 -77 l 257
 1867.35 -16 l 257
 1523.35 -16 l 257
1798.32 -71 m 257
 2036.72 -418 l 257
 2104.57 -366 l 257
 1868.08 -15 l 257
 1798.32 -71 l 257
EndSplineSet
Ligature2: "halnHalantFormsinDevanagari2lookup0 subtable" uni0917 uni094D
EndChar

StartChar: uni0918
Encoding: 2328 2328 396
GlifName: uni0918
Width: 2048
VWidth: 0
GlyphClass: 2
Flags: W
LayerCount: 2
Fore
SplineSet
565.246 1553 m 257
 544.136 1495 l 257
 2590.14 1495 l 257
 2611.25 1553 l 257
 565.246 1553 l 257
2419.96 1522 m 257
 1870.73 13 l 257
 1930.73 13 l 257
 2479.96 1522 l 257
 2419.96 1522 l 257
725.415 1515 m 257
 486.65 859 l 257
 544.65 859 l 257
 783.415 1515 l 257
 725.415 1515 l 257
533.562 867 m 257
 511.724 807 l 257
 1267.72 807 l 257
 1289.56 867 l 257
 533.562 867 l 257
299.382 328 m 257
 277.908 269 l 257
 1999.91 269 l 257
 2021.38 328 l 257
 299.382 328 l 257
271.908 269 m 257
 331.908 269 l 257
 530.271 814 l 257
 470.271 814 l 257
 271.908 269 l 257
EndSplineSet
EndChar

StartChar: uni0918_uni0930_uni094D.vatu
Encoding: 65548 -1 397
GlifName: uni0918_uni0930_uni094D_.vatu
Width: 2048
VWidth: 0
GlyphClass: 3
Flags: W
LayerCount: 2
Fore
SplineSet
201.165 -49 m 257
 458.165 -49 l 257
 2005.1 308 l 257
 2026.58 367 l 257
 201.165 -49 l 257
565.246 1553 m 257
 544.136 1495 l 257
 2590.14 1495 l 257
 2611.25 1553 l 257
 565.246 1553 l 257
2419.96 1522 m 257
 1870.73 13 l 257
 1930.73 13 l 257
 2479.96 1522 l 257
 2419.96 1522 l 257
725.415 1515 m 257
 486.65 859 l 257
 544.65 859 l 257
 783.415 1515 l 257
 725.415 1515 l 257
533.562 867 m 257
 511.724 807 l 257
 1267.72 807 l 257
 1289.56 867 l 257
 533.562 867 l 257
320.129 385 m 257
 298.654 326 l 257
 2020.65 326 l 257
 2042.13 385 l 257
 320.129 385 l 257
295.93 335 m 257
 355.93 335 l 257
 530.271 814 l 257
 470.271 814 l 257
 295.93 335 l 257
EndSplineSet
Ligature2: "rkrfRakarVariantsinDevanagari2lookup0 subtable" uni0918 uni0930_uni094D.blwf
EndChar

StartChar: uni0918_uni094D.half
Encoding: 65549 -1 398
GlifName: uni0918_uni094D_.half
Width: 2048
VWidth: 0
GlyphClass: 3
Flags: W
LayerCount: 2
Fore
SplineSet
565.246 1553 m 257
 544.136 1495 l 257
 2590.14 1495 l 257
 2611.25 1553 l 257
 565.246 1553 l 257
725.415 1515 m 257
 486.65 859 l 257
 544.65 859 l 257
 783.415 1515 l 257
 725.415 1515 l 257
533.562 867 m 257
 511.724 807 l 257
 1267.72 807 l 257
 1289.56 867 l 257
 533.562 867 l 257
299.382 328 m 257
 277.908 269 l 257
 2199.91 269 l 257
 2221.38 328 l 257
 299.382 328 l 257
271.908 269 m 257
 331.908 269 l 257
 530.271 814 l 257
 470.271 814 l 257
 271.908 269 l 257
EndSplineSet
Ligature2: "halfHalfFormsinDevanagari2lookup0 subtable" uni0918 uni094D
EndChar

StartChar: uni0918_uni094D.haln
Encoding: 65550 -1 399
GlifName: uni0918_uni094D_.haln
Width: 2048
VWidth: 0
GlyphClass: 3
Flags: W
LayerCount: 2
Fore
SplineSet
1130.49 1553 m 257
 1088.27 1495 l 257
 3134.27 1495 l 257
 3176.49 1553 l 257
 1130.49 1553 l 257
2973.92 1522 m 257
 1875.46 13 l 257
 1935.46 13 l 257
 3033.92 1522 l 257
 2973.92 1522 l 257
1276.83 1515 m 257
 799.301 859 l 257
 857.301 859 l 257
 1334.83 1515 l 257
 1276.83 1515 l 257
849.124 867 m 257
 805.447 807 l 257
 1561.45 807 l 257
 1605.12 867 l 257
 849.124 867 l 257
418.764 328 m 257
 375.816 269 l 257
 2097.82 269 l 257
 2140.76 328 l 257
 418.764 328 l 257
369.816 269 m 257
 429.816 269 l 257
 826.543 814 l 257
 766.543 814 l 257
 369.816 269 l 257
1247.35 -16 m 257
 1202.95 -77 l 257
 1546.95 -77 l 257
 1591.35 -16 l 257
 1247.35 -16 l 257
1522.32 -71 m 257
 1760.72 -418 l 257
 1828.57 -366 l 257
 1592.08 -15 l 257
 1522.32 -71 l 257
EndSplineSet
Ligature2: "halnHalantFormsinDevanagari2lookup0 subtable" uni0918 uni094D
EndChar

StartChar: uni0919
Encoding: 2329 2329 400
GlifName: uni0919
Width: 2048
VWidth: 0
GlyphClass: 2
Flags: W
LayerCount: 2
Fore
SplineSet
565.246 1553 m 257
 543.771 1494 l 257
 2593.77 1494 l 257
 2615.25 1553 l 257
 565.246 1553 l 257
1724.61 1543 m 257
 1536.43 1026 l 257
 1596.43 1026 l 257
 1784.61 1543 l 257
 1724.61 1543 l 257
1609.27 1086 m 257
 634.271 1086 l 257
 612.434 1026 l 257
 1587.43 1026 l 257
 1609.27 1086 l 257
621.18 1083 m 257
 455.938 629 l 257
 527.938 629 l 257
 693.18 1083 l 257
 621.18 1083 l 257
480.5 680 m 257
 458.661 620 l 257
 1525.66 620 l 257
 1547.5 680 l 257
 480.5 680 l 257
1484.5 680 m 257
 1247.55 29 l 257
 1310.55 29 l 257
 1547.5 680 l 257
 1484.5 680 l 257
136.202 61 m 257
 114 0 l 257
 1301 0 l 257
 1323.2 61 l 257
 136.202 61 l 257
187.522 202 m 257
 116.912 8 l 257
 176.912 8 l 257
 247.522 202 l 257
 187.522 202 l 257
1623.86 931 m 257
 1588.92 835 l 257
 1684.92 835 l 257
 1719.86 931 l 257
 1623.86 931 l 257
EndSplineSet
EndChar

StartChar: uni0919_uni0930_uni094D.vatu
Encoding: 65551 -1 401
GlifName: uni0919_uni0930_uni094D_.vatu
Width: 2048
VWidth: 0
GlyphClass: 3
Flags: W
LayerCount: 2
Fore
SplineSet
1006.95 129 m 257
 1066.57 -210 l 257
 1134.57 -210 l 257
 1075.34 196 l 257
 1006.95 129 l 257
1075.34 196 m 257
 672.298 -197 l 257
 740.298 -197 l 257
 1083.86 137 l 257
 1075.34 196 l 257
565.246 1553 m 257
 543.771 1494 l 257
 2593.77 1494 l 257
 2615.25 1553 l 257
 565.246 1553 l 257
1724.61 1543 m 257
 1645.62 1326 l 257
 1705.62 1326 l 257
 1784.61 1543 l 257
 1724.61 1543 l 257
1718.46 1386 m 257
 743.463 1386 l 257
 721.625 1326 l 257
 1696.62 1326 l 257
 1718.46 1386 l 257
730.371 1383 m 257
 565.128 929 l 257
 637.128 929 l 257
 802.371 1383 l 257
 730.371 1383 l 257
589.69 980 m 257
 567.853 920 l 257
 1634.85 920 l 257
 1656.69 980 l 257
 589.69 980 l 257
1593.69 980 m 257
 1356.75 329 l 257
 1419.75 329 l 257
 1656.69 980 l 257
 1593.69 980 l 257
245.394 361 m 257
 223.191 300 l 257
 1410.19 300 l 257
 1432.39 361 l 257
 245.394 361 l 257
296.713 502 m 257
 226.103 308 l 257
 286.103 308 l 257
 356.713 502 l 257
 296.713 502 l 257
1733.05 1231 m 257
 1698.11 1135 l 257
 1794.11 1135 l 257
 1829.05 1231 l 257
 1733.05 1231 l 257
EndSplineSet
Ligature2: "rkrfRakarVariantsinDevanagari2lookup0 subtable" uni0919 uni0930_uni094D.blwf
EndChar

StartChar: uni0919_uni094D.half
Encoding: 65552 -1 402
GlifName: uni0919_uni094D_.half
Width: 2048
VWidth: 0
GlyphClass: 3
Flags: W
LayerCount: 2
Fore
SplineSet
565.246 1553 m 257
 543.771 1494 l 257
 2593.77 1494 l 257
 2615.25 1553 l 257
 565.246 1553 l 257
1724.61 1543 m 257
 1536.43 1026 l 257
 1596.43 1026 l 257
 1784.61 1543 l 257
 1724.61 1543 l 257
1609.27 1086 m 257
 634.271 1086 l 257
 612.434 1026 l 257
 1587.43 1026 l 257
 1609.27 1086 l 257
621.18 1083 m 257
 455.938 629 l 257
 527.938 629 l 257
 693.18 1083 l 257
 621.18 1083 l 257
480.5 680 m 257
 458.661 620 l 257
 1525.66 620 l 257
 1547.5 680 l 257
 480.5 680 l 257
1484.5 680 m 257
 1356.75 329 l 257
 1419.75 329 l 257
 1547.5 680 l 257
 1484.5 680 l 257
245.394 361 m 257
 223.191 300 l 257
 1410.19 300 l 257
 1432.39 361 l 257
 245.394 361 l 257
296.713 502 m 257
 226.103 308 l 257
 286.103 308 l 257
 356.713 502 l 257
 296.713 502 l 257
1623.86 931 m 257
 1588.92 835 l 257
 1684.92 835 l 257
 1719.86 931 l 257
 1623.86 931 l 257
1362.37 284 m 257
 1340.17 223 l 257
 1684.17 223 l 257
 1706.37 284 l 257
 1362.37 284 l 257
1657.35 229 m 257
 2022.05 -118 l 257
 2070.98 -66 l 257
 1706.73 285 l 257
 1657.35 229 l 257
EndSplineSet
Ligature2: "halfHalfFormsinDevanagari2lookup0 subtable" uni0919 uni094D
EndChar

StartChar: uni0919_uni094D.haln
Encoding: 65553 -1 403
GlifName: uni0919_uni094D_.haln
Width: 2048
VWidth: 0
GlyphClass: 3
Flags: W
LayerCount: 2
Fore
SplineSet
1130.49 1553 m 257
 1087.54 1494 l 257
 3137.54 1494 l 257
 3180.49 1553 l 257
 1130.49 1553 l 257
2286.21 1543 m 257
 1909.87 1026 l 257
 1969.87 1026 l 257
 2346.21 1543 l 257
 2286.21 1543 l 257
2004.54 1086 m 257
 1029.54 1086 l 257
 985.867 1026 l 257
 1960.87 1026 l 257
 2004.54 1086 l 257
1015.36 1083 m 257
 684.875 629 l 257
 756.875 629 l 257
 1087.36 1083 l 257
 1015.36 1083 l 257
728 680 m 257
 684.322 620 l 257
 1751.32 620 l 257
 1795 680 l 257
 728 680 l 257
1732 680 m 257
 1258.11 29 l 257
 1321.11 29 l 257
 1795 680 l 257
 1732 680 l 257
158.404 61 m 257
 114 0 l 257
 1301 0 l 257
 1345.4 61 l 257
 158.404 61 l 257
261.044 202 m 257
 119.824 8 l 257
 179.824 8 l 257
 321.044 202 l 257
 261.044 202 l 257
1962.71 931 m 257
 1892.83 835 l 257
 1988.83 835 l 257
 2058.71 931 l 257
 1962.71 931 l 257
1247.35 -16 m 257
 1202.95 -77 l 257
 1546.95 -77 l 257
 1591.35 -16 l 257
 1247.35 -16 l 257
1522.32 -71 m 257
 1760.72 -418 l 257
 1828.57 -366 l 257
 1592.08 -15 l 257
 1522.32 -71 l 257
EndSplineSet
Ligature2: "halnHalantFormsinDevanagari2lookup0 subtable" uni0919 uni094D
EndChar

StartChar: uni091A
Encoding: 2330 2330 404
GlifName: uni091A_
Width: 2048
VWidth: 0
GlyphClass: 2
Flags: W
LayerCount: 2
Fore
SplineSet
566.338 1556 m 257
 544.863 1497 l 257
 2592.86 1497 l 257
 2614.34 1556 l 257
 566.338 1556 l 257
2368.25 1553 m 257
 1803 0 l 257
 1862 0 l 257
 2427.25 1553 l 257
 2368.25 1553 l 257
1982.23 421 m 257
 2003.71 480 l 257
 982.706 480 l 257
 961.231 421 l 257
 1982.23 421 l 257
1112.64 837 m 257
 961.231 421 l 257
 1020.23 421 l 257
 1171.64 837 l 257
 1112.64 837 l 257
382.103 852 m 257
 359.9 791 l 257
 1296.9 791 l 257
 1319.1 852 l 257
 382.103 852 l 257
EndSplineSet
EndChar

StartChar: uni091A_uni0930_uni094D.vatu
Encoding: 65554 -1 405
GlifName: uni091A__uni0930_uni094D_.vatu
Width: 2048
VWidth: 0
GlyphClass: 3
Flags: W
LayerCount: 2
Fore
SplineSet
126 0 m 257
 383 0 l 257
 1929.94 357 l 257
 1951.41 416 l 257
 126 0 l 257
566.338 1556 m 257
 544.863 1497 l 257
 2592.86 1497 l 257
 2614.34 1556 l 257
 566.338 1556 l 257
2368.25 1553 m 257
 1803 0 l 257
 1862 0 l 257
 2427.25 1553 l 257
 2368.25 1553 l 257
1982.23 421 m 257
 2003.71 480 l 257
 982.706 480 l 257
 961.231 421 l 257
 1982.23 421 l 257
1112.64 837 m 257
 961.231 421 l 257
 1020.23 421 l 257
 1171.64 837 l 257
 1112.64 837 l 257
382.103 852 m 257
 359.9 791 l 257
 1296.9 791 l 257
 1319.1 852 l 257
 382.103 852 l 257
EndSplineSet
Ligature2: "rkrfRakarVariantsinDevanagari2lookup0 subtable" uni091A uni0930_uni094D.blwf
EndChar

StartChar: uni091A_uni094D.half
Encoding: 65555 -1 406
GlifName: uni091A__uni094D_.half
Width: 2048
VWidth: 0
GlyphClass: 3
Flags: W
LayerCount: 2
Fore
SplineSet
566.338 1556 m 257
 544.863 1497 l 257
 2592.86 1497 l 257
 2614.34 1556 l 257
 566.338 1556 l 257
2282.23 421 m 257
 2303.71 480 l 257
 1282.71 480 l 257
 1261.23 421 l 257
 2282.23 421 l 257
1412.64 837 m 257
 1261.23 421 l 257
 1320.23 421 l 257
 1471.64 837 l 257
 1412.64 837 l 257
682.103 852 m 257
 659.9 791 l 257
 1596.9 791 l 257
 1619.1 852 l 257
 682.103 852 l 257
EndSplineSet
Ligature2: "halfHalfFormsinDevanagari2lookup0 subtable" uni091A uni094D
EndChar

StartChar: uni091A_uni094D.haln
Encoding: 65556 -1 407
GlifName: uni091A__uni094D_.haln
Width: 2048
VWidth: 0
GlyphClass: 3
Flags: W
LayerCount: 2
Fore
SplineSet
1132.67 1556 m 257
 1089.73 1497 l 257
 3137.73 1497 l 257
 3180.67 1556 l 257
 1132.67 1556 l 257
2933.49 1553 m 257
 1803 0 l 257
 1862 0 l 257
 2992.49 1553 l 257
 2933.49 1553 l 257
2135.46 421 m 257
 2178.41 480 l 257
 1157.41 480 l 257
 1114.46 421 l 257
 2135.46 421 l 257
1417.29 837 m 257
 1114.46 421 l 257
 1173.46 421 l 257
 1476.29 837 l 257
 1417.29 837 l 257
692.205 852 m 257
 647.801 791 l 257
 1584.8 791 l 257
 1629.21 852 l 257
 692.205 852 l 257
1247.35 -16 m 257
 1202.95 -77 l 257
 1546.95 -77 l 257
 1591.35 -16 l 257
 1247.35 -16 l 257
1522.32 -71 m 257
 1760.72 -418 l 257
 1828.57 -366 l 257
 1592.08 -15 l 257
 1522.32 -71 l 257
EndSplineSet
Ligature2: "halnHalantFormsinDevanagari2lookup0 subtable" uni091A uni094D
EndChar

StartChar: uni091B
Encoding: 2331 2331 408
GlifName: uni091B_
Width: 2048
VWidth: 0
GlyphClass: 2
Flags: W
LayerCount: 2
Fore
SplineSet
562.246 1553 m 257
 541.136 1495 l 257
 2595.14 1495 l 257
 2616.25 1553 l 257
 562.246 1553 l 257
1143.56 1128 m 257
 558.559 1128 l 257
 537.084 1069 l 257
 1122.08 1069 l 257
 1143.56 1128 l 257
549.559 1128 m 257
 334.816 538 l 257
 394.816 538 l 257
 609.559 1128 l 257
 549.559 1128 l 257
369.092 547 m 257
 347.254 487 l 257
 910.254 487 l 257
 932.092 547 l 257
 369.092 547 l 257
320.349 501 m 257
 138 0 l 257
 198 0 l 257
 380.349 501 l 257
 320.349 501 l 257
215.475 59 m 257
 194 0 l 257
 1541 0 l 257
 1562.47 59 l 257
 215.475 59 l 257
1484.18 6 m 257
 1543.18 6 l 257
 2092.42 1515 l 257
 2033.42 1515 l 257
 1484.18 6 l 257
1690.29 869 m 257
 1668.09 808 l 257
 2326.09 808 l 257
 2348.29 869 l 257
 1690.29 869 l 257
2288.93 868 m 257
 2144.43 471 l 257
 2203.43 471 l 257
 2347.93 868 l 257
 2288.93 868 l 257
EndSplineSet
EndChar

StartChar: uni091B_uni0930_uni094D.vatu
Encoding: 65557 -1 409
GlifName: uni091B__uni0930_uni094D_.vatu
Width: 2048
VWidth: 0
GlyphClass: 3
Flags: W
LayerCount: 2
Fore
SplineSet
126 0 m 257
 383 0 l 257
 1634.1 286 l 257
 1655.57 345 l 257
 126 0 l 257
562.246 1553 m 257
 541.136 1495 l 257
 2595.14 1495 l 257
 2616.25 1553 l 257
 562.246 1553 l 257
1252.75 1428 m 257
 667.749 1428 l 257
 646.275 1369 l 257
 1231.28 1369 l 257
 1252.75 1428 l 257
658.749 1428 m 257
 444.007 838 l 257
 504.007 838 l 257
 718.749 1428 l 257
 658.749 1428 l 257
478.283 847 m 257
 456.444 787 l 257
 1019.44 787 l 257
 1041.28 847 l 257
 478.283 847 l 257
429.54 801 m 257
 261.386 339 l 257
 321.386 339 l 257
 489.54 801 l 257
 429.54 801 l 257
340.316 402 m 257
 318.842 343 l 257
 1665.84 343 l 257
 1687.32 402 l 257
 340.316 402 l 257
1484.18 6 m 257
 1543.18 6 l 257
 2092.42 1515 l 257
 2033.42 1515 l 257
 1484.18 6 l 257
1799.48 1169 m 257
 1777.28 1108 l 257
 2435.28 1108 l 257
 2457.48 1169 l 257
 1799.48 1169 l 257
2398.12 1168 m 257
 2253.62 771 l 257
 2312.62 771 l 257
 2457.12 1168 l 257
 2398.12 1168 l 257
EndSplineSet
Ligature2: "rkrfRakarVariantsinDevanagari2lookup0 subtable" uni091B uni0930_uni094D.blwf
EndChar

StartChar: uni091B_uni094D.half
Encoding: 65558 -1 410
GlifName: uni091B__uni094D_.half
Width: 2048
VWidth: 0
GlyphClass: 3
Flags: W
LayerCount: 2
Fore
SplineSet
562.246 1553 m 257
 541.136 1495 l 257
 2595.14 1495 l 257
 2616.25 1553 l 257
 562.246 1553 l 257
1543.56 1128 m 257
 958.559 1128 l 257
 937.084 1069 l 257
 1522.08 1069 l 257
 1543.56 1128 l 257
949.559 1128 m 257
 734.816 538 l 257
 794.816 538 l 257
 1009.56 1128 l 257
 949.559 1128 l 257
769.092 547 m 257
 747.254 487 l 257
 1310.25 487 l 257
 1332.09 547 l 257
 769.092 547 l 257
720.349 501 m 257
 538 0 l 257
 598 0 l 257
 780.349 501 l 257
 720.349 501 l 257
615.475 59 m 257
 594 0 l 257
 2041 0 l 257
 2062.47 59 l 257
 615.475 59 l 257
EndSplineSet
Ligature2: "halfHalfFormsinDevanagari2lookup0 subtable" uni091B uni094D
EndChar

StartChar: uni091B_uni094D.haln
Encoding: 65559 -1 411
GlifName: uni091B__uni094D_.haln
Width: 2048
VWidth: 0
GlyphClass: 3
Flags: W
LayerCount: 2
Fore
SplineSet
1127.49 1553 m 257
 1085.27 1495 l 257
 3139.27 1495 l 257
 3181.49 1553 l 257
 1127.49 1553 l 257
1554.12 1128 m 257
 969.117 1128 l 257
 926.168 1069 l 257
 1511.17 1069 l 257
 1554.12 1128 l 257
960.117 1128 m 257
 530.632 538 l 257
 590.632 538 l 257
 1020.12 1128 l 257
 960.117 1128 l 257
568.184 547 m 257
 524.507 487 l 257
 1087.51 487 l 257
 1131.18 547 l 257
 568.184 547 l 257
502.697 501 m 257
 138 0 l 257
 198 0 l 257
 562.697 501 l 257
 502.697 501 l 257
236.949 59 m 257
 194 0 l 257
 1541 0 l 257
 1583.95 59 l 257
 236.949 59 l 257
1486.37 6 m 257
 1545.37 6 l 257
 2643.83 1515 l 257
 2584.83 1515 l 257
 1486.37 6 l 257
2006.58 869 m 257
 1962.18 808 l 257
 2620.18 808 l 257
 2664.58 869 l 257
 2006.58 869 l 257
2604.85 868 m 257
 2315.86 471 l 257
 2374.86 471 l 257
 2663.85 868 l 257
 2604.85 868 l 257
1197.99 -6 m 257
 1153.59 -67 l 257
 1497.59 -67 l 257
 1541.99 -6 l 257
 1197.99 -6 l 257
1472.96 -61 m 257
 1711.36 -408 l 257
 1779.21 -356 l 257
 1542.72 -5 l 257
 1472.96 -61 l 257
EndSplineSet
Ligature2: "halnHalantFormsinDevanagari2lookup0 subtable" uni091B uni094D
EndChar

StartChar: uni091C
Encoding: 2332 2332 412
GlifName: uni091C_
Width: 2048
VWidth: 0
GlyphClass: 2
Flags: W
LayerCount: 2
Fore
SplineSet
547.154 1550 m 257
 526.044 1492 l 257
 2608.04 1492 l 257
 2629.15 1550 l 257
 547.154 1550 l 257
2421.15 1550 m 257
 1852.63 -12 l 257
 1913.63 -12 l 257
 2482.15 1550 l 257
 2421.15 1550 l 257
1343.01 860 m 257
 1321.54 801 l 257
 2169.54 801 l 257
 2191.01 860 l 257
 1343.01 860 l 257
1333.01 860 m 257
 1206.35 512 l 257
 1266.35 512 l 257
 1393.01 860 l 257
 1333.01 860 l 257
264.371 567 m 257
 242.896 508 l 257
 1264.9 508 l 257
 1286.37 567 l 257
 264.371 567 l 257
322.606 727 m 257
 243.261 509 l 257
 303.261 509 l 257
 382.606 727 l 257
 322.606 727 l 257
EndSplineSet
EndChar

StartChar: uni091C_uni0930_uni094D.vatu
Encoding: 65560 -1 413
GlifName: uni091C__uni0930_uni094D_.vatu
Width: 2048
VWidth: 0
GlyphClass: 3
Flags: W
LayerCount: 2
Fore
SplineSet
191 0 m 257
 448 0 l 257
 1994.94 357 l 257
 2016.41 416 l 257
 191 0 l 257
547.154 1550 m 257
 526.044 1492 l 257
 2608.04 1492 l 257
 2629.15 1550 l 257
 547.154 1550 l 257
2421.15 1550 m 257
 1852.63 -12 l 257
 1913.63 -12 l 257
 2482.15 1550 l 257
 2421.15 1550 l 257
1343.01 860 m 257
 1321.54 801 l 257
 2169.54 801 l 257
 2191.01 860 l 257
 1343.01 860 l 257
1333.01 860 m 257
 1206.35 512 l 257
 1266.35 512 l 257
 1393.01 860 l 257
 1333.01 860 l 257
264.371 567 m 257
 242.896 508 l 257
 1264.9 508 l 257
 1286.37 567 l 257
 264.371 567 l 257
322.606 727 m 257
 243.261 509 l 257
 303.261 509 l 257
 382.606 727 l 257
 322.606 727 l 257
EndSplineSet
Ligature2: "rkrfRakarVariantsinDevanagari2lookup0 subtable" uni091C uni0930_uni094D.blwf
EndChar

StartChar: uni091C_uni094D.half
Encoding: 65561 -1 414
GlifName: uni091C__uni094D_.half
Width: 2048
VWidth: 0
GlyphClass: 3
Flags: W
LayerCount: 2
Fore
SplineSet
547.154 1550 m 257
 526.044 1492 l 257
 2608.04 1492 l 257
 2629.15 1550 l 257
 547.154 1550 l 257
1618.01 860 m 257
 1596.54 801 l 257
 2444.54 801 l 257
 2466.01 860 l 257
 1618.01 860 l 257
1608.01 860 m 257
 1481.35 512 l 257
 1541.35 512 l 257
 1668.01 860 l 257
 1608.01 860 l 257
539.371 567 m 257
 517.896 508 l 257
 1539.9 508 l 257
 1561.37 567 l 257
 539.371 567 l 257
597.606 727 m 257
 518.261 509 l 257
 578.261 509 l 257
 657.606 727 l 257
 597.606 727 l 257
EndSplineSet
Ligature2: "halfHalfFormsinDevanagari2lookup0 subtable" uni091C uni094D
EndChar

StartChar: uni091C_uni094D.haln
Encoding: 65562 -1 415
GlifName: uni091C__uni094D_.haln
Width: 2048
VWidth: 0
GlyphClass: 3
Flags: W
LayerCount: 2
Fore
SplineSet
1111.31 1550 m 257
 1069.09 1492 l 257
 3151.09 1492 l 257
 3193.31 1550 l 257
 1111.31 1550 l 257
2985.31 1550 m 257
 1848.27 -12 l 257
 1909.27 -12 l 257
 3046.31 1550 l 257
 2985.31 1550 l 257
1656.03 860 m 257
 1613.08 801 l 257
 2461.08 801 l 257
 2504.03 860 l 257
 1656.03 860 l 257
1646.03 860 m 257
 1392.71 512 l 257
 1452.71 512 l 257
 1706.03 860 l 257
 1646.03 860 l 257
470.742 567 m 257
 427.793 508 l 257
 1449.79 508 l 257
 1492.74 567 l 257
 470.742 567 l 257
587.213 727 m 257
 428.521 509 l 257
 488.521 509 l 257
 647.213 727 l 257
 587.213 727 l 257
1247.35 -16 m 257
 1202.95 -77 l 257
 1546.95 -77 l 257
 1591.35 -16 l 257
 1247.35 -16 l 257
1522.32 -71 m 257
 1760.72 -418 l 257
 1828.57 -366 l 257
 1592.08 -15 l 257
 1522.32 -71 l 257
EndSplineSet
Ligature2: "halnHalantFormsinDevanagari2lookup0 subtable" uni091C uni094D
EndChar

StartChar: uni091C_uni094D_uni091E.akhn
Encoding: 65563 -1 416
GlifName: uni091C__uni094D__uni091E_.akhn
Width: 2048
VWidth: 0
GlyphClass: 3
Flags: W
LayerCount: 2
Fore
SplineSet
551.154 1550 m 257
 528.588 1488 l 257
 2589.59 1488 l 257
 2612.15 1550 l 257
 551.154 1550 l 257
2405.15 1550 m 257
 1836.63 -12 l 257
 1896.63 -12 l 257
 2465.15 1550 l 257
 2405.15 1550 l 257
1222.01 860 m 257
 1200.18 800 l 257
 2152.18 800 l 257
 2174.01 860 l 257
 1222.01 860 l 257
1176.01 860 m 257
 1013.32 413 l 257
 1072.32 413 l 257
 1235.01 860 l 257
 1176.01 860 l 257
196.779 428 m 257
 174.577 367 l 257
 1055.58 367 l 257
 1077.78 428 l 257
 196.779 428 l 257
174.941 368 m 257
 528.298 75 l 257
 617.298 75 l 257
 248.941 368 l 257
 174.941 368 l 257
EndSplineSet
Ligature2: "akhnAkhandinDevanagari2lookup0 subtable" uni091C uni094D uni091E
EndChar

StartChar: uni091C_uni094D_uni091E.half
Encoding: 65564 -1 417
GlifName: uni091C__uni094D__uni091E_.half
Width: 2048
VWidth: 0
GlyphClass: 3
Flags: W
LayerCount: 2
Fore
SplineSet
551.154 1550 m 257
 528.588 1488 l 257
 2589.59 1488 l 257
 2612.15 1550 l 257
 551.154 1550 l 257
1222.01 860 m 257
 1200.18 800 l 257
 2352.18 800 l 257
 2374.01 860 l 257
 1222.01 860 l 257
1176.01 860 m 257
 1013.32 413 l 257
 1072.32 413 l 257
 1235.01 860 l 257
 1176.01 860 l 257
196.779 428 m 257
 174.577 367 l 257
 1055.58 367 l 257
 1077.78 428 l 257
 196.779 428 l 257
174.941 368 m 257
 528.298 75 l 257
 617.298 75 l 257
 248.941 368 l 257
 174.941 368 l 257
EndSplineSet
Ligature2: "halfHalfFormsinDevanagari2lookup0 subtable" uni091C_uni094D_uni091E.akhn uni094D
EndChar

StartChar: uni091C_uni094D_uni091E_uni094D
Encoding: 65565 -1 418
GlifName: uni091C__uni094D__uni091E__uni094D_
Width: 2048
VWidth: 0
GlyphClass: 3
Flags: W
LayerCount: 2
Fore
SplineSet
1115.31 1550 m 257
 1070.17 1488 l 257
 3131.17 1488 l 257
 3176.31 1550 l 257
 1115.31 1550 l 257
2969.31 1550 m 257
 1832.27 -12 l 257
 1892.27 -12 l 257
 3029.31 1550 l 257
 2969.31 1550 l 257
1535.03 860 m 257
 1491.35 800 l 257
 2443.35 800 l 257
 2487.03 860 l 257
 1535.03 860 l 257
1489.03 860 m 257
 1163.64 413 l 257
 1222.64 413 l 257
 1548.03 860 l 257
 1489.03 860 l 257
352.559 428 m 257
 308.154 367 l 257
 1189.15 367 l 257
 1233.56 428 l 257
 352.559 428 l 257
308.883 368 m 257
 555.596 75 l 257
 644.596 75 l 257
 382.883 368 l 257
 308.883 368 l 257
1247.35 -16 m 257
 1202.95 -77 l 257
 1546.95 -77 l 257
 1591.35 -16 l 257
 1247.35 -16 l 257
1522.32 -71 m 257
 1760.72 -418 l 257
 1828.57 -366 l 257
 1592.08 -15 l 257
 1522.32 -71 l 257
EndSplineSet
Ligature2: "halnHalantFormsinDevanagari2lookup0 subtable" uni091C_uni094D_uni091E.akhn uni094D
EndChar

StartChar: uni091D
Encoding: 2333 2333 419
GlifName: uni091D_
Width: 2048
VWidth: 0
GlyphClass: 2
Flags: W
LayerCount: 2
Fore
SplineSet
557.246 1553 m 257
 535.771 1494 l 257
 2599.77 1494 l 257
 2621.25 1553 l 257
 557.246 1553 l 257
2417.25 1553 m 257
 1850.18 -5 l 257
 1912.18 -5 l 257
 2479.25 1553 l 257
 2417.25 1553 l 257
1667.42 1537 m 257
 1480.34 1023 l 257
 1540.34 1023 l 257
 1727.42 1537 l 257
 1667.42 1537 l 257
528.544 1084 m 257
 506.342 1023 l 257
 1540.34 1023 l 257
 1562.54 1084 l 257
 528.544 1084 l 257
528.907 1085 m 257
 370.944 651 l 257
 430.944 651 l 257
 588.907 1085 l 257
 528.907 1085 l 257
388.051 698 m 257
 366.213 638 l 257
 2140.21 638 l 257
 2162.05 698 l 257
 388.051 698 l 257
1331.5 691 m 257
 1082.55 7 l 257
 1142.55 7 l 257
 1391.5 691 l 257
 1331.5 691 l 257
156.93 63 m 257
 135.092 3 l 257
 1141.09 3 l 257
 1162.93 63 l 257
 156.93 63 l 257
156.93 63 m 257
 80.1328 -148 l 257
 140.133 -148 l 257
 216.93 63 l 257
 156.93 63 l 257
EndSplineSet
EndChar

StartChar: uni091D_uni0930_uni094D.vatu
Encoding: 65566 -1 420
GlifName: uni091D__uni0930_uni094D_.vatu
Width: 2048
VWidth: 0
GlyphClass: 3
Flags: W
LayerCount: 2
Fore
SplineSet
990 0 m 257
 1174 0 l 257
 1978.26 226 l 257
 1999.73 285 l 257
 990 0 l 257
557.246 1553 m 257
 535.771 1494 l 257
 2599.77 1494 l 257
 2621.25 1553 l 257
 557.246 1553 l 257
2417.25 1553 m 257
 1850.18 -5 l 257
 1912.18 -5 l 257
 2479.25 1553 l 257
 2417.25 1553 l 257
1667.42 1537 m 257
 1480.34 1023 l 257
 1540.34 1023 l 257
 1727.42 1537 l 257
 1667.42 1537 l 257
528.544 1084 m 257
 506.342 1023 l 257
 1540.34 1023 l 257
 1562.54 1084 l 257
 528.544 1084 l 257
528.907 1085 m 257
 370.944 651 l 257
 430.944 651 l 257
 588.907 1085 l 257
 528.907 1085 l 257
388.051 698 m 257
 366.213 638 l 257
 2140.21 638 l 257
 2162.05 698 l 257
 388.051 698 l 257
1131.5 691 m 257
 882.548 7 l 257
 942.548 7 l 257
 1191.5 691 l 257
 1131.5 691 l 257
156.93 63 m 257
 135.092 3 l 257
 941.092 3 l 257
 962.93 63 l 257
 156.93 63 l 257
156.93 63 m 257
 80.1328 -148 l 257
 140.133 -148 l 257
 216.93 63 l 257
 156.93 63 l 257
EndSplineSet
Ligature2: "rkrfRakarVariantsinDevanagari2lookup0 subtable" uni091D uni0930_uni094D.blwf
EndChar

StartChar: uni091D_uni094D.half
Encoding: 65567 -1 421
GlifName: uni091D__uni094D_.half
Width: 2048
VWidth: 0
GlyphClass: 3
Flags: W
LayerCount: 2
Fore
SplineSet
557.246 1553 m 257
 535.771 1494 l 257
 2599.77 1494 l 257
 2621.25 1553 l 257
 557.246 1553 l 257
1867.42 1537 m 257
 1680.34 1023 l 257
 1740.34 1023 l 257
 1927.42 1537 l 257
 1867.42 1537 l 257
728.544 1084 m 257
 706.342 1023 l 257
 1740.34 1023 l 257
 1762.54 1084 l 257
 728.544 1084 l 257
728.907 1085 m 257
 570.944 651 l 257
 630.944 651 l 257
 788.907 1085 l 257
 728.907 1085 l 257
588.051 698 m 257
 566.213 638 l 257
 2340.21 638 l 257
 2362.05 698 l 257
 588.051 698 l 257
1531.5 691 m 257
 1282.55 7 l 257
 1342.55 7 l 257
 1591.5 691 l 257
 1531.5 691 l 257
356.93 63 m 257
 335.092 3 l 257
 1341.09 3 l 257
 1362.93 63 l 257
 356.93 63 l 257
356.93 63 m 257
 280.133 -148 l 257
 340.133 -148 l 257
 416.93 63 l 257
 356.93 63 l 257
EndSplineSet
Ligature2: "halfHalfFormsinDevanagari2lookup0 subtable" uni091D uni094D
EndChar

StartChar: uni091D_uni094D.haln
Encoding: 65568 -1 422
GlifName: uni091D__uni094D_.haln
Width: 2048
VWidth: 0
GlyphClass: 3
Flags: W
LayerCount: 2
Fore
SplineSet
1122.49 1553 m 257
 1079.54 1494 l 257
 3143.54 1494 l 257
 3186.49 1553 l 257
 1122.49 1553 l 257
2982.49 1553 m 257
 1848.36 -5 l 257
 1910.36 -5 l 257
 3044.49 1553 l 257
 2982.49 1553 l 257
2226.84 1537 m 257
 1852.68 1023 l 257
 1912.68 1023 l 257
 2286.84 1537 l 257
 2226.84 1537 l 257
923.088 1084 m 257
 878.684 1023 l 257
 1912.68 1023 l 257
 1957.09 1084 l 257
 923.088 1084 l 257
923.814 1085 m 257
 607.889 651 l 257
 667.889 651 l 257
 983.814 1085 l 257
 923.814 1085 l 257
642.102 698 m 257
 598.426 638 l 257
 2372.43 638 l 257
 2416.1 698 l 257
 642.102 698 l 257
1583.01 691 m 257
 1085.1 7 l 257
 1145.1 7 l 257
 1643.01 691 l 257
 1583.01 691 l 257
179.859 63 m 257
 136.184 3 l 257
 1142.18 3 l 257
 1185.86 63 l 257
 179.859 63 l 257
179.859 63 m 257
 26.2656 -148 l 257
 86.2656 -148 l 257
 239.859 63 l 257
 179.859 63 l 257
1247.35 -16 m 257
 1202.95 -77 l 257
 1546.95 -77 l 257
 1591.35 -16 l 257
 1247.35 -16 l 257
1522.32 -71 m 257
 1760.72 -418 l 257
 1828.57 -366 l 257
 1592.08 -15 l 257
 1522.32 -71 l 257
EndSplineSet
Ligature2: "halnHalantFormsinDevanagari2lookup0 subtable" uni091D uni094D
EndChar

StartChar: uni091E
Encoding: 2334 2334 423
GlifName: uni091E_
Width: 2048
VWidth: 0
GlyphClass: 2
Flags: W
LayerCount: 2
Fore
SplineSet
560.246 1553 m 257
 538.407 1493 l 257
 2596.41 1493 l 257
 2618.25 1553 l 257
 560.246 1553 l 257
2458.79 1538 m 257
 1896.09 -8 l 257
 1956.09 -8 l 257
 2518.79 1538 l 257
 2458.79 1538 l 257
1338.59 672 m 257
 1316.75 612 l 257
 2142.75 612 l 257
 2164.59 672 l 257
 1338.59 672 l 257
433.411 960 m 257
 411.573 900 l 257
 1420.57 900 l 257
 1442.41 960 l 257
 433.411 960 l 257
1412.41 960 m 257
 1178.01 316 l 257
 1238.01 316 l 257
 1472.41 960 l 257
 1412.41 960 l 257
177.471 320 m 257
 155.632 260 l 257
 1217.63 260 l 257
 1239.47 320 l 257
 177.471 320 l 257
EndSplineSet
EndChar

StartChar: uni091E_uni0930_uni094D.vatu
Encoding: 65569 -1 424
GlifName: uni091E__uni0930_uni094D_.vatu
Width: 2048
VWidth: 0
GlyphClass: 3
Flags: W
LayerCount: 2
Fore
SplineSet
248 0 m 257
 505 0 l 257
 2051.94 357 l 257
 2073.41 416 l 257
 248 0 l 257
560.246 1553 m 257
 538.407 1493 l 257
 2596.41 1493 l 257
 2618.25 1553 l 257
 560.246 1553 l 257
2458.79 1538 m 257
 1896.09 -8 l 257
 1956.09 -8 l 257
 2518.79 1538 l 257
 2458.79 1538 l 257
1338.59 672 m 257
 1316.75 612 l 257
 2142.75 612 l 257
 2164.59 672 l 257
 1338.59 672 l 257
433.411 960 m 257
 411.573 900 l 257
 1420.57 900 l 257
 1442.41 960 l 257
 433.411 960 l 257
1412.41 960 m 257
 1178.01 316 l 257
 1238.01 316 l 257
 1472.41 960 l 257
 1412.41 960 l 257
177.471 320 m 257
 155.632 260 l 257
 1217.63 260 l 257
 1239.47 320 l 257
 177.471 320 l 257
EndSplineSet
Ligature2: "rkrfRakarVariantsinDevanagari2lookup0 subtable" uni091E uni0930_uni094D.blwf
EndChar

StartChar: uni091E_uni094D.half
Encoding: 65570 -1 425
GlifName: uni091E__uni094D_.half
Width: 2048
VWidth: 0
GlyphClass: 3
Flags: W
LayerCount: 2
Fore
SplineSet
560.246 1553 m 257
 538.407 1493 l 257
 2596.41 1493 l 257
 2618.25 1553 l 257
 560.246 1553 l 257
1516.59 672 m 257
 1494.75 612 l 257
 2320.75 612 l 257
 2342.59 672 l 257
 1516.59 672 l 257
611.411 960 m 257
 589.573 900 l 257
 1598.57 900 l 257
 1620.41 960 l 257
 611.411 960 l 257
1590.41 960 m 257
 1356.01 316 l 257
 1416.01 316 l 257
 1650.41 960 l 257
 1590.41 960 l 257
355.471 320 m 257
 333.632 260 l 257
 1395.63 260 l 257
 1417.47 320 l 257
 355.471 320 l 257
EndSplineSet
Ligature2: "halfHalfFormsinDevanagari2lookup0 subtable" uni091E uni094D
EndChar

StartChar: uni091E_uni094D.haln
Encoding: 65571 -1 426
GlifName: uni091E__uni094D_.haln
Width: 2048
VWidth: 0
GlyphClass: 3
Flags: W
LayerCount: 2
Fore
SplineSet
1125.49 1553 m 257
 1081.81 1493 l 257
 3139.81 1493 l 257
 3183.49 1553 l 257
 1125.49 1553 l 257
3018.57 1538 m 257
 1893.18 -8 l 257
 1953.18 -8 l 257
 3078.57 1538 l 257
 3018.57 1538 l 257
1583.18 672 m 257
 1539.5 612 l 257
 2365.5 612 l 257
 2409.18 672 l 257
 1583.18 672 l 257
782.822 960 m 257
 739.146 900 l 257
 1748.15 900 l 257
 1791.82 960 l 257
 782.822 960 l 257
1761.82 960 m 257
 1293.03 316 l 257
 1353.03 316 l 257
 1821.82 960 l 257
 1761.82 960 l 257
293.941 320 m 257
 250.264 260 l 257
 1312.26 260 l 257
 1355.94 320 l 257
 293.941 320 l 257
1247.35 -16 m 257
 1202.95 -77 l 257
 1546.95 -77 l 257
 1591.35 -16 l 257
 1247.35 -16 l 257
1522.32 -71 m 257
 1760.72 -418 l 257
 1828.57 -366 l 257
 1592.08 -15 l 257
 1522.32 -71 l 257
EndSplineSet
Ligature2: "halnHalantFormsinDevanagari2lookup0 subtable" uni091E uni094D
EndChar

StartChar: uni091F
Encoding: 2335 2335 427
GlifName: uni091F_
Width: 2048
VWidth: 0
GlyphClass: 2
Flags: W
LayerCount: 2
Fore
SplineSet
570.246 1553 m 257
 548.771 1494 l 257
 2586.77 1494 l 257
 2608.25 1553 l 257
 570.246 1553 l 257
2284.15 1528 m 257
 2087.6 988 l 257
 2147.6 988 l 257
 2344.15 1528 l 257
 2284.15 1528 l 257
2160.34 1023 m 257
 487.342 1023 l 257
 465.503 963 l 257
 2138.5 963 l 257
 2160.34 1023 l 257
466.342 1023 m 257
 95.8203 5 l 257
 155.82 5 l 257
 526.342 1023 l 257
 466.342 1023 l 257
115.838 60 m 257
 94 0 l 257
 1831 0 l 257
 1852.84 60 l 257
 115.838 60 l 257
EndSplineSet
EndChar

StartChar: uni091F_uni0930_uni094D.vatu
Encoding: 65572 -1 428
GlifName: uni091F__uni0930_uni094D_.vatu
Width: 2048
VWidth: 0
GlyphClass: 3
Flags: W
LayerCount: 2
Fore
SplineSet
1040.87 159 m 257
 1100.49 -180 l 257
 1168.49 -180 l 257
 1109.26 226 l 257
 1040.87 159 l 257
1109.26 226 m 257
 706.217 -167 l 257
 774.217 -167 l 257
 1117.78 167 l 257
 1109.26 226 l 257
570.246 1553 m 257
 548.771 1494 l 257
 2586.77 1494 l 257
 2608.25 1553 l 257
 570.246 1553 l 257
2284.15 1528 m 257
 2087.6 988 l 257
 2147.6 988 l 257
 2344.15 1528 l 257
 2284.15 1528 l 257
2160.34 1023 m 257
 487.342 1023 l 257
 465.503 963 l 257
 2138.5 963 l 257
 2160.34 1023 l 257
466.342 1023 m 257
 205.011 305 l 257
 265.011 305 l 257
 526.342 1023 l 257
 466.342 1023 l 257
225.029 360 m 257
 203.191 300 l 257
 1940.19 300 l 257
 1962.03 360 l 257
 225.029 360 l 257
EndSplineSet
Ligature2: "rkrfRakarVariantsinDevanagari2lookup0 subtable" uni091F uni0930_uni094D.blwf
EndChar

StartChar: uni091F_uni094D.haln
Encoding: 65573 -1 429
GlifName: uni091F__uni094D_.haln
Width: 2048
VWidth: 0
GlyphClass: 3
Flags: W
LayerCount: 2
Fore
SplineSet
1135.49 1553 m 257
 1092.54 1494 l 257
 3130.54 1494 l 257
 3173.49 1553 l 257
 1135.49 1553 l 257
2840.29 1528 m 257
 2447.21 988 l 257
 2507.21 988 l 257
 2900.29 1528 l 257
 2840.29 1528 l 257
2532.68 1023 m 257
 859.684 1023 l 257
 816.006 963 l 257
 2489.01 963 l 257
 2532.68 1023 l 257
838.684 1023 m 257
 97.6406 5 l 257
 157.641 5 l 257
 898.684 1023 l 257
 838.684 1023 l 257
137.676 60 m 257
 94 0 l 257
 1831 0 l 257
 1874.68 60 l 257
 137.676 60 l 257
1247.35 -16 m 257
 1202.95 -77 l 257
 1546.95 -77 l 257
 1591.35 -16 l 257
 1247.35 -16 l 257
1522.32 -71 m 257
 1760.72 -418 l 257
 1828.57 -366 l 257
 1592.08 -15 l 257
 1522.32 -71 l 257
EndSplineSet
Ligature2: "halnHalantFormsinDevanagari2lookup0 subtable" uni091F uni094D
EndChar

StartChar: uni0920
Encoding: 2336 2336 430
GlifName: uni0920
Width: 2048
VWidth: 0
GlyphClass: 2
Flags: W
LayerCount: 2
Fore
SplineSet
564.154 1550 m 257
 542.315 1490 l 257
 2590.32 1490 l 257
 2612.15 1550 l 257
 564.154 1550 l 257
1659.59 1510 m 257
 1482.34 1023 l 257
 1540.34 1023 l 257
 1717.59 1510 l 257
 1659.59 1510 l 257
456.342 1023 m 257
 434.503 963 l 257
 2336.5 963 l 257
 2358.34 1023 l 257
 456.342 1023 l 257
444.342 1023 m 257
 76.7314 13 l 257
 138.731 13 l 257
 506.342 1023 l 257
 444.342 1023 l 257
2278.33 1001 m 257
 1914 0 l 257
 1986 0 l 257
 2350.33 1001 l 257
 2278.33 1001 l 257
93.1104 58 m 257
 70.9082 -3 l 257
 1964.91 -3 l 257
 1987.11 58 l 257
 93.1104 58 l 257
EndSplineSet
EndChar

StartChar: uni0920_uni0930_uni094D.vatu
Encoding: 65574 -1 431
GlifName: uni0920_uni0930_uni094D_.vatu
Width: 2048
VWidth: 0
GlyphClass: 3
Flags: W
LayerCount: 2
Fore
SplineSet
1040.87 159 m 257
 1100.49 -180 l 257
 1168.49 -180 l 257
 1109.26 226 l 257
 1040.87 159 l 257
1109.26 226 m 257
 706.217 -167 l 257
 774.217 -167 l 257
 1117.78 167 l 257
 1109.26 226 l 257
564.154 1550 m 257
 542.315 1490 l 257
 2590.32 1490 l 257
 2612.15 1550 l 257
 564.154 1550 l 257
1659.59 1510 m 257
 1482.34 1023 l 257
 1540.34 1023 l 257
 1717.59 1510 l 257
 1659.59 1510 l 257
456.342 1023 m 257
 434.503 963 l 257
 2336.5 963 l 257
 2358.34 1023 l 257
 456.342 1023 l 257
444.342 1023 m 257
 185.923 313 l 257
 247.923 313 l 257
 506.342 1023 l 257
 444.342 1023 l 257
2278.33 1001 m 257
 2022.46 298 l 257
 2094.46 298 l 257
 2350.33 1001 l 257
 2278.33 1001 l 257
202.302 358 m 257
 180.1 297 l 257
 2074.1 297 l 257
 2096.3 358 l 257
 202.302 358 l 257
EndSplineSet
Ligature2: "rkrfRakarVariantsinDevanagari2lookup0 subtable" uni0920 uni0930_uni094D.blwf
EndChar

StartChar: uni0920_uni094D.haln
Encoding: 65575 -1 432
GlifName: uni0920_uni094D_.haln
Width: 2048
VWidth: 0
GlyphClass: 3
Flags: W
LayerCount: 2
Fore
SplineSet
1128.31 1550 m 257
 1084.63 1490 l 257
 3132.63 1490 l 257
 3176.31 1550 l 257
 1128.31 1550 l 257
2209.19 1510 m 257
 1854.68 1023 l 257
 1912.68 1023 l 257
 2267.19 1510 l 257
 2209.19 1510 l 257
828.684 1023 m 257
 785.006 963 l 257
 2687.01 963 l 257
 2730.68 1023 l 257
 828.684 1023 l 257
816.684 1023 m 257
 81.4629 13 l 257
 143.463 13 l 257
 878.684 1023 l 257
 816.684 1023 l 257
2642.67 1001 m 257
 1914 0 l 257
 1986 0 l 257
 2714.67 1001 l 257
 2642.67 1001 l 257
114.221 58 m 257
 69.8164 -3 l 257
 1963.82 -3 l 257
 2008.22 58 l 257
 114.221 58 l 257
1247.35 -16 m 257
 1202.95 -77 l 257
 1546.95 -77 l 257
 1591.35 -16 l 257
 1247.35 -16 l 257
1522.32 -71 m 257
 1760.72 -418 l 257
 1828.57 -366 l 257
 1592.08 -15 l 257
 1522.32 -71 l 257
EndSplineSet
Ligature2: "halnHalantFormsinDevanagari2lookup0 subtable" uni0920 uni094D
EndChar

StartChar: uni0921
Encoding: 2337 2337 433
GlifName: uni0921
Width: 2048
VWidth: 0
GlyphClass: 2
Flags: W
LayerCount: 2
Fore
SplineSet
563.426 1548 m 257
 541.588 1488 l 257
 2589.59 1488 l 257
 2611.43 1548 l 257
 563.426 1548 l 257
781.092 1091 m 257
 594.738 579 l 257
 654.738 579 l 257
 841.092 1091 l 257
 781.092 1091 l 257
601.29 597 m 257
 579.816 538 l 257
 1936.82 538 l 257
 1958.29 597 l 257
 601.29 597 l 257
1882.64 554 m 257
 1682.82 5 l 257
 1742.82 5 l 257
 1942.64 554 l 257
 1882.64 554 l 257
83.8379 60 m 257
 62 0 l 257
 1741 0 l 257
 1762.84 60 l 257
 83.8379 60 l 257
182.475 331 m 257
 63.8203 5 l 257
 124.82 5 l 257
 243.475 331 l 257
 182.475 331 l 257
796.742 1134 m 257
 774.904 1074 l 257
 2131.9 1074 l 257
 2153.74 1134 l 257
 796.742 1134 l 257
2226.05 1503 m 257
 2078.64 1098 l 257
 2140.64 1098 l 257
 2288.05 1503 l 257
 2226.05 1503 l 257
EndSplineSet
EndChar

StartChar: uni0921_uni0930_uni094D.vatu
Encoding: 65576 -1 434
GlifName: uni0921_uni0930_uni094D_.vatu
Width: 2048
VWidth: 0
GlyphClass: 3
Flags: W
LayerCount: 2
Fore
SplineSet
1040.51 158 m 257
 1100.12 -181 l 257
 1168.12 -181 l 257
 1108.89 225 l 257
 1040.51 158 l 257
1108.89 225 m 257
 705.853 -168 l 257
 773.853 -168 l 257
 1117.42 166 l 257
 1108.89 225 l 257
563.426 1548 m 257
 541.588 1488 l 257
 2589.59 1488 l 257
 2611.43 1548 l 257
 563.426 1548 l 257
781.092 1091 m 257
 684.275 825 l 257
 744.275 825 l 257
 841.092 1091 l 257
 781.092 1091 l 257
690.827 843 m 257
 669.353 784 l 257
 2026.35 784 l 257
 2047.83 843 l 257
 690.827 843 l 257
1972.18 800 m 257
 1772.36 251 l 257
 1832.36 251 l 257
 2032.18 800 l 257
 1972.18 800 l 257
173.375 306 m 257
 151.537 246 l 257
 1830.54 246 l 257
 1852.38 306 l 257
 173.375 306 l 257
272.011 577 m 257
 153.356 251 l 257
 214.356 251 l 257
 333.011 577 l 257
 272.011 577 l 257
796.742 1134 m 257
 774.904 1074 l 257
 2131.9 1074 l 257
 2153.74 1134 l 257
 796.742 1134 l 257
2226.05 1503 m 257
 2078.64 1098 l 257
 2140.64 1098 l 257
 2288.05 1503 l 257
 2226.05 1503 l 257
EndSplineSet
Ligature2: "rkrfRakarVariantsinDevanagari2lookup0 subtable" uni0921 uni0930_uni094D.blwf
EndChar

StartChar: uni0921_uni094D.haln
Encoding: 65577 -1 435
GlifName: uni0921_uni094D_.haln
Width: 2048
VWidth: 0
GlyphClass: 3
Flags: W
LayerCount: 2
Fore
SplineSet
1126.85 1548 m 257
 1083.17 1488 l 257
 3131.17 1488 l 257
 3174.85 1548 l 257
 1126.85 1548 l 257
1178.18 1091 m 257
 805.477 579 l 257
 865.477 579 l 257
 1238.18 1091 l 257
 1178.18 1091 l 257
818.58 597 m 257
 775.632 538 l 257
 2132.63 538 l 257
 2175.58 597 l 257
 818.58 597 l 257
2084.28 554 m 257
 1684.64 5 l 257
 1744.64 5 l 257
 2144.28 554 l 257
 2084.28 554 l 257
105.676 60 m 257
 62 0 l 257
 1741 0 l 257
 1784.68 60 l 257
 105.676 60 l 257
302.948 331 m 257
 65.6406 5 l 257
 126.641 5 l 257
 363.948 331 l 257
 302.948 331 l 257
1209.48 1134 m 257
 1165.81 1074 l 257
 2522.81 1074 l 257
 2566.48 1134 l 257
 1209.48 1134 l 257
2773.09 1503 m 257
 2478.28 1098 l 257
 2540.28 1098 l 257
 2835.09 1503 l 257
 2773.09 1503 l 257
1247.35 -16 m 257
 1202.95 -77 l 257
 1546.95 -77 l 257
 1591.35 -16 l 257
 1247.35 -16 l 257
1522.32 -71 m 257
 1760.72 -418 l 257
 1828.57 -366 l 257
 1592.08 -15 l 257
 1522.32 -71 l 257
EndSplineSet
Ligature2: "halnHalantFormsinDevanagari2lookup0 subtable" uni0921 uni094D
EndChar

StartChar: uni0922
Encoding: 2338 2338 436
GlifName: uni0922
Width: 2048
VWidth: 0
GlyphClass: 2
Flags: W
LayerCount: 2
Fore
SplineSet
564.154 1550 m 257
 541.588 1488 l 257
 2589.59 1488 l 257
 2612.15 1550 l 257
 564.154 1550 l 257
2267.15 1528 m 257
 2070.6 988 l 257
 2152.6 988 l 257
 2349.15 1528 l 257
 2267.15 1528 l 257
2165.34 1023 m 257
 492.342 1023 l 257
 470.14 962 l 257
 2143.14 962 l 257
 2165.34 1023 l 257
471.342 1023 m 257
 100.82 5 l 257
 160.82 5 l 257
 531.342 1023 l 257
 471.342 1023 l 257
120.838 60 m 257
 99 0 l 257
 1836 0 l 257
 1857.84 60 l 257
 120.838 60 l 257
1976 544 m 257
 1778 0 l 257
 1838 0 l 257
 2036 544 l 257
 1976 544 l 257
1707.09 547 m 257
 1685.25 487 l 257
 2013.25 487 l 257
 2035.09 547 l 257
 1707.09 547 l 257
EndSplineSet
EndChar

StartChar: uni0922_uni0930_uni094D.vatu
Encoding: 65578 -1 437
GlifName: uni0922_uni0930_uni094D_.vatu
Width: 2048
VWidth: 0
GlyphClass: 3
Flags: W
LayerCount: 2
Fore
SplineSet
1040.87 159 m 257
 1100.49 -180 l 257
 1168.49 -180 l 257
 1109.26 226 l 257
 1040.87 159 l 257
1109.26 226 m 257
 706.217 -167 l 257
 774.217 -167 l 257
 1117.78 167 l 257
 1109.26 226 l 257
564.154 1550 m 257
 541.588 1488 l 257
 2589.59 1488 l 257
 2612.15 1550 l 257
 564.154 1550 l 257
2267.15 1528 m 257
 2070.6 988 l 257
 2152.6 988 l 257
 2349.15 1528 l 257
 2267.15 1528 l 257
2165.34 1023 m 257
 492.342 1023 l 257
 470.14 962 l 257
 2143.14 962 l 257
 2165.34 1023 l 257
471.342 1023 m 257
 210.011 305 l 257
 270.011 305 l 257
 531.342 1023 l 257
 471.342 1023 l 257
230.029 360 m 257
 208.191 300 l 257
 1945.19 300 l 257
 1967.03 360 l 257
 230.029 360 l 257
2085.19 844 m 257
 1886.46 298 l 257
 1946.46 298 l 257
 2145.19 844 l 257
 2085.19 844 l 257
1816.28 847 m 257
 1794.44 787 l 257
 2122.44 787 l 257
 2144.28 847 l 257
 1816.28 847 l 257
EndSplineSet
Ligature2: "rkrfRakarVariantsinDevanagari2lookup0 subtable" uni0922 uni0930_uni094D.blwf
EndChar

StartChar: uni0922_uni094D.haln
Encoding: 65579 -1 438
GlifName: uni0922_uni094D_.haln
Width: 2048
VWidth: 0
GlyphClass: 3
Flags: W
LayerCount: 2
Fore
SplineSet
1128.31 1550 m 257
 1083.17 1488 l 257
 3131.17 1488 l 257
 3176.31 1550 l 257
 1128.31 1550 l 257
2823.29 1528 m 257
 2430.21 988 l 257
 2512.21 988 l 257
 2905.29 1528 l 257
 2823.29 1528 l 257
2537.68 1023 m 257
 864.684 1023 l 257
 820.278 962 l 257
 2493.28 962 l 257
 2537.68 1023 l 257
843.684 1023 m 257
 102.641 5 l 257
 162.641 5 l 257
 903.684 1023 l 257
 843.684 1023 l 257
142.676 60 m 257
 99 0 l 257
 1836 0 l 257
 1879.68 60 l 257
 142.676 60 l 257
2174 544 m 257
 1778 0 l 257
 1838 0 l 257
 2234 544 l 257
 2174 544 l 257
1906.18 547 m 257
 1862.51 487 l 257
 2190.51 487 l 257
 2234.18 547 l 257
 1906.18 547 l 257
1247.35 -16 m 257
 1202.95 -77 l 257
 1546.95 -77 l 257
 1591.35 -16 l 257
 1247.35 -16 l 257
1522.32 -71 m 257
 1760.72 -418 l 257
 1828.57 -366 l 257
 1592.08 -15 l 257
 1522.32 -71 l 257
EndSplineSet
Ligature2: "halnHalantFormsinDevanagari2lookup0 subtable" uni0922 uni094D
EndChar

StartChar: uni0923
Encoding: 2339 2339 439
GlifName: uni0923
Width: 2048
VWidth: 0
GlyphClass: 2
Flags: W
LayerCount: 2
Fore
SplineSet
561.154 1550 m 257
 538.588 1488 l 257
 2592.59 1488 l 257
 2615.15 1550 l 257
 561.154 1550 l 257
2439.87 1530 m 257
 1883 0 l 257
 1943 0 l 257
 2499.87 1530 l 257
 2439.87 1530 l 257
668.606 1543 m 257
 418.194 855 l 257
 478.194 855 l 257
 728.606 1543 l 257
 668.606 1543 l 257
1671.15 1528 m 257
 1422.19 844 l 257
 1482.19 844 l 257
 1731.15 1528 l 257
 1671.15 1528 l 257
429.113 885 m 257
 407.275 825 l 257
 1475.28 825 l 257
 1497.11 885 l 257
 429.113 885 l 257
EndSplineSet
EndChar

StartChar: uni0923_uni0930_uni094D.vatu
Encoding: 65580 -1 440
GlifName: uni0923_uni0930_uni094D_.vatu
Width: 2048
VWidth: 0
GlyphClass: 3
Flags: W
LayerCount: 2
Fore
SplineSet
224 0 m 257
 481 0 l 257
 2027.94 357 l 257
 2049.41 416 l 257
 224 0 l 257
561.154 1550 m 257
 538.588 1488 l 257
 2592.59 1488 l 257
 2615.15 1550 l 257
 561.154 1550 l 257
2439.87 1530 m 257
 1883 0 l 257
 1943 0 l 257
 2499.87 1530 l 257
 2439.87 1530 l 257
668.606 1543 m 257
 418.194 855 l 257
 478.194 855 l 257
 728.606 1543 l 257
 668.606 1543 l 257
1671.15 1528 m 257
 1422.19 844 l 257
 1482.19 844 l 257
 1731.15 1528 l 257
 1671.15 1528 l 257
429.113 885 m 257
 407.275 825 l 257
 1475.28 825 l 257
 1497.11 885 l 257
 429.113 885 l 257
EndSplineSet
Ligature2: "rkrfRakarVariantsinDevanagari2lookup0 subtable" uni0923 uni0930_uni094D.blwf
EndChar

StartChar: uni0923_uni094D.half
Encoding: 65581 -1 441
GlifName: uni0923_uni094D_.half
Width: 2048
VWidth: 0
GlyphClass: 3
Flags: W
LayerCount: 2
Fore
SplineSet
561.154 1550 m 257
 538.588 1488 l 257
 2592.59 1488 l 257
 2615.15 1550 l 257
 561.154 1550 l 257
1068.61 1543 m 257
 818.194 855 l 257
 878.194 855 l 257
 1128.61 1543 l 257
 1068.61 1543 l 257
2071.15 1528 m 257
 1822.19 844 l 257
 1882.19 844 l 257
 2131.15 1528 l 257
 2071.15 1528 l 257
829.113 885 m 257
 807.275 825 l 257
 1875.28 825 l 257
 1897.11 885 l 257
 829.113 885 l 257
EndSplineSet
Ligature2: "halfHalfFormsinDevanagari2lookup0 subtable" uni0923 uni094D
EndChar

StartChar: uni0923_uni094D.haln
Encoding: 65582 -1 442
GlifName: uni0923_uni094D_.haln
Width: 2048
VWidth: 0
GlyphClass: 3
Flags: W
LayerCount: 2
Fore
SplineSet
1125.31 1550 m 257
 1080.17 1488 l 257
 3134.17 1488 l 257
 3179.31 1550 l 257
 1125.31 1550 l 257
2996.75 1530 m 257
 1883 0 l 257
 1943 0 l 257
 3056.75 1530 l 257
 2996.75 1530 l 257
1230.21 1543 m 257
 729.389 855 l 257
 789.389 855 l 257
 1290.21 1543 l 257
 1230.21 1543 l 257
2227.29 1528 m 257
 1729.38 844 l 257
 1789.38 844 l 257
 2287.29 1528 l 257
 2227.29 1528 l 257
751.227 885 m 257
 707.551 825 l 257
 1775.55 825 l 257
 1819.23 885 l 257
 751.227 885 l 257
1247.35 -16 m 257
 1202.95 -77 l 257
 1546.95 -77 l 257
 1591.35 -16 l 257
 1247.35 -16 l 257
1522.32 -71 m 257
 1760.72 -418 l 257
 1828.57 -366 l 257
 1592.08 -15 l 257
 1522.32 -71 l 257
EndSplineSet
Ligature2: "halnHalantFormsinDevanagari2lookup0 subtable" uni0923 uni094D
EndChar

StartChar: uni0924
Encoding: 2340 2340 443
GlifName: uni0924
Width: 2048
VWidth: 0
GlyphClass: 2
Flags: W
LayerCount: 2
Fore
SplineSet
551.701 1557 m 257
 529.863 1497 l 257
 2607.86 1497 l 257
 2629.7 1557 l 257
 551.701 1557 l 257
2371.33 1534 m 257
 1813 0 l 257
 1872 0 l 257
 2430.33 1534 l 257
 2371.33 1534 l 257
2113.81 788 m 257
 406.809 788 l 257
 384.971 728 l 257
 2091.97 728 l 257
 2113.81 788 l 257
398.801 766 m 257
 129.463 26 l 257
 189.463 26 l 257
 458.801 766 l 257
 398.801 766 l 257
EndSplineSet
EndChar

StartChar: uni0924_uni0930_uni094D.vatu
Encoding: 65583 -1 444
GlifName: uni0924_uni0930_uni094D_.vatu
Width: 2048
VWidth: 0
GlyphClass: 3
Flags: W
LayerCount: 2
Fore
SplineSet
163 0 m 257
 420 0 l 257
 2006.25 465 l 257
 2027.72 524 l 257
 163 0 l 257
551.701 1557 m 257
 529.863 1497 l 257
 2607.86 1497 l 257
 2629.7 1557 l 257
 551.701 1557 l 257
2371.33 1534 m 257
 1813 0 l 257
 1872 0 l 257
 2430.33 1534 l 257
 2371.33 1534 l 257
2041.38 589 m 257
 406.809 788 l 257
 384.971 728 l 257
 2019.54 529 l 257
 2041.38 589 l 257
EndSplineSet
Ligature2: "rkrfRakarVariantsinDevanagari2lookup0 subtable" uni0924 uni0930_uni094D.blwf
EndChar

StartChar: uni0924_uni094D.half
Encoding: 65584 -1 445
GlifName: uni0924_uni094D_.half
Width: 2048
VWidth: 0
GlyphClass: 3
Flags: W
LayerCount: 2
Fore
SplineSet
551.701 1557 m 257
 529.863 1497 l 257
 2607.86 1497 l 257
 2629.7 1557 l 257
 551.701 1557 l 257
2413.81 788 m 257
 706.809 788 l 257
 684.971 728 l 257
 2391.97 728 l 257
 2413.81 788 l 257
698.801 766 m 257
 429.463 26 l 257
 489.463 26 l 257
 758.801 766 l 257
 698.801 766 l 257
EndSplineSet
Ligature2: "halfHalfFormsinDevanagari2lookup0 subtable" uni0924 uni094D
EndChar

StartChar: uni0924_uni094D.haln
Encoding: 65585 -1 446
GlifName: uni0924_uni094D_.haln
Width: 2048
VWidth: 0
GlyphClass: 3
Flags: W
LayerCount: 2
Fore
SplineSet
1118.4 1557 m 257
 1074.73 1497 l 257
 3152.73 1497 l 257
 3196.4 1557 l 257
 1118.4 1557 l 257
2929.66 1534 m 257
 1813 0 l 257
 1872 0 l 257
 2988.66 1534 l 257
 2929.66 1534 l 257
2400.62 788 m 257
 693.617 788 l 257
 649.94 728 l 257
 2356.94 728 l 257
 2400.62 788 l 257
677.602 766 m 257
 138.926 26 l 257
 198.926 26 l 257
 737.602 766 l 257
 677.602 766 l 257
1247.35 -16 m 257
 1202.95 -77 l 257
 1546.95 -77 l 257
 1591.35 -16 l 257
 1247.35 -16 l 257
1522.32 -71 m 257
 1760.72 -418 l 257
 1828.57 -366 l 257
 1592.08 -15 l 257
 1522.32 -71 l 257
EndSplineSet
Ligature2: "halnHalantFormsinDevanagari2lookup0 subtable" uni0924 uni094D
EndChar

StartChar: uni0924_uni094D_uni0924.pres
Encoding: 65586 -1 447
GlifName: uni0924_uni094D__uni0924.pres
Width: 2048
VWidth: 0
GlyphClass: 3
Flags: W
LayerCount: 2
Fore
SplineSet
535.246 1553 m 257
 513.407 1493 l 257
 2592.41 1493 l 257
 2614.25 1553 l 257
 535.246 1553 l 257
2347.96 1511 m 257
 1798 0 l 257
 1858 0 l 257
 2407.96 1511 l 257
 2347.96 1511 l 257
2099.81 788 m 257
 391.809 788 l 257
 369.971 728 l 257
 2077.97 728 l 257
 2099.81 788 l 257
369.971 728 m 257
 344.177 -16 l 257
 419.008 22 l 257
 443.801 766 l 257
 369.971 728 l 257
2204.8 1038 m 257
 453.801 1038 l 257
 431.963 978 l 257
 2182.96 978 l 257
 2204.8 1038 l 257
EndSplineSet
Ligature2: "presPreBaseSubstitutionsinDevanagari2lookup0 subtable" uni0924_uni094D.half uni0924
EndChar

StartChar: uni0925
Encoding: 2341 2341 448
GlifName: uni0925
Width: 2048
VWidth: 0
GlyphClass: 2
Flags: W
LayerCount: 2
Fore
SplineSet
2211.15 1550 m 257
 2190.04 1492 l 257
 2574.04 1492 l 257
 2595.15 1550 l 257
 2211.15 1550 l 257
2483.88 1541 m 257
 1916.45 -18 l 257
 1975.45 -18 l 257
 2542.88 1541 l 257
 2483.88 1541 l 257
581.154 1550 m 257
 559.315 1490 l 257
 1516.32 1490 l 257
 1538.15 1550 l 257
 581.154 1550 l 257
1460.05 1503 m 257
 1271.88 986 l 257
 1331.88 986 l 257
 1520.05 1503 l 257
 1460.05 1503 l 257
1344.52 1018 m 257
 391.521 1018 l 257
 369.319 957 l 257
 1322.32 957 l 257
 1344.52 1018 l 257
378.783 983 m 257
 69.0439 132 l 257
 128.044 132 l 257
 437.783 983 l 257
 378.783 983 l 257
90.5186 191 m 257
 69.0439 132 l 257
 2030.04 132 l 257
 2051.52 191 l 257
 90.5186 191 l 257
EndSplineSet
EndChar

StartChar: uni0925_uni0930_uni094D.vatu
Encoding: 65587 -1 449
GlifName: uni0925_uni0930_uni094D_.vatu
Width: 2048
VWidth: 0
GlyphClass: 3
Flags: W
LayerCount: 2
Fore
SplineSet
266 0 m 257
 523 0 l 257
 2069.94 357 l 257
 2091.41 416 l 257
 266 0 l 257
2211.15 1550 m 257
 2190.04 1492 l 257
 2574.04 1492 l 257
 2595.15 1550 l 257
 2211.15 1550 l 257
2483.88 1541 m 257
 1916.45 -18 l 257
 1975.45 -18 l 257
 2542.88 1541 l 257
 2483.88 1541 l 257
581.154 1550 m 257
 559.315 1490 l 257
 1516.32 1490 l 257
 1538.15 1550 l 257
 581.154 1550 l 257
1460.05 1503 m 257
 1308.27 1086 l 257
 1368.27 1086 l 257
 1520.05 1503 l 257
 1460.05 1503 l 257
1380.92 1118 m 257
 427.919 1118 l 257
 405.717 1057 l 257
 1358.72 1057 l 257
 1380.92 1118 l 257
415.18 1083 m 257
 178.235 432 l 257
 237.235 432 l 257
 474.18 1083 l 257
 415.18 1083 l 257
199.709 491 m 257
 178.235 432 l 257
 2139.24 432 l 257
 2160.71 491 l 257
 199.709 491 l 257
EndSplineSet
Ligature2: "rkrfRakarVariantsinDevanagari2lookup0 subtable" uni0925 uni0930_uni094D.blwf
EndChar

StartChar: uni0925_uni094D.half
Encoding: 65588 -1 450
GlifName: uni0925_uni094D_.half
Width: 2048
VWidth: 0
GlyphClass: 3
Flags: W
LayerCount: 2
Fore
SplineSet
2261.15 1550 m 257
 2240.04 1492 l 257
 2624.04 1492 l 257
 2645.15 1550 l 257
 2261.15 1550 l 257
631.154 1550 m 257
 609.315 1490 l 257
 1566.32 1490 l 257
 1588.15 1550 l 257
 631.154 1550 l 257
1510.05 1503 m 257
 1321.88 986 l 257
 1381.88 986 l 257
 1570.05 1503 l 257
 1510.05 1503 l 257
1394.52 1018 m 257
 441.521 1018 l 257
 419.319 957 l 257
 1372.32 957 l 257
 1394.52 1018 l 257
428.783 983 m 257
 119.044 132 l 257
 178.044 132 l 257
 487.783 983 l 257
 428.783 983 l 257
140.519 191 m 257
 119.044 132 l 257
 2080.04 132 l 257
 2101.52 191 l 257
 140.519 191 l 257
EndSplineSet
Ligature2: "halfHalfFormsinDevanagari2lookup0 subtable" uni0925 uni094D
EndChar

StartChar: uni0925_uni094D.haln
Encoding: 65589 -1 451
GlifName: uni0925_uni094D_.haln
Width: 2048
VWidth: 0
GlyphClass: 3
Flags: W
LayerCount: 2
Fore
SplineSet
2775.31 1550 m 257
 2733.09 1492 l 257
 3117.09 1492 l 257
 3159.31 1550 l 257
 2775.31 1550 l 257
3044.76 1541 m 257
 1909.9 -18 l 257
 1968.9 -18 l 257
 3103.76 1541 l 257
 3044.76 1541 l 257
1145.31 1550 m 257
 1101.63 1490 l 257
 2058.63 1490 l 257
 2102.31 1550 l 257
 1145.31 1550 l 257
2007.09 1503 m 257
 1630.75 986 l 257
 1690.75 986 l 257
 2067.09 1503 l 257
 2007.09 1503 l 257
1715.04 1018 m 257
 762.043 1018 l 257
 717.639 957 l 257
 1670.64 957 l 257
 1715.04 1018 l 257
736.565 983 m 257
 117.088 132 l 257
 176.088 132 l 257
 795.565 983 l 257
 736.565 983 l 257
160.037 191 m 257
 117.088 132 l 257
 2078.09 132 l 257
 2121.04 191 l 257
 160.037 191 l 257
1247.35 -16 m 257
 1202.95 -77 l 257
 1546.95 -77 l 257
 1591.35 -16 l 257
 1247.35 -16 l 257
1522.32 -71 m 257
 1760.72 -418 l 257
 1828.57 -366 l 257
 1592.08 -15 l 257
 1522.32 -71 l 257
EndSplineSet
Ligature2: "halnHalantFormsinDevanagari2lookup0 subtable" uni0925 uni094D
EndChar

StartChar: uni0926
Encoding: 2342 2342 452
GlifName: uni0926
Width: 2048
VWidth: 0
GlyphClass: 2
Flags: W
LayerCount: 2
Fore
SplineSet
569.246 1553 m 257
 547.407 1493 l 257
 2587.41 1493 l 257
 2609.25 1553 l 257
 569.246 1553 l 257
1685.42 1515 m 257
 1485.6 966 l 257
 1543.6 966 l 257
 1743.42 1515 l 257
 1685.42 1515 l 257
1564.34 1023 m 257
 430.342 1023 l 257
 408.503 963 l 257
 1542.5 963 l 257
 1564.34 1023 l 257
425.974 1011 m 257
 173.742 318 l 257
 231.742 318 l 257
 483.974 1011 l 257
 425.974 1011 l 257
183.934 346 m 257
 161.731 285 l 257
 1425.73 285 l 257
 1447.93 346 l 257
 183.934 346 l 257
1380.29 325 m 257
 1259.45 -7 l 257
 1319.45 -7 l 257
 1440.29 325 l 257
 1380.29 325 l 257
EndSplineSet
EndChar

StartChar: uni0926_uni0930_uni094D.vatu
Encoding: 65590 -1 453
GlifName: uni0926_uni0930_uni094D_.vatu
Width: 2048
VWidth: 0
GlyphClass: 3
Flags: W
LayerCount: 2
Fore
SplineSet
126 0 m 257
 383 0 l 257
 1363.8 211 l 257
 1385.27 270 l 257
 126 0 l 257
569.246 1553 m 257
 547.407 1493 l 257
 2587.41 1493 l 257
 2609.25 1553 l 257
 569.246 1553 l 257
1685.42 1515 m 257
 1485.6 966 l 257
 1543.6 966 l 257
 1743.42 1515 l 257
 1685.42 1515 l 257
1564.34 1023 m 257
 430.342 1023 l 257
 408.503 963 l 257
 1542.5 963 l 257
 1564.34 1023 l 257
425.974 1011 m 257
 173.742 318 l 257
 231.742 318 l 257
 483.974 1011 l 257
 425.974 1011 l 257
183.934 346 m 257
 161.731 285 l 257
 1425.73 285 l 257
 1447.93 346 l 257
 183.934 346 l 257
1380.29 325 m 257
 1259.45 -7 l 257
 1319.45 -7 l 257
 1440.29 325 l 257
 1380.29 325 l 257
EndSplineSet
Ligature2: "rkrfRakarVariantsinDevanagari2lookup0 subtable" uni0926 uni0930_uni094D.blwf
EndChar

StartChar: uni0926_uni094D.half
Encoding: 65591 -1 454
GlifName: uni0926_uni094D_.half
Width: 2048
VWidth: 0
GlyphClass: 3
Flags: W
LayerCount: 2
Fore
SplineSet
569.246 1553 m 257
 547.407 1493 l 257
 2587.41 1493 l 257
 2609.25 1553 l 257
 569.246 1553 l 257
1685.42 1515 m 257
 1485.6 966 l 257
 1543.6 966 l 257
 1743.42 1515 l 257
 1685.42 1515 l 257
1564.34 1023 m 257
 430.342 1023 l 257
 408.503 963 l 257
 1542.5 963 l 257
 1564.34 1023 l 257
425.974 1011 m 257
 282.934 618 l 257
 340.934 618 l 257
 483.974 1011 l 257
 425.974 1011 l 257
293.125 646 m 257
 270.923 585 l 257
 1534.92 585 l 257
 1557.12 646 l 257
 293.125 646 l 257
1489.48 625 m 257
 1368.64 293 l 257
 1428.64 293 l 257
 1549.48 625 l 257
 1489.48 625 l 257
1362.37 284 m 257
 1340.17 223 l 257
 1684.17 223 l 257
 1706.37 284 l 257
 1362.37 284 l 257
1657.35 229 m 257
 2022.05 -118 l 257
 2070.98 -66 l 257
 1706.73 285 l 257
 1657.35 229 l 257
EndSplineSet
Ligature2: "halfHalfFormsinDevanagari2lookup0 subtable" uni0926 uni094D
EndChar

StartChar: uni0926_uni094D.haln
Encoding: 65592 -1 455
GlifName: uni0926_uni094D_.haln
Width: 2048
VWidth: 0
GlyphClass: 3
Flags: W
LayerCount: 2
Fore
SplineSet
1134.49 1553 m 257
 1090.81 1493 l 257
 3130.81 1493 l 257
 3174.49 1553 l 257
 1134.49 1553 l 257
2236.83 1515 m 257
 1837.19 966 l 257
 1895.19 966 l 257
 2294.83 1515 l 257
 2236.83 1515 l 257
1936.68 1023 m 257
 802.684 1023 l 257
 759.006 963 l 257
 1893.01 963 l 257
 1936.68 1023 l 257
793.947 1011 m 257
 289.484 318 l 257
 347.484 318 l 257
 851.947 1011 l 257
 793.947 1011 l 257
309.867 346 m 257
 265.463 285 l 257
 1529.46 285 l 257
 1573.87 346 l 257
 309.867 346 l 257
1498.58 325 m 257
 1256.9 -7 l 257
 1316.9 -7 l 257
 1558.58 325 l 257
 1498.58 325 l 257
1247.35 -16 m 257
 1202.95 -77 l 257
 1546.95 -77 l 257
 1591.35 -16 l 257
 1247.35 -16 l 257
1522.32 -71 m 257
 1760.72 -418 l 257
 1828.57 -366 l 257
 1592.08 -15 l 257
 1522.32 -71 l 257
EndSplineSet
Ligature2: "halnHalantFormsinDevanagari2lookup0 subtable" uni0926 uni094D
EndChar

StartChar: uni0926_uni094D_uni0926.pres
Encoding: 65593 -1 456
GlifName: uni0926_uni094D__uni0926.pres
Width: 2048
VWidth: 0
GlyphClass: 3
Flags: W
LayerCount: 2
Fore
SplineSet
571.154 1550 m 257
 548.952 1489 l 257
 2593.95 1489 l 257
 2616.15 1550 l 257
 571.154 1550 l 257
1930.23 1509 m 257
 1804.66 1164 l 257
 1863.66 1164 l 257
 1989.23 1509 l 257
 1930.23 1509 l 257
1874.67 1197 m 257
 888.673 1197 l 257
 866.834 1137 l 257
 1852.83 1137 l 257
 1874.67 1197 l 257
880.938 1173 m 257
 721.882 736 l 257
 780.882 736 l 257
 939.938 1173 l 257
 880.938 1173 l 257
526.614 205 m 257
 505.14 146 l 257
 1618.14 146 l 257
 1639.61 205 l 257
 526.614 205 l 257
1657.77 406 m 257
 1507.45 -7 l 257
 1566.45 -7 l 257
 1716.77 406 l 257
 1657.77 406 l 257
1711.61 749 m 257
 775.613 749 l 257
 753.411 688 l 257
 1689.41 688 l 257
 1711.61 749 l 257
709.144 701 m 257
 518.787 178 l 257
 577.787 178 l 257
 768.144 701 l 257
 709.144 701 l 257
EndSplineSet
Ligature2: "presPreBaseSubstitutionsinDevanagari2lookup0 subtable" uni0926_uni094D.half uni0926
EndChar

StartChar: uni0926_uni094D_uni0927.pres
Encoding: 65594 -1 457
GlifName: uni0926_uni094D__uni0927.pres
Width: 2048
VWidth: 0
GlyphClass: 3
Flags: W
LayerCount: 2
Fore
SplineSet
564.154 1550 m 257
 532.124 1462 l 257
 2584.12 1462 l 257
 2616.15 1550 l 257
 564.154 1550 l 257
2077.23 1509 m 257
 1885.78 983 l 257
 1944.78 983 l 257
 2136.23 1509 l 257
 2077.23 1509 l 257
1957.25 1020 m 257
 1264.25 1020 l 257
 1242.05 959 l 257
 1935.05 959 l 257
 1957.25 1020 l 257
1255.51 996 m 257
 952.691 164 l 257
 1011.69 164 l 257
 1314.51 996 l 257
 1255.51 996 l 257
1804.77 406 m 257
 1654.45 -7 l 257
 1713.45 -7 l 257
 1863.77 406 l 257
 1804.77 406 l 257
551.963 978 m 257
 530.125 918 l 257
 836.125 918 l 257
 857.963 978 l 257
 551.963 978 l 257
541.771 950 m 257
 457.331 718 l 257
 520.331 718 l 257
 604.771 950 l 257
 541.771 950 l 257
456.694 719 m 257
 434.856 659 l 257
 1145.86 659 l 257
 1167.69 719 l 257
 456.694 719 l 257
475.316 674 m 257
 295.515 180 l 257
 355.515 180 l 257
 535.316 674 l 257
 475.316 674 l 257
301.066 198 m 257
 279.592 139 l 257
 1723.59 139 l 257
 1745.07 198 l 257
 301.066 198 l 257
EndSplineSet
Ligature2: "presPreBaseSubstitutionsinDevanagari2lookup0 subtable" uni0926_uni094D.half uni0927
EndChar

StartChar: uni0926_uni094D_uni092F.pres
Encoding: 65595 -1 458
GlifName: uni0926_uni094D__uni092F_.pres
Width: 2048
VWidth: 0
GlyphClass: 3
Flags: W
LayerCount: 2
Fore
SplineSet
2511.24 1531 m 257
 1954 0 l 257
 2014 0 l 257
 2571.24 1531 l 257
 2511.24 1531 l 257
1290.82 288 m 257
 1269.35 229 l 257
 2002.94 107 l 257
 2026.97 173 l 257
 1290.82 288 l 257
559.154 1550 m 257
 536.952 1489 l 257
 2590.95 1489 l 257
 2613.15 1550 l 257
 559.154 1550 l 257
1686.23 1509 m 257
 1495.88 986 l 257
 1554.88 986 l 257
 1745.23 1509 l 257
 1686.23 1509 l 257
1290.82 288 m 257
 161.823 288 l 257
 140.35 229 l 257
 1269.35 229 l 257
 1290.82 288 l 257
419.515 996 m 257
 156.364 273 l 257
 215.364 273 l 257
 478.515 996 l 257
 419.515 996 l 257
1567.25 1020 m 257
 427.25 1020 l 257
 405.411 960 l 257
 1545.41 960 l 257
 1567.25 1020 l 257
EndSplineSet
Ligature2: "presPreBaseSubstitutionsinDevanagari2lookup0 subtable" uni0926_uni094D.half uni092F
EndChar

StartChar: uni0926_uni094D_uni0935.pres
Encoding: 65596 -1 459
GlifName: uni0926_uni094D__uni0935.pres
Width: 2048
VWidth: 0
GlyphClass: 3
Flags: W
LayerCount: 2
Fore
SplineSet
571.154 1550 m 257
 549.315 1490 l 257
 2592.32 1490 l 257
 2614.15 1550 l 257
 571.154 1550 l 257
1872.23 1509 m 257
 1758.67 1197 l 257
 1819.67 1197 l 257
 1933.23 1509 l 257
 1872.23 1509 l 257
1834.69 1241 m 257
 712.688 1241 l 257
 691.213 1182 l 257
 1813.21 1182 l 257
 1834.69 1241 l 257
709.415 1243 m 257
 496.856 659 l 257
 556.856 659 l 257
 769.415 1243 l 257
 709.415 1243 l 257
505.956 684 m 257
 484.481 625 l 257
 1736.48 625 l 257
 1757.96 684 l 257
 505.956 684 l 257
1760.92 846 m 257
 1450.45 -7 l 257
 1510.45 -7 l 257
 1820.92 846 l 257
 1760.92 846 l 257
449.978 478 m 257
 313.125 102 l 257
 373.125 102 l 257
 509.978 478 l 257
 449.978 478 l 257
325.772 134 m 257
 303.934 74 l 257
 1538.93 74 l 257
 1560.77 134 l 257
 325.772 134 l 257
463.081 514 m 257
 441.606 455 l 257
 1189.61 455 l 257
 1211.08 514 l 257
 463.081 514 l 257
EndSplineSet
Ligature2: "presPreBaseSubstitutionsinDevanagari2lookup0 subtable" uni0926_uni094D.half uni0935
EndChar

StartChar: uni0927
Encoding: 2343 2343 460
GlifName: uni0927
Width: 2048
VWidth: 0
GlyphClass: 2
Flags: W
LayerCount: 2
Fore
SplineSet
2256.25 1553 m 257
 2234.41 1493 l 257
 2535.41 1493 l 257
 2557.25 1553 l 257
 2256.25 1553 l 257
2430.32 1512 m 257
 1877.82 -6 l 257
 1936.82 -6 l 257
 2489.32 1512 l 257
 2430.32 1512 l 257
622.246 1553 m 257
 600.044 1492 l 257
 1504.04 1492 l 257
 1526.25 1553 l 257
 622.246 1553 l 257
603.319 1501 m 257
 364.19 844 l 257
 425.19 844 l 257
 664.319 1501 l 257
 603.319 1501 l 257
377.021 882 m 257
 355.548 823 l 257
 1266.55 823 l 257
 1288.02 882 l 257
 377.021 882 l 257
392.096 830 m 257
 149.327 163 l 257
 209.327 163 l 257
 452.096 830 l 257
 392.096 830 l 257
157.698 186 m 257
 135.86 126 l 257
 1944.86 126 l 257
 1966.7 186 l 257
 157.698 186 l 257
EndSplineSet
EndChar

StartChar: uni0927_uni0930_uni094D.vatu
Encoding: 65597 -1 461
GlifName: uni0927_uni0930_uni094D_.vatu
Width: 2048
VWidth: 0
GlyphClass: 3
Flags: W
LayerCount: 2
Fore
SplineSet
219 0 m 257
 476 0 l 257
 2022.94 357 l 257
 2044.41 416 l 257
 219 0 l 257
2256.25 1553 m 257
 2234.41 1493 l 257
 2535.41 1493 l 257
 2557.25 1553 l 257
 2256.25 1553 l 257
2430.32 1512 m 257
 1877.82 -6 l 257
 1936.82 -6 l 257
 2489.32 1512 l 257
 2430.32 1512 l 257
622.246 1553 m 257
 600.044 1492 l 257
 1504.04 1492 l 257
 1526.25 1553 l 257
 622.246 1553 l 257
603.319 1501 m 257
 473.382 1144 l 257
 534.382 1144 l 257
 664.319 1501 l 257
 603.319 1501 l 257
486.213 1182 m 257
 464.738 1123 l 257
 1375.74 1123 l 257
 1397.21 1182 l 257
 486.213 1182 l 257
501.286 1130 m 257
 258.519 463 l 257
 318.519 463 l 257
 561.286 1130 l 257
 501.286 1130 l 257
266.89 486 m 257
 245.052 426 l 257
 2054.05 426 l 257
 2075.89 486 l 257
 266.89 486 l 257
EndSplineSet
Ligature2: "rkrfRakarVariantsinDevanagari2lookup0 subtable" uni0927 uni0930_uni094D.blwf
EndChar

StartChar: uni0927_uni094D.half
Encoding: 65598 -1 462
GlifName: uni0927_uni094D_.half
Width: 2048
VWidth: 0
GlyphClass: 3
Flags: W
LayerCount: 2
Fore
SplineSet
772.246 1553 m 257
 750.044 1492 l 257
 1654.04 1492 l 257
 1676.25 1553 l 257
 772.246 1553 l 257
753.319 1501 m 257
 514.19 844 l 257
 575.19 844 l 257
 814.319 1501 l 257
 753.319 1501 l 257
527.021 882 m 257
 505.548 823 l 257
 1416.55 823 l 257
 1438.02 882 l 257
 527.021 882 l 257
542.096 830 m 257
 299.327 163 l 257
 359.327 163 l 257
 602.096 830 l 257
 542.096 830 l 257
307.698 186 m 257
 285.86 126 l 257
 2094.86 126 l 257
 2116.7 186 l 257
 307.698 186 l 257
EndSplineSet
Ligature2: "halfHalfFormsinDevanagari2lookup0 subtable" uni0927 uni094D
EndChar

StartChar: uni0927_uni094D.haln
Encoding: 65599 -1 463
GlifName: uni0927_uni094D_.haln
Width: 2048
VWidth: 0
GlyphClass: 3
Flags: W
LayerCount: 2
Fore
SplineSet
2821.49 1553 m 257
 2777.81 1493 l 257
 3078.81 1493 l 257
 3122.49 1553 l 257
 2821.49 1553 l 257
2980.65 1512 m 257
 1875.63 -6 l 257
 1934.63 -6 l 257
 3039.65 1512 l 257
 2980.65 1512 l 257
1187.49 1553 m 257
 1143.09 1492 l 257
 2047.09 1492 l 257
 2091.49 1553 l 257
 1187.49 1553 l 257
1149.64 1501 m 257
 671.381 844 l 257
 732.381 844 l 257
 1210.64 1501 l 257
 1149.64 1501 l 257
698.043 882 m 257
 655.095 823 l 257
 1566.09 823 l 257
 1609.04 882 l 257
 698.043 882 l 257
694.19 830 m 257
 208.654 163 l 257
 268.654 163 l 257
 754.19 830 l 257
 694.19 830 l 257
225.396 186 m 257
 181.721 126 l 257
 1990.72 126 l 257
 2034.4 186 l 257
 225.396 186 l 257
1247.35 -16 m 257
 1202.95 -77 l 257
 1546.95 -77 l 257
 1591.35 -16 l 257
 1247.35 -16 l 257
1522.32 -71 m 257
 1760.72 -418 l 257
 1828.57 -366 l 257
 1592.08 -15 l 257
 1522.32 -71 l 257
EndSplineSet
Ligature2: "halnHalantFormsinDevanagari2lookup0 subtable" uni0927 uni094D
EndChar

StartChar: uni0928
Encoding: 2344 2344 464
GlifName: uni0928
Width: 2048
VWidth: 0
GlyphClass: 2
Flags: W
LayerCount: 2
Fore
SplineSet
567.154 1550 m 257
 546.407 1493 l 257
 2588.41 1493 l 257
 2609.15 1550 l 257
 567.154 1550 l 257
2432.15 1550 m 257
 1869.09 3 l 257
 1930.09 3 l 257
 2493.15 1550 l 257
 2432.15 1550 l 257
368.794 744 m 257
 346.592 683 l 257
 2147.59 683 l 257
 2169.79 744 l 257
 368.794 744 l 257
368.702 741 m 257
 264.971 456 l 257
 324.971 456 l 257
 428.702 741 l 257
 368.702 741 l 257
EndSplineSet
EndChar

StartChar: uni0928_uni0930_uni094D.vatu
Encoding: 65600 -1 465
GlifName: uni0928_uni0930_uni094D_.vatu
Width: 2048
VWidth: 0
GlyphClass: 3
Flags: W
LayerCount: 2
Fore
SplineSet
213 0 m 257
 470 0 l 257
 2016.94 357 l 257
 2038.41 416 l 257
 213 0 l 257
567.154 1550 m 257
 546.407 1493 l 257
 2588.41 1493 l 257
 2609.15 1550 l 257
 567.154 1550 l 257
2432.15 1550 m 257
 1869.09 3 l 257
 1930.09 3 l 257
 2493.15 1550 l 257
 2432.15 1550 l 257
368.794 744 m 257
 346.592 683 l 257
 2147.59 683 l 257
 2169.79 744 l 257
 368.794 744 l 257
368.702 741 m 257
 264.971 456 l 257
 324.971 456 l 257
 428.702 741 l 257
 368.702 741 l 257
EndSplineSet
Ligature2: "rkrfRakarVariantsinDevanagari2lookup0 subtable" uni0928 uni0930_uni094D.blwf
EndChar

StartChar: uni0928_uni094D.half
Encoding: 65601 -1 466
GlifName: uni0928_uni094D_.half
Width: 2048
VWidth: 0
GlyphClass: 3
Flags: W
LayerCount: 2
Fore
SplineSet
567.154 1550 m 257
 546.407 1493 l 257
 2588.41 1493 l 257
 2609.15 1550 l 257
 567.154 1550 l 257
518.794 744 m 257
 496.592 683 l 257
 2297.59 683 l 257
 2319.79 744 l 257
 518.794 744 l 257
518.702 741 m 257
 414.971 456 l 257
 474.971 456 l 257
 578.702 741 l 257
 518.702 741 l 257
EndSplineSet
Ligature2: "halfHalfFormsinDevanagari2lookup0 subtable" uni0928 uni094D
EndChar

StartChar: uni0928_uni094D.haln
Encoding: 65602 -1 467
GlifName: uni0928_uni094D_.haln
Width: 2048
VWidth: 0
GlyphClass: 3
Flags: W
LayerCount: 2
Fore
SplineSet
1131.31 1550 m 257
 1089.81 1493 l 257
 3131.81 1493 l 257
 3173.31 1550 l 257
 1131.31 1550 l 257
2996.31 1550 m 257
 1870.18 3 l 257
 1931.18 3 l 257
 3057.31 1550 l 257
 2996.31 1550 l 257
639.588 744 m 257
 595.184 683 l 257
 2396.18 683 l 257
 2440.59 744 l 257
 639.588 744 l 257
638.404 741 m 257
 430.941 456 l 257
 490.941 456 l 257
 698.404 741 l 257
 638.404 741 l 257
1247.35 -16 m 257
 1202.95 -77 l 257
 1546.95 -77 l 257
 1591.35 -16 l 257
 1247.35 -16 l 257
1522.32 -71 m 257
 1760.72 -418 l 257
 1828.57 -366 l 257
 1592.08 -15 l 257
 1522.32 -71 l 257
EndSplineSet
Ligature2: "halnHalantFormsinDevanagari2lookup0 subtable" uni0928 uni094D
EndChar

StartChar: uni0929
Encoding: 2345 2345 468
GlifName: uni0929
Width: 2048
VWidth: 0
GlyphClass: 3
Flags: W
LayerCount: 2
Fore
SplineSet
564.154 1550 m 257
 543.407 1493 l 257
 2585.41 1493 l 257
 2606.15 1550 l 257
 564.154 1550 l 257
2429.15 1550 m 257
 1866.09 3 l 257
 1927.09 3 l 257
 2490.15 1550 l 257
 2429.15 1550 l 257
365.794 744 m 257
 343.592 683 l 257
 2144.59 683 l 257
 2166.79 744 l 257
 365.794 744 l 257
365.702 741 m 257
 261.971 456 l 257
 321.971 456 l 257
 425.702 741 l 257
 365.702 741 l 257
1005.07 -52 m 257
 963.581 -166 l 257
 1107.58 -166 l 257
 1149.07 -52 l 257
 1005.07 -52 l 257
EndSplineSet
Ligature2: "nuktNuktaFormsinDevanagari2lookup0 subtable" uni0928 uni093C
EndChar

StartChar: uni0929_uni0930_uni094D.vatu
Encoding: 65603 -1 469
GlifName: uni0929_uni0930_uni094D_.vatu
Width: 2048
VWidth: 0
GlyphClass: 3
Flags: W
LayerCount: 2
Fore
SplineSet
199 0 m 257
 456 0 l 257
 2002.94 357 l 257
 2024.41 416 l 257
 199 0 l 257
564.154 1550 m 257
 543.407 1493 l 257
 2585.41 1493 l 257
 2606.15 1550 l 257
 564.154 1550 l 257
2429.15 1550 m 257
 1866.09 3 l 257
 1927.09 3 l 257
 2490.15 1550 l 257
 2429.15 1550 l 257
365.794 744 m 257
 343.592 683 l 257
 2144.59 683 l 257
 2166.79 744 l 257
 365.794 744 l 257
365.702 741 m 257
 261.971 456 l 257
 321.971 456 l 257
 425.702 741 l 257
 365.702 741 l 257
1005.07 -52 m 257
 963.581 -166 l 257
 1107.58 -166 l 257
 1149.07 -52 l 257
 1005.07 -52 l 257
EndSplineSet
Ligature2: "rkrfRakarVariantsinDevanagari2lookup0 subtable" uni0929 uni0930_uni094D.blwf
EndChar

StartChar: uni0929_uni094D.half
Encoding: 65604 -1 470
GlifName: uni0929_uni094D_.half
Width: 2048
VWidth: 0
GlyphClass: 3
Flags: W
LayerCount: 2
Fore
SplineSet
564.154 1550 m 257
 543.407 1493 l 257
 2585.41 1493 l 257
 2606.15 1550 l 257
 564.154 1550 l 257
515.794 744 m 257
 493.592 683 l 257
 2294.59 683 l 257
 2316.79 744 l 257
 515.794 744 l 257
515.702 741 m 257
 411.971 456 l 257
 471.971 456 l 257
 575.702 741 l 257
 515.702 741 l 257
1155.07 -52 m 257
 1113.58 -166 l 257
 1257.58 -166 l 257
 1299.07 -52 l 257
 1155.07 -52 l 257
EndSplineSet
Ligature2: "halfHalfFormsinDevanagari2lookup0 subtable" uni0929 uni094D
EndChar

StartChar: uni0929_uni094D.haln
Encoding: 65605 -1 471
GlifName: uni0929_uni094D_.haln
Width: 2048
VWidth: 0
GlyphClass: 3
Flags: W
LayerCount: 2
Fore
SplineSet
1128.31 1550 m 257
 1086.81 1493 l 257
 3128.81 1493 l 257
 3170.31 1550 l 257
 1128.31 1550 l 257
2993.31 1550 m 257
 1867.18 3 l 257
 1928.18 3 l 257
 3054.31 1550 l 257
 2993.31 1550 l 257
636.588 744 m 257
 592.184 683 l 257
 2393.18 683 l 257
 2437.59 744 l 257
 636.588 744 l 257
635.404 741 m 257
 427.941 456 l 257
 487.941 456 l 257
 695.404 741 l 257
 635.404 741 l 257
986.146 -52 m 257
 903.162 -166 l 257
 1047.16 -166 l 257
 1130.15 -52 l 257
 986.146 -52 l 257
1247.35 -16 m 257
 1202.95 -77 l 257
 1546.95 -77 l 257
 1591.35 -16 l 257
 1247.35 -16 l 257
1522.32 -71 m 257
 1760.72 -418 l 257
 1828.57 -366 l 257
 1592.08 -15 l 257
 1522.32 -71 l 257
EndSplineSet
Ligature2: "halnHalantFormsinDevanagari2lookup0 subtable" uni0929 uni094D
EndChar

StartChar: uni092A
Encoding: 2346 2346 472
GlifName: uni092A_
Width: 2048
VWidth: 0
GlyphClass: 2
Flags: W
LayerCount: 2
Fore
SplineSet
560.154 1550 m 257
 538.68 1491 l 257
 2594.68 1491 l 257
 2616.15 1550 l 257
 560.154 1550 l 257
2411.15 1539 m 257
 1851 0 l 257
 1912 0 l 257
 2472.15 1539 l 257
 2411.15 1539 l 257
662.154 1550 m 257
 449.231 965 l 257
 509.231 965 l 257
 722.154 1550 l 257
 662.154 1550 l 257
470.342 1023 m 257
 449.596 966 l 257
 2229.6 966 l 257
 2250.34 1023 l 257
 470.342 1023 l 257
EndSplineSet
EndChar

StartChar: uni092A_uni0930_uni094D.vatu
Encoding: 65606 -1 473
GlifName: uni092A__uni0930_uni094D_.vatu
Width: 2048
VWidth: 0
GlyphClass: 3
Flags: W
LayerCount: 2
Fore
SplineSet
189 0 m 257
 446 0 l 257
 1992.94 357 l 257
 2014.41 416 l 257
 189 0 l 257
560.154 1550 m 257
 538.68 1491 l 257
 2594.68 1491 l 257
 2616.15 1550 l 257
 560.154 1550 l 257
2411.15 1539 m 257
 1851 0 l 257
 1912 0 l 257
 2472.15 1539 l 257
 2411.15 1539 l 257
662.154 1550 m 257
 449.231 965 l 257
 509.231 965 l 257
 722.154 1550 l 257
 662.154 1550 l 257
470.342 1023 m 257
 449.596 966 l 257
 2229.6 966 l 257
 2250.34 1023 l 257
 470.342 1023 l 257
EndSplineSet
Ligature2: "rkrfRakarVariantsinDevanagari2lookup0 subtable" uni092A uni0930_uni094D.blwf
EndChar

StartChar: uni092A_uni094D.half
Encoding: 65607 -1 474
GlifName: uni092A__uni094D_.half
Width: 2048
VWidth: 0
GlyphClass: 3
Flags: W
LayerCount: 2
Fore
SplineSet
560.154 1550 m 257
 538.68 1491 l 257
 2594.68 1491 l 257
 2616.15 1550 l 257
 560.154 1550 l 257
662.154 1550 m 257
 449.231 965 l 257
 509.231 965 l 257
 722.154 1550 l 257
 662.154 1550 l 257
470.342 1023 m 257
 449.596 966 l 257
 2429.6 966 l 257
 2450.34 1023 l 257
 470.342 1023 l 257
EndSplineSet
Ligature2: "halfHalfFormsinDevanagari2lookup0 subtable" uni092A uni094D
EndChar

StartChar: uni092A_uni094D.haln
Encoding: 65608 -1 475
GlifName: uni092A__uni094D_.haln
Width: 2048
VWidth: 0
GlyphClass: 3
Flags: W
LayerCount: 2
Fore
SplineSet
1124.31 1550 m 257
 1081.36 1491 l 257
 3137.36 1491 l 257
 3180.31 1550 l 257
 1124.31 1550 l 257
2971.3 1539 m 257
 1851 0 l 257
 1912 0 l 257
 3032.3 1539 l 257
 2971.3 1539 l 257
1226.31 1550 m 257
 800.463 965 l 257
 860.463 965 l 257
 1286.31 1550 l 257
 1226.31 1550 l 257
842.684 1023 m 257
 801.19 966 l 257
 2581.19 966 l 257
 2622.68 1023 l 257
 842.684 1023 l 257
1247.35 -16 m 257
 1202.95 -77 l 257
 1546.95 -77 l 257
 1591.35 -16 l 257
 1247.35 -16 l 257
1522.32 -71 m 257
 1760.72 -418 l 257
 1828.57 -366 l 257
 1592.08 -15 l 257
 1522.32 -71 l 257
EndSplineSet
Ligature2: "halnHalantFormsinDevanagari2lookup0 subtable" uni092A uni094D
EndChar

StartChar: uni092B
Encoding: 2347 2347 476
GlifName: uni092B_
Width: 2048
VWidth: 0
GlyphClass: 2
Flags: W
LayerCount: 2
Fore
SplineSet
564.154 1550 m 257
 542.68 1491 l 257
 2590.68 1491 l 257
 2612.15 1550 l 257
 564.154 1550 l 257
2012.15 1539 m 257
 1452 0 l 257
 1512 0 l 257
 2072.15 1539 l 257
 2012.15 1539 l 257
658.154 1550 m 257
 445.231 965 l 257
 505.231 965 l 257
 718.154 1550 l 257
 658.154 1550 l 257
466.342 1023 m 257
 444.867 964 l 257
 2338.87 964 l 257
 2360.34 1023 l 257
 466.342 1023 l 257
2308.34 1023 m 257
 2185.68 686 l 257
 2245.68 686 l 257
 2368.34 1023 l 257
 2308.34 1023 l 257
EndSplineSet
EndChar

StartChar: uni092B_uni0930_uni094D.vatu
Encoding: 65609 -1 477
GlifName: uni092B__uni0930_uni094D_.vatu
Width: 2048
VWidth: 0
GlyphClass: 3
Flags: W
LayerCount: 2
Fore
SplineSet
126 0 m 257
 383 0 l 257
 1614.19 289 l 257
 1635.66 348 l 257
 126 0 l 257
564.154 1550 m 257
 542.68 1491 l 257
 2590.68 1491 l 257
 2612.15 1550 l 257
 564.154 1550 l 257
2012.15 1539 m 257
 1452 0 l 257
 1512 0 l 257
 2072.15 1539 l 257
 2012.15 1539 l 257
658.154 1550 m 257
 445.231 965 l 257
 505.231 965 l 257
 718.154 1550 l 257
 658.154 1550 l 257
466.342 1023 m 257
 444.867 964 l 257
 2338.87 964 l 257
 2360.34 1023 l 257
 466.342 1023 l 257
2308.34 1023 m 257
 2185.68 686 l 257
 2245.68 686 l 257
 2368.34 1023 l 257
 2308.34 1023 l 257
EndSplineSet
Ligature2: "rkrfRakarVariantsinDevanagari2lookup0 subtable" uni092B uni0930_uni094D.blwf
EndChar

